<svg width="13" height="13" viewBox="0 0 13 13" fill="none" xmlns="http://www.w3.org/2000/svg">
	<mask id="mask0" mask-type="alpha" maskUnits="userSpaceOnUse" x="0" y="1" width="12" height="12">
		<mask id="path-1-inside-1" mask-type="luminance" fill="white">
			<path fill-rule="evenodd" clip-rule="evenodd" d="M4.37652 1H0V13H12V8.91307L10.073 10.8401L2.30472 3.0718L4.37652 1Z" />
		</mask>
		<path fill-rule="evenodd" clip-rule="evenodd" d="M4.37652 1H0V13H12V8.91307L10.073 10.8401L2.30472 3.0718L4.37652 1Z" fill="black" />
		<path d="M0 1V0H-1V1H0ZM4.37652 1L5.08362 1.70711L6.79073 0H4.37652V1ZM0 13H-1V14H0V13ZM12 13V14H13V13H12ZM12 8.91307H13V6.49885L11.2929 8.20596L12 8.91307ZM10.073 10.8401L9.36589 11.5472L10.073 12.2543L10.7801 11.5472L10.073 10.8401ZM2.30472 3.0718L1.59761 2.36469L0.890508 3.0718L1.59761 3.7789L2.30472 3.0718ZM0 2H4.37652V0H0V2ZM1 13V1H-1V13H1ZM12 12H0V14H12V12ZM11 8.91307V13H13V8.91307H11ZM11.2929 8.20596L9.36589 10.133L10.7801 11.5472L12.7071 9.62017L11.2929 8.20596ZM10.7801 10.133L3.01183 2.36469L1.59761 3.7789L9.36589 11.5472L10.7801 10.133ZM3.01183 3.7789L5.08362 1.70711L3.66941 0.292893L1.59761 2.36469L3.01183 3.7789Z" fill="#0E2125" fill-opacity="0.26" mask="url(#path-1-inside-1)" />
	</mask>
	<g mask="url(#mask0)">
		<rect x="0.5" y="1.5" width="11" height="11" rx="1.5" stroke="#0E2125" stroke-opacity="0.26" />
	</g>
	<path d="M3.96967 7.96967C3.67678 8.26256 3.67678 8.73744 3.96967 9.03033C4.26256 9.32322 4.73744 9.32322 5.03033 9.03033L3.96967 7.96967ZM11.7803 2.28033C12.0732 1.98744 12.0732 1.51256 11.7803 1.21967C11.4874 0.926777 11.0126 0.926777 10.7197 1.21967L11.7803 2.28033ZM11.4375 1.5625H12.1875C12.1875 1.14829 11.8517 0.8125 11.4375 0.8125V1.5625ZM6.9375 0.8125C6.52329 0.8125 6.1875 1.14829 6.1875 1.5625C6.1875 1.97671 6.52329 2.3125 6.9375 2.3125V0.8125ZM10.6875 6.0625C10.6875 6.47671 11.0233 6.8125 11.4375 6.8125C11.8517 6.8125 12.1875 6.47671 12.1875 6.0625H10.6875ZM5.03033 9.03033L11.7803 2.28033L10.7197 1.21967L3.96967 7.96967L5.03033 9.03033ZM11.4375 0.8125H6.9375V2.3125H11.4375V0.8125ZM12.1875 6.0625V1.5625H10.6875V6.0625H12.1875Z" fill="#0E2125" fill-opacity="0.26" />
</svg>
