<svg width="144" height="26" viewBox="0 0 144 26" fill="none" xmlns="http://www.w3.org/2000/svg">
	<path fill-rule="evenodd" clip-rule="evenodd" d="M16 19.0203L14.0251 17.0203C13.275 17.7201 12.5167 18.2746 11.7497 18.6831C10.9834 19.0912 10.0666 19.2952 9.00008 19.2952C8.16662 19.2952 7.3959 19.133 6.68758 18.8078C5.97926 18.4827 5.36673 18.0372 4.84999 17.4702C4.33325 16.9036 3.93355 16.2412 3.64989 15.483C3.36656 14.7248 3.22523 13.912 3.22523 13.0458C3.22523 12.179 3.36656 11.3706 3.64989 10.6205C3.93355 9.87071 4.33325 9.21673 4.84999 8.6582C5.36673 8.10001 5.97926 7.65852 6.68758 7.33338C7.3959 7.00859 8.16662 6.84602 9.00008 6.84602C9.99983 6.84602 10.8916 7.04602 11.6748 7.44603C12.4584 7.84571 13.2001 8.37084 13.8997 9.02077L15.8749 6.74619C15.4583 6.34618 15.0168 5.97956 14.55 5.64599C14.0835 5.31276 13.5752 5.02507 13.025 4.78358C12.4749 4.54175 11.8708 4.35456 11.2124 4.22134C10.554 4.08778 9.82477 4.021 9.02504 4.021C7.69171 4.021 6.47508 4.25878 5.37516 4.73366C4.2749 5.20854 3.32507 5.85848 2.525 6.68345C1.72493 7.50843 1.10431 8.47068 0.66245 9.57087C0.220592 10.6707 0 11.8458 0 13.0957C0 14.3622 0.224977 15.5454 0.67493 16.6456C1.12488 17.7451 1.74585 18.6992 2.53748 19.5077C3.32912 20.3158 4.26646 20.9533 5.34986 21.4201C6.43326 21.8868 7.61683 22.1199 8.89991 22.1199C9.71684 22.1199 10.4626 22.0491 11.1375 21.9074C11.8125 21.7658 12.4334 21.5577 13.0001 21.2828C13.5667 21.0076 14.096 20.6824 14.5877 20.3077C15.0792 19.9327 15.55 19.5033 16 19.0203Z" fill="white" />
	<path fill-rule="evenodd" clip-rule="evenodd" d="M55.6691 8.97579C55.6691 8.39364 55.9177 7.89898 56.4152 7.49181C56.9123 7.08397 57.6087 6.88038 58.5038 6.88038C59.2995 6.88038 60.0868 7.0345 60.8657 7.34207C61.645 7.64963 62.4323 8.09449 63.2277 8.6763L64.8688 6.35678C63.9741 5.64171 63.0167 5.09725 61.9972 4.7234C60.9774 4.34921 59.8298 4.16211 58.5534 4.16211C57.6916 4.16211 56.8959 4.28258 56.1706 4.52385C55.4413 4.76479 54.82 5.1097 54.3018 5.5586C53.7838 6.00783 53.3776 6.54388 53.0793 7.16742C52.7851 7.79096 52.6359 8.48517 52.6359 9.25004C52.6359 10.0647 52.7643 10.7549 53.0213 11.3202C53.2783 11.8855 53.6553 12.3677 54.1444 12.7668C54.6332 13.1659 55.2424 13.4984 55.9633 13.7646C56.6886 14.0307 57.5135 14.2713 58.4457 14.4877C59.2582 14.6873 59.9167 14.8784 60.4266 15.0611C60.9322 15.2442 61.33 15.4397 61.6242 15.6473C61.9141 15.8553 62.1133 16.0838 62.221 16.3331C62.3287 16.5828 62.3824 16.8651 62.3824 17.1811C62.3824 17.8632 62.1049 18.4036 61.5497 18.8024C60.9942 19.2018 60.2441 19.401 59.2995 19.401C58.2055 19.401 57.2273 19.2055 56.3655 18.8148C55.5034 18.4241 54.65 17.8632 53.8043 17.1313L51.9646 19.3263C53.0089 20.2739 54.1444 20.9765 55.3709 21.4338C56.5977 21.8911 57.8821 22.1196 59.2247 22.1196C60.1364 22.1196 60.9738 22.0032 61.7363 21.7707C62.4944 21.5375 63.1492 21.1966 63.688 20.7477C64.2308 20.2988 64.6534 19.7503 64.96 19.1018C65.2626 18.4534 65.4159 17.7134 65.4159 16.8819C65.4159 16.1504 65.2958 15.5144 65.0553 14.974C64.8148 14.4335 64.4585 13.9601 63.9946 13.5522C63.5303 13.1451 62.9419 12.7998 62.2374 12.5172C61.5333 12.2348 60.7208 11.9771 59.809 11.7442C58.9761 11.5447 58.2924 11.3532 57.7496 11.1705C57.2109 10.9877 56.7882 10.7882 56.4772 10.5718C56.1706 10.3558 55.9596 10.1229 55.8432 9.87358C55.7275 9.6239 55.6691 9.32474 55.6691 8.97579Z" fill="white" />
	<path fill-rule="evenodd" clip-rule="evenodd" d="M89.7054 9.22307V21.6956H92.7433V4.30371H89.4809L84.1768 12.5277L78.8726 4.30371H75.6106V21.6956H78.6485V9.27269L84.1019 17.4222H84.2017L89.7054 9.22307Z" fill="white" />
	<path fill-rule="evenodd" clip-rule="evenodd" d="M118.268 13.0957C118.268 13.9457 118.122 14.7497 117.831 15.5083C117.54 16.2664 117.137 16.9245 116.621 17.4827C116.105 18.0409 115.486 18.4827 114.762 18.8078C114.038 19.133 113.244 19.2952 112.379 19.2952C111.514 19.2952 110.715 19.1286 109.983 18.7953C109.252 18.4618 108.623 18.0118 108.099 17.4456C107.576 16.8786 107.168 16.2162 106.877 15.458C106.586 14.6998 106.44 13.8954 106.44 13.0458C106.44 12.1955 106.586 11.3915 106.877 10.6333C107.168 9.87473 107.571 9.21671 108.087 8.65818C108.603 8.09999 109.223 7.65849 109.946 7.33336C110.67 7.00856 111.464 6.84599 112.329 6.84599C113.194 6.84599 113.993 7.01261 114.725 7.34617C115.456 7.6794 116.085 8.12933 116.608 8.69595C117.133 9.26224 117.54 9.92499 117.831 10.6832C118.122 11.4414 118.268 12.2458 118.268 13.0957ZM121.487 13.0458C121.487 11.8124 121.262 10.6458 120.813 9.54558C120.364 8.44606 119.74 7.48752 118.942 6.67097C118.143 5.85409 117.187 5.20854 116.072 4.73366C114.957 4.25878 113.727 4.021 112.379 4.021C111.032 4.021 109.801 4.26282 108.686 4.74614C107.571 5.22946 106.606 5.88343 105.791 6.70841C104.976 7.53339 104.344 8.49597 103.895 9.59583C103.446 10.6957 103.221 11.8623 103.221 13.0957C103.221 14.3288 103.446 15.4951 103.895 16.5953C104.344 17.6955 104.968 18.6537 105.766 19.4703C106.565 20.2868 107.521 20.9327 108.636 21.4076C109.75 21.8825 110.981 22.1199 112.329 22.1199C113.676 22.1199 114.908 21.8781 116.022 21.3951C117.137 20.9118 118.101 20.2578 118.917 19.4325C119.732 18.6078 120.364 17.6453 120.813 16.5454C121.262 15.4455 121.487 14.2789 121.487 13.0458Z" fill="white" />
	<path fill-rule="evenodd" clip-rule="evenodd" d="M134.253 8.97579C134.253 8.39364 134.502 7.89898 134.999 7.49181C135.496 7.08397 136.192 6.88038 137.088 6.88038C137.883 6.88038 138.671 7.0345 139.45 7.34207C140.229 7.64963 141.016 8.09449 141.812 8.6763L143.453 6.35678C142.558 5.64171 141.6 5.09725 140.581 4.7234C139.562 4.34921 138.414 4.16211 137.137 4.16211C136.276 4.16211 135.48 4.28258 134.755 4.52385C134.025 4.76479 133.404 5.1097 132.886 5.5586C132.368 6.00783 131.962 6.54388 131.663 7.16742C131.369 7.79096 131.22 8.48517 131.22 9.25004C131.22 10.0647 131.348 10.7549 131.605 11.3202C131.862 11.8855 132.239 12.3677 132.728 12.7668C133.217 13.1659 133.826 13.4984 134.548 13.7646C135.273 14.0307 136.097 14.2713 137.03 14.4877C137.842 14.6873 138.501 14.8784 139.011 15.0611C139.516 15.2442 139.914 15.4397 140.208 15.6473C140.498 15.8553 140.697 16.0838 140.805 16.3331C140.913 16.5828 140.967 16.8651 140.967 17.1811C140.967 17.8632 140.689 18.4036 140.134 18.8024C139.578 19.2018 138.828 19.401 137.883 19.401C136.789 19.401 135.811 19.2055 134.949 18.8148C134.088 18.4241 133.234 17.8632 132.388 17.1313L130.549 19.3263C131.593 20.2739 132.728 20.9765 133.955 21.4338C135.181 21.8911 136.466 22.1196 137.809 22.1196C138.72 22.1196 139.557 22.0032 140.32 21.7707C141.078 21.5375 141.733 21.1966 142.272 20.7477C142.815 20.2988 143.237 19.7503 143.544 19.1018C143.846 18.4534 144 17.7134 144 16.8819C144 16.1504 143.879 15.5144 143.639 14.974C143.399 14.4335 143.043 13.9601 142.578 13.5522C142.114 13.1451 141.526 12.7998 140.821 12.5172C140.117 12.2348 139.304 11.9771 138.393 11.7442C137.56 11.5447 136.876 11.3532 136.334 11.1705C135.795 10.9877 135.372 10.7882 135.061 10.5718C134.755 10.3558 134.543 10.1229 134.427 9.87358C134.311 9.6239 134.253 9.32474 134.253 8.97579Z" fill="white" />
	<path fill-rule="evenodd" clip-rule="evenodd" d="M36.8401 7.78536L28.5159 16.0984C28.4086 15.8904 28.3117 15.6737 28.2249 15.4489C27.9342 14.6936 27.7888 13.8922 27.7888 13.0458C27.7888 12.1987 27.9342 11.3977 28.2249 10.6424C28.5159 9.88672 28.919 9.23118 29.4345 8.67476C29.9499 8.11868 30.5694 7.67885 31.2924 7.35495C32.0158 7.03138 32.8095 6.86942 33.6739 6.86942C34.5386 6.86942 35.3367 7.03541 36.0679 7.36771C36.3397 7.49103 36.5971 7.63013 36.8401 7.78536ZM36.1056 18.786C35.3822 19.1099 34.5884 19.2715 33.7241 19.2715C32.8593 19.2715 32.0613 19.1055 31.3298 18.7736C31.0582 18.6499 30.8008 18.5108 30.5583 18.3552L38.8821 10.0429C38.9894 10.2505 39.0863 10.4669 39.1731 10.692C39.4638 11.4474 39.6092 12.2487 39.6092 13.0955C39.6092 13.9422 39.4638 14.7432 39.1731 15.4989C38.8821 16.2542 38.479 16.9098 37.9635 17.4658C37.4481 18.0219 36.829 18.4621 36.1056 18.786ZM37.365 21.3635C38.479 20.882 39.4433 20.2305 40.2579 19.4083C41.0725 18.5868 41.704 17.6278 42.1529 16.5321C42.602 15.4364 42.8265 14.2742 42.8265 13.0458C42.8265 11.817 42.602 10.6548 42.1529 9.55876C41.8867 8.90893 41.559 8.30883 41.17 7.75813L46.5841 2.35152L44.4328 0.203125L39.0022 5.62619C38.5147 5.29422 37.9854 5.00728 37.4148 4.76502C36.3007 4.29193 35.0706 4.05505 33.7241 4.05505C32.3772 4.05505 31.1471 4.29596 30.033 4.77745C28.919 5.25894 27.9547 5.91045 27.1401 6.73231C26.3255 7.55417 25.6936 8.51312 25.2448 9.60882C24.7959 10.7045 24.5715 11.8668 24.5715 13.0955C24.5715 14.3239 24.7959 15.4858 25.2448 16.5819C25.5113 17.232 25.839 17.8321 26.2279 18.3832L20.8142 23.7891L22.9656 25.9375L28.3958 20.5148C28.8833 20.8467 29.4126 21.1337 29.9832 21.3759C31.0973 21.849 32.3274 22.0856 33.6739 22.0856C35.0208 22.0856 36.2509 21.8447 37.365 21.3635Z" fill="white" />
</svg>
