<?xml version="1.0" standalone="no"?>
<!DOCTYPE svg PUBLIC "-//W3C//DTD SVG 20010904//EN"
 "http://www.w3.org/TR/2001/REC-SVG-20010904/DTD/svg10.dtd">
<svg version="1.0" xmlns="http://www.w3.org/2000/svg"
 width="260.000000pt" height="260.000000pt" viewBox="0 0 260.000000 260.000000"
 preserveAspectRatio="xMidYMid meet">
<metadata>
Created by potrace 1.11, written by Peter Selinger 2001-2013
</metadata>
<g transform="translate(0.000000,260.000000) scale(0.100000,-0.100000)"
fill="#000000" stroke="none">
<path d="M2111 2328 l-274 -272 -76 41 c-161 86 -286 114 -491 108 -110 -2
-163 -8 -219 -25 -322 -93 -555 -327 -643 -645 -18 -67 -22 -105 -21 -240 0
-143 3 -169 26 -245 27 -90 73 -195 107 -245 11 -16 20 -33 20 -37 0 -5 -121
-129 -270 -278 l-270 -270 105 -105 c57 -58 108 -105 112 -105 5 0 129 121
277 269 l269 269 71 -38 c149 -81 270 -112 444 -115 170 -4 310 27 447 97 256
131 424 355 480 640 13 69 15 291 2 343 -3 11 -8 34 -12 50 -19 80 -59 177
-111 268 l-28 48 272 272 272 272 -107 107 -108 107 -274 -271z m-668 -417
c50 -12 167 -66 167 -78 0 -3 -187 -192 -416 -420 -308 -307 -419 -412 -425
-402 -13 19 -47 135 -57 189 -8 47 -8 177 1 220 39 194 154 360 304 438 123
64 292 85 426 53z m403 -353 c9 -24 18 -47 19 -53 2 -5 8 -30 15 -55 18 -63
16 -231 -4 -313 -57 -239 -252 -424 -479 -454 -143 -19 -302 11 -397 76 -12 9
64 90 400 426 228 228 418 415 421 415 4 0 15 -19 25 -42z"/>
</g>
</svg>
