<?xml version="1.0" encoding="UTF-8"?>
<svg width="768px" height="138px" viewBox="0 0 768 138" version="1.1" xmlns="http://www.w3.org/2000/svg" xmlns:xlink="http://www.w3.org/1999/xlink">
    <!-- Generator: Sketch 52.2 (67145) - http://www.bohemiancoding.com/sketch -->
    <title>wordmark</title>
    <desc>Created with Sketch.</desc>
    <g id="Page-1" stroke="none" stroke-width="1" fill="none" fill-rule="evenodd">
        <g id="wordmark" fill="#FFFFFF">
            <path d="M85.3333333,101.101779 L74.8006858,90.435497 C70.7998988,94.1677964 66.7559378,97.1248567 62.665205,99.3030807 C58.5780701,101.479506 53.6886191,102.567718 48.0004497,102.567718 C43.5553307,102.567718 39.4448098,101.702544 35.6670883,99.9685991 C31.8893667,98.2346537 28.622537,95.858573 25.8665992,92.8349608 C23.1106614,89.8131473 20.9789471,86.2805034 19.4660595,82.2370291 C17.9549709,78.1935549 17.2012255,73.8586914 17.2012255,69.2396336 C17.2012255,64.6169784 17.9549709,60.3054981 19.4660595,56.3051926 C20.9789471,52.3066858 23.1106614,48.8190094 25.8665992,45.8403646 C28.622537,42.8635186 31.8893667,40.5090222 35.6670883,38.7750769 C39.4448098,37.0429302 43.5553307,36.1759575 48.0004497,36.1759575 C53.3324339,36.1759575 58.0887652,37.2425857 62.2658459,39.3758422 C66.4447255,41.5072999 70.4005397,44.3078735 74.1314894,47.7739655 L84.6659359,35.6435427 C82.4442758,33.5102863 80.089496,31.555101 77.5997976,29.7761882 C75.1118981,27.999074 72.4009332,26.4647842 69.4669028,25.1769161 C66.5328724,23.8872492 63.3110155,22.8889715 59.7995334,22.1784856 C56.2880513,21.466201 52.398797,21.1100587 48.1335694,21.1100587 C41.0224583,21.1100587 34.5337718,22.3781412 28.6675099,24.9107087 C22.7994491,27.4432762 17.7337044,30.9093682 13.4666779,35.3089848 C9.19965146,39.7086014 5.88964781,44.8402883 3.53306912,50.7076428 C1.17649043,56.5731987 0,62.8398643 0,69.505841 C0,76.2599539 1.19987632,82.5697883 3.59962897,88.4371429 C5.99938162,94.3009001 9.31118419,99.3894182 13.5332378,103.700899 C17.7552913,108.01058 22.7544762,111.41012 28.5325913,113.899519 C34.3107064,116.388918 40.6230992,117.631819 47.466172,117.631819 C51.8231442,117.631819 55.8005453,117.254092 59.4001743,116.498638 C62.9998032,115.743185 66.3116058,114.633388 69.3337831,113.167449 C72.3559603,111.699711 75.178458,109.965765 77.8012761,107.967411 C80.4222953,105.967259 82.9335807,103.677515 85.3333333,101.101779" id="Fill-3"></path>
            <path d="M296.901872,47.5355809 C296.901872,44.4309601 298.227615,41.7929296 300.88089,39.6214896 C303.532376,37.4464604 307.246604,36.3607404 312.019995,36.3607404 C316.263804,36.3607404 320.462885,37.1826573 324.617238,38.8229021 C328.77338,40.4631469 332.972461,42.8355797 337.214481,45.938406 L345.96689,33.5683762 C341.195288,29.7548968 336.08912,26.8512687 330.651963,24.857492 C325.213017,22.8619206 319.092414,21.864135 312.284785,21.864135 C307.688518,21.864135 303.444709,22.5065941 299.576617,23.7933069 C295.687055,25.0782251 292.373591,26.9176681 289.60939,29.3116359 C286.846978,31.7073982 284.680346,34.5661618 283.089812,37.8915159 C281.520747,41.2168699 280.724586,44.9190854 280.724586,48.9981624 C280.724586,53.3428371 281.409821,57.0235176 282.780293,60.0384096 C284.150764,63.0533015 286.161743,65.6249326 288.77029,67.7533027 C291.377048,69.8816729 294.626102,71.6547164 298.470936,73.0742281 C302.339029,74.4937397 306.738492,75.7768633 311.710476,76.9307773 C316.043741,77.9949624 319.555797,79.014283 322.27527,79.9887392 C324.971485,80.9649899 327.093389,82.00764 328.662454,83.114895 C330.208259,84.2239445 331.271001,85.4424633 331.845311,86.772246 C332.41962,88.1038233 332.705881,89.6094747 332.705881,91.2945839 C332.705881,94.9321946 331.226273,97.8142878 328.265267,99.9408633 C325.302473,102.071028 321.301985,103.133419 316.263804,103.133419 C310.429461,103.133419 305.212367,102.090768 300.616099,100.007263 C296.018043,97.9237571 291.466504,94.9321946 286.956115,91.0289863 L277.144543,102.735022 C282.714095,107.788555 288.77029,111.535635 295.311338,113.974467 C301.854175,116.4133 308.704742,117.631819 315.864829,117.631819 C320.727676,117.631819 325.193337,117.010894 329.260022,115.770841 C333.303449,114.527198 336.795825,112.70929 339.669163,110.315322 C342.56397,107.921354 344.81827,104.996191 346.453532,101.538038 C348.067325,98.0798854 348.884956,94.1336072 348.884956,89.6992036 C348.884956,85.7977899 348.244448,82.4060365 346.961644,79.5239433 C345.67884,76.6418502 343.778787,74.1168782 341.304425,71.941849 C338.828273,69.770409 335.690144,67.9291714 331.932978,66.4217254 C328.1776,64.916074 323.844335,63.5414269 318.981488,62.2995785 C314.539085,61.2353935 310.892845,60.2142783 307.998037,59.2398221 C305.124699,58.265366 302.870399,57.2011809 301.211879,56.0472669 C299.576617,54.8951475 298.451256,53.6532992 297.830429,52.3235165 C297.21318,50.9919392 296.901872,49.3965589 296.901872,47.5355809" id="Fill-4"></path>
            <polyline id="Fill-5" points="478.42886 48.8532538 478.42886 115.36959 494.631268 115.36959 494.631268 22.6182112 477.231867 22.6182112 448.943057 66.4767666 420.654247 22.6182112 403.256637 22.6182112 403.256637 115.36959 419.459046 115.36959 419.459046 49.1178389 448.543462 92.5795167 449.075658 92.5795167 478.42886 48.8532538"></polyline>
            <path d="M630.761922,69.505841 C630.761922,74.0385613 629.986243,78.3266585 628.43309,82.3719315 C626.881732,86.4154058 624.73066,89.9246666 621.978077,92.9015126 C619.229085,95.8783587 615.923472,98.2346537 612.064829,99.9685991 C608.20439,101.702544 603.968681,102.567718 599.355905,102.567718 C594.741334,102.567718 590.482283,101.679161 586.578751,99.9020473 C582.675219,98.1231344 579.324717,95.7236706 576.530836,92.7036558 C573.736956,89.6800436 571.562541,86.1473997 570.009388,82.1039254 C568.45803,78.0604512 567.680556,73.7705552 567.680556,69.2396336 C567.680556,64.7051147 568.45803,60.4170174 570.009388,56.3735431 C571.562541,52.3282702 573.713614,48.8190094 576.464401,45.8403646 C579.215188,42.8635186 582.520801,40.5090222 586.379444,38.7750769 C590.238088,37.0429302 594.475593,36.1759575 599.088368,36.1759575 C603.702939,36.1759575 607.961991,37.0645146 611.865523,38.8434274 C615.767259,40.6205415 619.117761,43.0200054 621.911641,46.0418189 C624.707317,49.0618337 626.881732,52.5962763 628.43309,56.6397505 C629.986243,60.6832248 630.761922,64.9731208 630.761922,69.505841 Z M647.929204,69.2396336 C647.929204,62.6617932 646.73157,56.440095 644.336302,50.5727404 C641.94283,44.7089833 638.613875,39.5970821 634.356619,35.242433 C630.097567,30.8859852 624.996401,27.4432762 619.04953,24.9107087 C613.10625,22.3781412 606.541708,21.1100587 599.355905,21.1100587 C592.168307,21.1100587 585.603765,22.3997256 579.65869,24.9772605 C573.713614,27.5547955 568.567559,31.0424719 564.220525,35.4420885 C559.871696,39.8417051 556.503239,44.9751906 554.106176,50.8407465 C551.710908,56.7063024 550.513274,62.9280005 550.513274,69.505841 C550.513274,76.0818828 551.710908,82.3017823 554.106176,88.1691368 C556.503239,94.0364914 559.828603,99.1465939 564.087655,103.501243 C568.344911,107.855892 573.447872,111.3004 579.392948,113.832967 C585.336228,116.365535 591.90077,117.631819 599.088368,117.631819 C606.274171,117.631819 612.840508,116.342152 618.783788,113.766415 C624.73066,111.18888 629.874919,107.701204 634.223748,103.299789 C638.570782,98.9019709 641.94283,93.7684853 644.336302,87.9029295 C646.73157,82.0373736 647.929204,75.8156754 647.929204,69.2396336 Z" id="Fill-6" fill-rule="nonzero"></path>
            <path d="M716.016916,47.5355809 C716.016916,44.4309601 717.342659,41.7929296 719.994145,39.6214896 C722.647421,37.4464604 726.359859,36.3607404 731.135039,36.3607404 C735.377059,36.3607404 739.577929,37.1826573 743.732282,38.8229021 C747.886635,40.4631469 752.087505,42.8355797 756.331314,45.938406 L765.081934,33.5683762 C760.308543,29.7548968 755.202375,26.8512687 749.765218,24.857492 C744.32985,22.8619206 738.207458,21.864135 731.39983,21.864135 C726.803563,21.864135 722.559753,22.5065941 718.691661,23.7933069 C714.802099,25.0782251 711.488636,26.9176681 708.724435,29.3116359 C705.962023,31.7073982 703.797179,34.5661618 702.203067,37.8915159 C700.635792,41.2168699 699.83963,44.9190854 699.83963,48.9981624 C699.83963,53.3428371 700.524866,57.0235176 701.895337,60.0384096 C703.265808,63.0533015 705.276787,65.6249326 707.883545,67.7533027 C710.492092,69.8816729 713.741147,71.6547164 717.58777,73.0742281 C721.454073,74.4937397 725.853536,75.7768633 730.82552,76.9307773 C735.156996,77.9949624 738.670842,79.014283 741.390315,79.9887392 C744.08474,80.9649899 746.208434,82.00764 747.777498,83.114895 C749.323304,84.2239445 750.386045,85.4424633 750.960355,86.772246 C751.534665,88.1038233 751.822714,89.6094747 751.822714,91.2945839 C751.822714,94.9321946 750.339528,97.8142878 747.380312,99.9408633 C744.417517,102.071028 740.41703,103.133419 735.377059,103.133419 C729.542716,103.133419 724.325622,102.090768 719.731144,100.007263 C715.134876,97.9237571 710.581548,94.9321946 706.071159,91.0289863 L696.259587,102.735022 C701.82735,107.788555 707.883545,111.535635 714.426382,113.974467 C720.96743,116.4133 727.817998,117.631819 734.979873,117.631819 C739.84272,117.631819 744.306592,117.010894 748.375066,115.770841 C752.418493,114.527198 755.910869,112.70929 758.784207,110.315322 C761.679014,107.921354 763.933314,104.996191 765.568576,101.538038 C767.18058,98.0798854 768,94.1336072 768,89.6992036 C768,85.7977899 767.357703,82.4060365 766.076689,79.5239433 C764.793884,76.6418502 762.893832,74.1168782 760.41768,71.941849 C757.943317,69.770409 754.805189,67.9291714 751.048022,66.4217254 C747.290855,64.916074 742.95759,63.5414269 738.096532,62.2995785 C733.65413,61.2353935 730.007889,60.2142783 727.113082,59.2398221 C724.239744,58.265366 721.985444,57.2011809 720.326923,56.0472669 C718.691661,54.8951475 717.564511,53.6532992 716.945473,52.3235165 C716.328224,50.9919392 716.016916,49.3965589 716.016916,47.5355809" id="Fill-7"></path>
            <path d="M196.480122,41.1860909 L152.084588,85.5195716 C151.512147,84.4103834 150.995336,83.2546058 150.532359,82.0558224 C148.981925,78.0276237 148.206708,73.7539342 148.206708,69.2401297 C148.206708,64.7227413 148.981925,60.4508438 150.532359,56.4226451 C152.084588,52.3926544 154.23438,48.896651 156.983529,45.9292591 C159.732679,42.963659 163.036324,40.6180575 166.89267,38.8906627 C170.75081,37.1650598 174.983998,36.3013624 179.594027,36.3013624 C184.205851,36.3013624 188.462367,37.1865626 192.361781,38.958755 C193.811724,39.6163836 195.184504,40.3582316 196.480122,41.1860909 Z M192.562763,99.8530064 C188.704622,101.580401 184.471435,102.442307 179.861405,102.442307 C175.249582,102.442307 170.993066,101.557107 167.091857,99.786706 C165.643709,99.1272856 164.270929,98.3854376 162.977106,97.5557864 L207.370845,53.2258895 C207.943285,54.3332858 208.460097,55.4872715 208.923073,56.6878467 C210.473508,60.7160455 211.248725,64.9897349 211.248725,69.5053314 C211.248725,74.0209278 210.473508,78.2928254 208.923073,82.322816 C207.370845,86.3510147 205.221053,89.8470182 202.471904,92.8126182 C199.722754,95.7782182 196.420904,98.1256116 192.562763,99.8530064 Z M199.279517,113.598697 C205.221053,111.0309 210.364044,107.556399 214.70849,103.171611 C219.052936,98.7904078 222.421182,93.6763156 224.815024,87.8329188 C227.21066,81.989522 228.40758,75.7913283 228.40758,69.2401297 C228.40758,62.6871391 227.21066,56.4889455 224.815024,50.6437568 C223.395587,47.1782157 221.647759,43.9778763 219.573336,41.0409467 L248.448378,12.20743 L236.974447,0.75 L208.011476,29.67132 C205.411268,27.9009195 202.588545,26.370634 199.5451,25.0786717 C193.603564,22.5556718 187.04293,21.29238 179.861405,21.29238 C172.678086,21.29238 166.117453,22.5771747 160.175916,25.1449721 C154.23438,27.7127696 149.091389,31.1872702 144.746943,35.5702658 C140.402497,39.9532614 137.032456,45.0673535 134.638615,50.9107504 C132.244773,56.7541472 131.047852,62.9523408 131.047852,69.5053314 C131.047852,76.05653 132.244773,82.2529318 134.638615,88.0981205 C136.059846,91.5654535 137.807673,94.7657928 139.882097,97.7045143 L111.00885,126.534447 L122.48278,137.991877 L151.443957,109.072349 C154.044164,110.84275 156.866888,112.373035 159.910332,113.664997 C165.851869,116.187997 172.412502,117.449497 179.594027,117.449497 C186.777347,117.449497 193.33798,116.164703 199.279517,113.598697 Z" id="Fill-8" fill-rule="nonzero"></path>
        </g>
    </g>
</svg>