<?xml version="1.0" encoding="UTF-8" standalone="no"?><!DOCTYPE svg PUBLIC "-//W3C//DTD SVG 1.1//EN" "http://www.w3.org/Graphics/SVG/1.1/DTD/svg11.dtd"><svg width="100%" height="100%" viewBox="0 0 305 305" version="1.1" xmlns="http://www.w3.org/2000/svg" xmlns:xlink="http://www.w3.org/1999/xlink" xml:space="preserve" style="fill-rule:evenodd;clip-rule:evenodd;stroke-linejoin:round;stroke-miterlimit:1.41421;"><rect id="Artboard2" x="-379.707" y="-431.158" width="1451.79" height="837.722" style="fill:none;"/><path d="M305.584,-1.861l0.097,0.065l0.065,0.097l0.023,0.115l0,307.112l-0.023,0.115l-0.065,0.097l-0.097,0.065l-0.115,0.023l-307.112,0l-0.115,-0.023l-0.097,-0.065l-0.065,-0.097l-0.023,-0.115l0,-307.112l0.023,-0.115l0.065,-0.097l0.097,-0.065l0.115,-0.023l307.112,0l0.115,0.023Zm-307.227,0.277l0,307.112l307.112,0l0,-307.112l-307.112,0Z" style="fill:#0042ff;"/><g><path d="M143.093,130.23c-2.1,0.689 -4.117,1.625 -6,2.785c-3.579,2.206 -6.651,5.208 -8.943,8.732c-2.141,3.293 -3.58,7.028 -4.199,10.907c-0.584,3.663 -0.447,7.443 0.412,11.052c0.798,3.356 2.218,6.554 4.166,9.4c2.084,3.045 4.763,5.676 7.844,7.705c2.348,1.545 4.925,2.739 7.623,3.524c2.862,0.833 5.853,1.203 8.831,1.108c2.484,-0.078 4.957,-0.483 7.335,-1.207c2.85,-0.868 5.557,-2.192 7.994,-3.904c2.739,-1.925 5.135,-4.333 7.043,-7.085c2.164,-3.123 3.69,-6.675 4.453,-10.398c0.275,-1.341 0.451,-2.701 0.529,-4.067c0.032,-0.55 0.045,-1.101 0.047,-1.651l0,-0.016c0,-0.094 0.001,-0.188 0.002,-0.283c0.004,-0.361 0.017,-0.722 0.038,-1.082c0.127,-2.205 0.554,-4.391 1.277,-6.477c0.749,-2.163 1.807,-4.215 3.133,-6.08c1.452,-2.043 3.224,-3.856 5.23,-5.358c2.067,-1.546 4.382,-2.758 6.833,-3.571c1.517,-0.503 3.085,-0.854 4.673,-1.046c0.762,-0.092 1.527,-0.145 2.294,-0.167c0.258,-0.006 0.516,-0.008 0.774,-0.008c1.377,0.014 2.75,0.134 4.106,0.377c2.62,0.468 5.159,1.377 7.483,2.677c1.853,1.037 3.568,2.32 5.088,3.804c1.173,1.145 2.231,2.41 3.148,3.768c1.758,2.603 2.999,5.545 3.63,8.622c0.315,1.538 0.475,3.106 0.489,4.676c0.009,0.224 0.005,0.456 0.003,0.669c-0.001,0.165 -0.002,0.33 -0.004,0.494c-0.011,0.819 -0.034,1.638 -0.07,2.456c-0.151,3.383 -0.524,6.756 -1.12,10.09c-1.269,7.098 -3.555,14.009 -6.765,20.465c-3.351,6.739 -7.702,12.974 -12.863,18.451c-3.148,3.343 -6.597,6.402 -10.29,9.131c-3.838,2.836 -7.941,5.313 -12.239,7.385c-6.072,2.928 -12.532,5.043 -19.161,6.271c-7.814,1.449 -15.857,1.67 -23.741,0.667c-3.784,-0.482 -7.531,-1.248 -11.201,-2.291c-7.167,-2.037 -14.025,-5.136 -20.297,-9.158c-3.999,-2.565 -7.758,-5.502 -11.216,-8.76c-3.789,-3.569 -7.215,-7.524 -10.207,-11.783c-2.746,-3.91 -5.126,-8.077 -7.095,-12.43c-1.869,-4.132 -3.368,-8.43 -4.472,-12.828c-2.085,-8.311 -2.75,-16.969 -1.991,-25.503c0.66,-7.414 2.407,-14.725 5.182,-21.632c2.015,-5.016 4.566,-9.815 7.593,-14.293c3.174,-4.694 6.866,-9.035 10.99,-12.92c3.682,-3.469 7.705,-6.574 11.996,-9.253c4.463,-2.787 9.214,-5.113 14.155,-6.923c5.334,-1.955 10.887,-3.307 16.522,-4.028c-0.366,1.06 -0.565,2.197 -0.565,3.38c0,1.66 0.392,3.23 1.088,4.62c-1.525,0.207 -3.043,0.464 -4.55,0.773c-3.857,0.79 -7.645,1.916 -11.307,3.361c-3.35,1.322 -6.594,2.911 -9.693,4.744c-6.501,3.844 -12.356,8.767 -17.266,14.504c-5.116,5.978 -9.198,12.83 -11.996,20.185c-2.531,6.652 -4.003,13.696 -4.363,20.804c-0.329,6.51 0.255,13.066 1.763,19.409c1.645,6.914 4.379,13.56 8.071,19.632c2.141,3.522 4.6,6.85 7.336,9.933c2.73,3.078 5.737,5.909 8.971,8.452c3.572,2.809 7.424,5.262 11.48,7.31c3.482,1.758 7.114,3.216 10.845,4.352c3.394,1.034 6.869,1.8 10.382,2.293c5.489,0.769 11.073,0.871 16.587,0.311c4.39,-0.447 8.736,-1.318 12.958,-2.604c4.788,-1.458 9.413,-3.448 13.767,-5.918c4.781,-2.712 9.233,-6.001 13.234,-9.771c3.495,-3.293 6.645,-6.951 9.382,-10.897c2.597,-3.744 4.82,-7.748 6.622,-11.934c1.719,-3.994 3.055,-8.153 3.981,-12.402c0.703,-3.228 1.171,-6.506 1.401,-9.802c0.108,-1.557 0.16,-3.117 0.167,-4.679c-0.004,-0.122 -0.003,-0.244 -0.005,-0.367c-0.001,-0.138 -0.006,-0.277 -0.01,-0.415c-0.007,-0.172 -0.017,-0.343 -0.028,-0.515c-0.052,-0.707 -0.145,-1.411 -0.288,-2.106c-0.316,-1.542 -0.861,-3.037 -1.613,-4.42c-1.021,-1.875 -2.412,-3.541 -4.074,-4.88c-1.262,-1.017 -2.678,-1.843 -4.186,-2.438c-2.952,-1.165 -6.24,-1.424 -9.34,-0.747c-1.411,0.307 -2.778,0.807 -4.055,1.481c-1.487,0.785 -2.847,1.804 -4.022,3.007c-0.902,0.923 -1.694,1.956 -2.351,3.068c-0.366,0.618 -0.687,1.26 -0.969,1.92c-0.192,0.45 -0.36,0.91 -0.508,1.375c-0.334,1.049 -0.559,2.133 -0.67,3.228c-0.056,0.554 -0.081,1.11 -0.083,1.667l-0.001,0.025c0.001,0.064 0,0.129 0,0.193c-0.002,0.312 -0.008,0.623 -0.018,0.934c-0.046,1.458 -0.179,2.914 -0.4,4.356c-0.464,3.03 -1.314,5.998 -2.526,8.813c-1.53,3.555 -3.634,6.859 -6.204,9.753c-2.655,2.993 -5.803,5.544 -9.283,7.518c-3.223,1.828 -6.724,3.156 -10.349,3.923c-5.539,1.172 -11.348,1.029 -16.821,-0.416c-3.426,-0.905 -6.714,-2.318 -9.73,-4.177c-4.023,-2.479 -7.552,-5.745 -10.337,-9.563c-2.604,-3.567 -4.549,-7.608 -5.703,-11.872c-1.081,-3.993 -1.466,-8.165 -1.153,-12.29c0.268,-3.53 1.056,-7.018 2.336,-10.319c1.033,-2.666 2.384,-5.207 4.013,-7.556c1.614,-2.328 3.5,-4.467 5.608,-6.36c3.429,-3.08 7.441,-5.5 11.77,-7.086c0.813,-0.298 1.637,-0.567 2.47,-0.806c-0.216,0.831 -0.33,1.702 -0.33,2.599c0,1.98 0.557,3.83 1.523,5.403Z" style="fill:#333;"/><path d="M152.096,110.486c0.609,0.011 1.215,0.053 1.817,0.137c1.404,0.197 2.777,0.604 4.062,1.204c1.512,0.707 2.897,1.679 4.077,2.859c1.099,1.098 2.017,2.374 2.709,3.764c0.629,1.266 1.069,2.625 1.301,4.02c0.248,1.497 0.257,3.033 0.029,4.533c-0.222,1.458 -0.673,2.881 -1.33,4.201c-0.743,1.493 -1.747,2.853 -2.954,4.004c-1.294,1.233 -2.817,2.222 -4.472,2.899c-1.717,0.702 -3.568,1.063 -5.423,1.063c-1.854,0 -3.704,-0.361 -5.421,-1.062c-1.655,-0.677 -3.179,-1.666 -4.473,-2.9c-1.207,-1.151 -2.211,-2.511 -2.954,-4.004c-0.656,-1.32 -1.106,-2.74 -1.329,-4.197c-0.221,-1.442 -0.221,-2.918 0,-4.36c0.223,-1.456 0.673,-2.877 1.329,-4.197c0.641,-1.288 1.476,-2.478 2.469,-3.519c1.231,-1.29 2.701,-2.349 4.317,-3.104c1.284,-0.6 2.657,-1.006 4.061,-1.203c0.603,-0.085 1.209,-0.127 1.817,-0.138c0.184,-0.002 0.184,-0.002 0.368,0Zm-0.267,7.999c-0.27,0.005 -0.539,0.024 -0.806,0.061c-0.618,0.087 -1.221,0.265 -1.786,0.529c-1.298,0.607 -2.372,1.656 -3.01,2.939c-0.242,0.485 -0.42,1.002 -0.528,1.533c-0.146,0.711 -0.169,1.45 -0.068,2.169c0.091,0.644 0.281,1.272 0.563,1.858c0.332,0.689 0.791,1.316 1.344,1.843c0.573,0.546 1.247,0.986 1.98,1.285c0.784,0.321 1.63,0.478 2.478,0.467c0.843,-0.01 1.68,-0.189 2.453,-0.527c1.077,-0.471 2.012,-1.246 2.682,-2.211c0.424,-0.612 0.739,-1.298 0.925,-2.019c0.2,-0.778 0.25,-1.597 0.148,-2.394c-0.079,-0.62 -0.249,-1.227 -0.507,-1.796c-0.316,-0.698 -0.759,-1.337 -1.3,-1.878c-0.56,-0.559 -1.223,-1.015 -1.948,-1.332c-0.548,-0.24 -1.131,-0.401 -1.725,-0.476c-0.297,-0.038 -0.595,-0.053 -0.895,-0.051Z" style="fill:#0042ff;fill-rule:nonzero;"/><path d="M152.097,70.282c0.668,0.013 1.334,0.063 1.995,0.164c1.341,0.206 2.653,0.603 3.883,1.178c1.408,0.658 2.707,1.547 3.832,2.619c1.207,1.151 2.211,2.511 2.954,4.005c0.63,1.265 1.069,2.625 1.301,4.019c0.248,1.497 0.257,3.033 0.029,4.533c-0.222,1.458 -0.673,2.88 -1.33,4.2c-0.743,1.493 -1.747,2.854 -2.954,4.005c-1.294,1.233 -2.817,2.222 -4.472,2.899c-1.717,0.702 -3.568,1.063 -5.423,1.063c-1.854,0 -3.704,-0.361 -5.421,-1.062c-1.655,-0.677 -3.179,-1.667 -4.473,-2.9c-1.207,-1.151 -2.211,-2.511 -2.954,-4.005c-0.656,-1.319 -1.106,-2.74 -1.329,-4.196c-0.221,-1.442 -0.221,-2.918 0,-4.36c0.223,-1.456 0.673,-2.877 1.329,-4.196c0.717,-1.442 1.678,-2.76 2.83,-3.885c1.153,-1.126 2.496,-2.057 3.956,-2.739c1.23,-0.575 2.542,-0.973 3.884,-1.178c0.661,-0.101 1.326,-0.151 1.993,-0.164c0.185,-0.001 0.185,-0.001 0.37,0Zm-0.267,8c-0.297,0.006 -0.593,0.028 -0.887,0.073c-0.59,0.09 -1.166,0.264 -1.706,0.517c-1.298,0.607 -2.372,1.656 -3.01,2.938c-0.242,0.486 -0.42,1.003 -0.528,1.534c-0.146,0.711 -0.169,1.45 -0.068,2.169c0.087,0.618 0.266,1.222 0.53,1.787c0.324,0.693 0.775,1.327 1.322,1.861c0.567,0.553 1.235,1 1.965,1.309c0.752,0.318 1.565,0.486 2.381,0.496c0.847,0.011 1.693,-0.146 2.477,-0.467c0.733,-0.3 1.407,-0.738 1.981,-1.285c0.553,-0.527 1.012,-1.154 1.344,-1.843c0.269,-0.56 0.457,-1.16 0.55,-1.775c0.114,-0.746 0.097,-1.512 -0.055,-2.252c-0.129,-0.632 -0.357,-1.242 -0.671,-1.805c-0.624,-1.115 -1.585,-2.031 -2.729,-2.6c-0.532,-0.265 -1.102,-0.454 -1.687,-0.558c-0.291,-0.052 -0.584,-0.082 -0.879,-0.095c-0.11,-0.003 -0.22,-0.005 -0.33,-0.004Z" style="fill:#0042ff;fill-rule:nonzero;"/></g></svg>