<?xml version="1.0" encoding="UTF-8" standalone="no"?><!DOCTYPE svg PUBLIC "-//W3C//DTD SVG 1.1//EN" "http://www.w3.org/Graphics/SVG/1.1/DTD/svg11.dtd"><svg width="100%" height="100%" viewBox="0 0 577 201" version="1.1" xmlns="http://www.w3.org/2000/svg" xmlns:xlink="http://www.w3.org/1999/xlink" xml:space="preserve" style="fill-rule:evenodd;clip-rule:evenodd;stroke-linejoin:round;stroke-miterlimit:1.41421;"><rect id="Artboard2" x="-515.707" y="-80.158" width="1451.79" height="837.722" style="fill:none;"/><g><path d="M81.65,80.827c-2.099,0.689 -4.117,1.625 -6,2.785c-3.578,2.206 -6.651,5.208 -8.943,8.732c-2.141,3.293 -3.58,7.028 -4.199,10.907c-0.584,3.663 -0.447,7.443 0.412,11.052c0.798,3.356 2.218,6.554 4.167,9.4c2.083,3.045 4.762,5.676 7.843,7.705c2.348,1.545 4.925,2.739 7.623,3.524c2.862,0.833 5.853,1.202 8.831,1.108c2.484,-0.078 4.957,-0.483 7.335,-1.207c2.85,-0.868 5.557,-2.192 7.994,-3.904c2.739,-1.925 5.135,-4.333 7.043,-7.085c2.164,-3.123 3.69,-6.675 4.453,-10.398c0.275,-1.341 0.451,-2.701 0.529,-4.067c0.032,-0.55 0.045,-1.101 0.047,-1.651l0.001,-0.016c-0.001,-0.094 0,-0.188 0.001,-0.283c0.004,-0.361 0.017,-0.722 0.038,-1.082c0.127,-2.205 0.554,-4.391 1.277,-6.477c0.749,-2.163 1.807,-4.215 3.133,-6.08c1.452,-2.043 3.224,-3.856 5.23,-5.358c2.067,-1.546 4.383,-2.758 6.833,-3.571c1.518,-0.503 3.086,-0.854 4.673,-1.046c0.762,-0.092 1.527,-0.145 2.294,-0.167c0.258,-0.006 0.516,-0.008 0.774,-0.008c1.377,0.014 2.75,0.134 4.106,0.377c2.621,0.468 5.159,1.377 7.483,2.677c1.854,1.037 3.568,2.32 5.089,3.804c1.173,1.145 2.23,2.41 3.147,3.768c1.758,2.603 2.999,5.545 3.63,8.622c0.315,1.538 0.475,3.106 0.489,4.675c0.009,0.225 0.005,0.457 0.004,0.67c-0.002,0.165 -0.003,0.33 -0.005,0.494c-0.011,0.819 -0.034,1.638 -0.07,2.456c-0.151,3.383 -0.524,6.756 -1.12,10.09c-1.269,7.098 -3.554,14.009 -6.765,20.465c-3.351,6.739 -7.702,12.974 -12.862,18.451c-3.149,3.343 -6.598,6.402 -10.291,9.131c-3.837,2.836 -7.941,5.313 -12.239,7.385c-6.072,2.928 -12.532,5.043 -19.161,6.271c-7.814,1.449 -15.857,1.67 -23.741,0.667c-3.784,-0.482 -7.531,-1.248 -11.201,-2.291c-7.167,-2.037 -14.025,-5.136 -20.297,-9.158c-3.999,-2.565 -7.758,-5.502 -11.216,-8.76c-3.789,-3.569 -7.215,-7.524 -10.206,-11.783c-2.747,-3.91 -5.127,-8.077 -7.096,-12.43c-1.869,-4.132 -3.368,-8.43 -4.472,-12.828c-2.085,-8.311 -2.75,-16.969 -1.991,-25.503c0.66,-7.414 2.407,-14.725 5.182,-21.632c2.015,-5.016 4.566,-9.815 7.593,-14.293c3.174,-4.694 6.866,-9.035 10.99,-12.92c3.682,-3.469 7.705,-6.574 11.996,-9.253c4.463,-2.787 9.214,-5.113 14.155,-6.923c5.334,-1.955 10.887,-3.307 16.523,-4.028c-0.367,1.06 -0.566,2.197 -0.566,3.38c0,1.66 0.392,3.23 1.088,4.62c-1.525,0.207 -3.043,0.464 -4.55,0.773c-3.857,0.79 -7.645,1.916 -11.307,3.361c-3.35,1.322 -6.594,2.911 -9.693,4.744c-6.5,3.844 -12.356,8.767 -17.266,14.504c-5.116,5.978 -9.198,12.83 -11.996,20.185c-2.531,6.652 -4.003,13.696 -4.363,20.804c-0.329,6.51 0.255,13.066 1.763,19.409c1.645,6.914 4.379,13.56 8.071,19.632c2.141,3.522 4.6,6.85 7.336,9.933c2.73,3.078 5.737,5.909 8.971,8.452c3.572,2.809 7.424,5.262 11.48,7.31c3.482,1.758 7.115,3.216 10.845,4.352c3.394,1.034 6.869,1.8 10.382,2.292c5.489,0.77 11.073,0.872 16.587,0.312c4.39,-0.447 8.736,-1.318 12.958,-2.604c4.788,-1.458 9.413,-3.448 13.767,-5.918c4.781,-2.712 9.233,-6.001 13.234,-9.771c3.495,-3.293 6.645,-6.951 9.382,-10.897c2.597,-3.744 4.82,-7.748 6.622,-11.934c1.72,-3.994 3.055,-8.153 3.981,-12.402c0.703,-3.228 1.171,-6.506 1.401,-9.802c0.108,-1.557 0.16,-3.117 0.167,-4.679c-0.004,-0.122 -0.003,-0.244 -0.005,-0.367c-0.001,-0.138 -0.005,-0.277 -0.01,-0.415c-0.007,-0.172 -0.016,-0.343 -0.028,-0.515c-0.051,-0.707 -0.145,-1.411 -0.287,-2.106c-0.317,-1.542 -0.862,-3.037 -1.614,-4.42c-1.021,-1.875 -2.412,-3.541 -4.074,-4.88c-1.262,-1.017 -2.678,-1.843 -4.186,-2.438c-2.952,-1.165 -6.24,-1.424 -9.34,-0.747c-1.411,0.307 -2.777,0.807 -4.055,1.481c-1.486,0.785 -2.847,1.804 -4.022,3.007c-0.902,0.923 -1.694,1.956 -2.351,3.068c-0.366,0.618 -0.687,1.26 -0.969,1.92c-0.192,0.45 -0.36,0.91 -0.508,1.375c-0.334,1.049 -0.559,2.133 -0.67,3.228c-0.056,0.554 -0.081,1.11 -0.083,1.667l-0.001,0.025c0.001,0.064 0.001,0.129 0,0.193c-0.002,0.312 -0.008,0.623 -0.018,0.934c-0.046,1.458 -0.179,2.914 -0.4,4.356c-0.464,3.03 -1.314,5.998 -2.526,8.813c-1.53,3.555 -3.634,6.859 -6.204,9.753c-2.655,2.992 -5.803,5.544 -9.283,7.518c-3.223,1.828 -6.724,3.156 -10.349,3.923c-5.539,1.172 -11.348,1.029 -16.821,-0.416c-3.426,-0.905 -6.714,-2.318 -9.73,-4.177c-4.023,-2.479 -7.552,-5.745 -10.337,-9.563c-2.604,-3.567 -4.549,-7.608 -5.703,-11.872c-1.08,-3.993 -1.466,-8.165 -1.153,-12.29c0.268,-3.53 1.056,-7.018 2.336,-10.319c1.033,-2.666 2.384,-5.207 4.013,-7.556c1.614,-2.328 3.501,-4.467 5.608,-6.36c3.429,-3.08 7.441,-5.5 11.77,-7.086c0.813,-0.298 1.637,-0.567 2.47,-0.806c-0.216,0.831 -0.33,1.702 -0.33,2.599c0,1.98 0.557,3.83 1.523,5.403Z" style="fill:#333;"/><path d="M90.653,61.083c0.609,0.011 1.215,0.053 1.818,0.137c1.403,0.197 2.777,0.604 4.061,1.204c1.512,0.707 2.897,1.679 4.078,2.859c1.098,1.098 2.016,2.374 2.708,3.764c0.63,1.266 1.069,2.625 1.301,4.02c0.248,1.497 0.257,3.033 0.029,4.533c-0.222,1.458 -0.673,2.881 -1.33,4.201c-0.743,1.493 -1.747,2.853 -2.954,4.004c-1.294,1.233 -2.817,2.222 -4.472,2.899c-1.717,0.702 -3.568,1.063 -5.422,1.063c-1.855,0 -3.705,-0.361 -5.422,-1.062c-1.655,-0.677 -3.179,-1.667 -4.473,-2.9c-1.207,-1.151 -2.211,-2.511 -2.954,-4.004c-0.656,-1.32 -1.106,-2.74 -1.329,-4.197c-0.221,-1.442 -0.221,-2.918 0,-4.36c0.223,-1.456 0.673,-2.877 1.329,-4.197c0.641,-1.288 1.476,-2.478 2.469,-3.519c1.231,-1.29 2.701,-2.349 4.317,-3.104c1.284,-0.6 2.657,-1.007 4.061,-1.203c0.603,-0.085 1.209,-0.127 1.817,-0.138c0.184,-0.002 0.184,-0.002 0.368,0Zm-0.267,7.999c-0.27,0.005 -0.539,0.024 -0.806,0.061c-0.618,0.087 -1.221,0.265 -1.786,0.529c-1.298,0.607 -2.372,1.656 -3.01,2.939c-0.242,0.485 -0.419,1.002 -0.528,1.533c-0.146,0.711 -0.169,1.45 -0.068,2.169c0.091,0.644 0.281,1.272 0.563,1.858c0.332,0.689 0.791,1.316 1.344,1.843c0.573,0.546 1.247,0.986 1.98,1.285c0.784,0.321 1.63,0.478 2.478,0.467c0.843,-0.01 1.68,-0.189 2.453,-0.527c1.077,-0.471 2.012,-1.246 2.682,-2.211c0.424,-0.612 0.739,-1.298 0.925,-2.019c0.201,-0.778 0.25,-1.597 0.148,-2.394c-0.079,-0.62 -0.249,-1.227 -0.507,-1.796c-0.316,-0.698 -0.759,-1.337 -1.3,-1.878c-0.56,-0.559 -1.223,-1.015 -1.948,-1.332c-0.548,-0.24 -1.131,-0.401 -1.725,-0.476c-0.297,-0.038 -0.595,-0.053 -0.895,-0.051Z" style="fill:#0042ff;fill-rule:nonzero;"/><path d="M90.654,20.879c0.668,0.013 1.334,0.063 1.995,0.164c1.341,0.206 2.653,0.603 3.883,1.178c1.408,0.658 2.707,1.547 3.832,2.619c1.207,1.151 2.212,2.511 2.954,4.005c0.63,1.265 1.07,2.624 1.301,4.019c0.248,1.497 0.257,3.033 0.029,4.533c-0.222,1.458 -0.673,2.88 -1.33,4.2c-0.742,1.493 -1.747,2.854 -2.954,4.005c-1.294,1.233 -2.817,2.222 -4.472,2.899c-1.717,0.702 -3.568,1.063 -5.422,1.063c-1.855,0 -3.705,-0.361 -5.422,-1.062c-1.655,-0.677 -3.179,-1.667 -4.473,-2.9c-1.207,-1.151 -2.211,-2.511 -2.954,-4.005c-0.656,-1.319 -1.106,-2.74 -1.329,-4.196c-0.221,-1.442 -0.221,-2.918 0,-4.36c0.223,-1.456 0.673,-2.877 1.329,-4.196c0.717,-1.442 1.678,-2.761 2.83,-3.885c1.153,-1.126 2.496,-2.057 3.956,-2.739c1.23,-0.575 2.542,-0.973 3.884,-1.178c0.661,-0.101 1.326,-0.151 1.993,-0.164c0.185,-0.001 0.185,-0.001 0.37,0Zm-0.267,8c-0.297,0.006 -0.593,0.028 -0.887,0.073c-0.59,0.09 -1.166,0.264 -1.706,0.517c-1.298,0.606 -2.372,1.656 -3.01,2.938c-0.242,0.486 -0.419,1.003 -0.528,1.534c-0.146,0.711 -0.169,1.45 -0.068,2.169c0.087,0.618 0.266,1.222 0.53,1.787c0.324,0.693 0.775,1.327 1.322,1.861c0.567,0.553 1.236,1 1.965,1.309c0.752,0.318 1.565,0.486 2.381,0.496c0.847,0.011 1.693,-0.146 2.477,-0.467c0.733,-0.3 1.407,-0.738 1.981,-1.285c0.553,-0.527 1.012,-1.155 1.344,-1.843c0.269,-0.56 0.457,-1.16 0.55,-1.775c0.114,-0.746 0.097,-1.512 -0.055,-2.252c-0.129,-0.632 -0.356,-1.242 -0.671,-1.805c-0.624,-1.115 -1.585,-2.031 -2.729,-2.601c-0.532,-0.264 -1.102,-0.453 -1.687,-0.557c-0.291,-0.052 -0.584,-0.082 -0.879,-0.095c-0.11,-0.003 -0.22,-0.005 -0.33,-0.004Z" style="fill:#0042ff;fill-rule:nonzero;"/></g><g><path d="M245.606,75.495c4.409,2.325 7.879,5.692 10.409,10.102c2.529,4.409 3.794,9.588 3.794,15.536c0,5.948 -1.265,11.11 -3.794,15.485c-2.53,4.376 -6,7.743 -10.409,10.102c-4.41,2.358 -9.384,3.538 -14.921,3.538c-5.538,0 -10.512,-1.18 -14.921,-3.538c-4.41,-2.359 -7.88,-5.726 -10.409,-10.102c-2.53,-4.375 -3.795,-9.537 -3.795,-15.485c0,-5.948 1.265,-11.127 3.795,-15.536c2.529,-4.41 5.999,-7.777 10.409,-10.102c4.409,-2.324 9.383,-3.486 14.921,-3.486c5.537,0 10.511,1.162 14.921,3.486Zm-25.176,13.281c-2.803,2.837 -4.205,6.956 -4.205,12.357c0,5.401 1.402,9.52 4.205,12.357c2.803,2.838 6.221,4.256 10.255,4.256c4.033,0 7.452,-1.418 10.255,-4.256c2.803,-2.837 4.204,-6.956 4.204,-12.357c0,-5.401 -1.401,-9.52 -4.204,-12.357c-2.803,-2.837 -6.222,-4.256 -10.255,-4.256c-4.034,0 -7.452,1.419 -10.255,4.256Z" style="fill:#333;fill-rule:nonzero;"/><path d="M288.831,75.034c3.487,-2.085 7.384,-3.128 11.691,-3.128l0,15.485l-4.205,0c-10.597,0 -15.895,4.923 -15.895,14.768l0,27.381l-14.46,0l0,-56.813l14.46,0l0,10.87c2.119,-3.623 4.922,-6.478 8.409,-8.563Z" style="fill:#333;fill-rule:nonzero;"/><path d="M305.239,50.729c1.641,-1.469 3.794,-2.204 6.461,-2.204c2.666,0 4.82,0.735 6.46,2.204c1.641,1.47 2.462,3.368 2.462,5.692c0,2.256 -0.821,4.119 -2.462,5.589c-1.64,1.47 -3.794,2.205 -6.46,2.205c-2.667,0 -4.82,-0.735 -6.461,-2.205c-1.641,-1.47 -2.461,-3.333 -2.461,-5.589c0,-2.324 0.82,-4.222 2.461,-5.692Zm13.639,21.998l0,56.813l-14.459,0l0,-56.813l14.459,0Z" style="fill:#333;fill-rule:nonzero;"/><path d="M329.031,62.01c-1.641,-1.47 -2.461,-3.333 -2.461,-5.589c0,-2.324 0.82,-4.222 2.461,-5.692c1.641,-1.469 3.794,-2.204 6.46,-2.204c2.667,0 4.82,0.752 6.461,2.256c1.641,1.504 2.461,3.384 2.461,5.64c0,2.256 -0.82,4.119 -2.461,5.589c-1.641,1.47 -3.794,2.205 -6.461,2.205c-2.666,0 -4.819,-0.735 -6.46,-2.205Zm-10.768,82.092l4.102,0c2.119,0 3.641,-0.445 4.563,-1.333c0.923,-0.889 1.385,-2.427 1.385,-4.615l0,-65.427l14.46,0l0,65.427c0,12.306 -6.188,18.459 -18.562,18.459l-5.948,0l0,-12.511Z" style="fill:#333;fill-rule:nonzero;"/><path d="M382.049,117.131l0,12.409l-7.588,0c-6.358,0 -11.23,-1.539 -14.614,-4.615c-3.384,-3.077 -5.076,-8.204 -5.076,-15.383l0,-24.612l-7.896,0l0,-12.203l7.896,0l0,-14.05l14.46,0l0,14.05l12.716,0l0,12.203l-12.716,0l0,24.817c0,2.735 0.547,4.649 1.64,5.743c1.094,1.094 2.94,1.641 5.538,1.641l5.64,0Z" style="fill:#333;fill-rule:nonzero;"/><path d="M441.221,103.902l-41.635,0c0.205,5.059 1.572,8.785 4.102,11.178c2.529,2.393 5.674,3.589 9.434,3.589c3.35,0 6.136,-0.82 8.358,-2.461c2.222,-1.641 3.641,-3.863 4.256,-6.666l15.28,0c-0.752,3.966 -2.359,7.521 -4.82,10.666c-2.461,3.144 -5.623,5.606 -9.486,7.383c-3.862,1.778 -8.153,2.667 -12.87,2.667c-5.538,0 -10.46,-1.18 -14.767,-3.538c-4.307,-2.359 -7.657,-5.726 -10.05,-10.102c-2.393,-4.375 -3.589,-9.537 -3.589,-15.485c0,-5.948 1.196,-11.127 3.589,-15.536c2.393,-4.41 5.743,-7.777 10.05,-10.102c4.307,-2.324 9.229,-3.486 14.767,-3.486c5.606,0 10.512,1.162 14.716,3.486c4.205,2.325 7.452,5.521 9.742,9.589c2.291,4.068 3.436,8.7 3.436,13.896c0,1.435 -0.171,3.076 -0.513,4.922Zm-17.69,-16.921c-2.632,-2.393 -5.862,-3.589 -9.691,-3.589c-3.897,0 -7.178,1.196 -9.845,3.589c-2.666,2.393 -4.136,5.914 -4.409,10.563l27.586,0c0.205,-4.649 -1.009,-8.17 -3.641,-10.563Z" style="fill:#333;fill-rule:nonzero;"/><path d="M491.727,77.957c4.889,3.965 7.948,9.366 9.179,16.203l-15.28,0c-0.616,-3.008 -2.017,-5.384 -4.205,-7.128c-2.188,-1.743 -4.957,-2.615 -8.307,-2.615c-3.828,0 -7.024,1.419 -9.588,4.256c-2.564,2.837 -3.846,6.991 -3.846,12.46c0,5.47 1.282,9.623 3.846,12.46c2.564,2.837 5.76,4.256 9.588,4.256c3.35,0 6.119,-0.872 8.307,-2.615c2.188,-1.744 3.589,-4.119 4.205,-7.127l15.28,0c-1.231,6.836 -4.29,12.237 -9.179,16.203c-4.888,3.965 -10.99,5.948 -18.305,5.948c-5.538,0 -10.46,-1.18 -14.767,-3.538c-4.307,-2.359 -7.657,-5.726 -10.05,-10.102c-2.393,-4.375 -3.589,-9.537 -3.589,-15.485c0,-5.948 1.196,-11.127 3.589,-15.536c2.393,-4.41 5.743,-7.777 10.05,-10.102c4.307,-2.324 9.229,-3.486 14.767,-3.486c7.315,0 13.417,1.982 18.305,5.948Z" style="fill:#333;fill-rule:nonzero;"/><path d="M556.591,78.367c3.897,4.307 5.845,10.358 5.845,18.151l0,33.022l-14.357,0l0,-31.381c0,-4.512 -1.162,-8.016 -3.487,-10.511c-2.324,-2.496 -5.503,-3.743 -9.537,-3.743c-4.102,0 -7.384,1.333 -9.845,3.999c-2.461,2.666 -3.692,6.495 -3.692,11.486l0,30.15l-14.459,0l0,-75.888l14.459,0l0,30.458c1.504,-3.829 3.983,-6.82 7.435,-8.973c3.453,-2.154 7.435,-3.231 11.947,-3.231c6.564,0 11.794,2.154 15.691,6.461Z" style="fill:#333;fill-rule:nonzero;"/></g></svg>