<?xml version="1.0" encoding="UTF-8" standalone="no"?>
<!DOCTYPE svg PUBLIC "-//W3C//DTD SVG 1.1//EN"
 "http://www.w3.org/Graphics/SVG/1.1/DTD/svg11.dtd">
<!-- Generated by graphviz version 2.40.1 (20161225.0304)
 -->
<!-- Pages: 1 -->
<svg width="709pt" height="553pt"
 viewBox="0.00 0.00 708.68 552.80" xmlns="http://www.w3.org/2000/svg" xmlns:xlink="http://www.w3.org/1999/xlink">
<g id="graph0" class="graph" transform="scale(1 1) rotate(0) translate(4 548.8)">
<polygon fill="#ffffff" stroke="transparent" points="-4,4 -4,-548.8 704.6846,-548.8 704.6846,4 -4,4"/>
<g id="clust2" class="cluster">
<title>cluster_b</title>
<polygon fill="none" stroke="#000000" points="357.6079,-136 357.6079,-212.8 521.6079,-212.8 521.6079,-136 357.6079,-136"/>
<text text-anchor="middle" x="439.6079" y="-196.2" font-family="Times,serif" font-size="14.00" fill="#000000">Scope: b</text>
</g>
<g id="clust1" class="cluster">
<title>cluster_a</title>
<polygon fill="none" stroke="#000000" points="150.6079,-136 150.6079,-212.8 314.6079,-212.8 314.6079,-136 150.6079,-136"/>
<text text-anchor="middle" x="232.6079" y="-196.2" font-family="Times,serif" font-size="14.00" fill="#000000">Scope: a</text>
</g>
<!-- []main.Command -->
<!-- auto&#45;group -->
<g id="node1" class="node">
<title>[]main.Command</title>
<ellipse fill="none" stroke="#000000" cx="232.6079" cy="-90" rx="79.5" ry="18"/>
<text text-anchor="middle" x="232.6079" y="-85.8" font-family="Times,serif" font-size="14.00" fill="#000000">[]main.Command</text>
</g>
<!-- main.main.func1 -->
<g id="node14" class="node">
<title>main.main.func1</title>
<polygon fill="none" stroke="#000000" points="391.1079,-36 280.1079,-36 280.1079,0 391.1079,0 391.1079,-36"/>
<text text-anchor="middle" x="335.6079" y="-13.8" font-family="Times,serif" font-size="14.00" fill="#000000">main.main.func1</text>
</g>
<!-- []main.Command&#45;&gt;main.main.func1 -->
<g id="edge19" class="edge">
<title>[]main.Command&#45;&gt;main.main.func1</title>
<path fill="none" stroke="#000000" d="M257.2789,-72.7542C270.5126,-63.5035 287.0255,-51.9605 301.4732,-41.8611"/>
<polygon fill="#000000" stroke="#000000" points="303.51,-44.7078 309.7008,-36.1098 299.4994,-38.9705 303.51,-44.7078"/>
</g>
<!-- map[string]main.Handler -->
<!-- one&#45;per&#45;scope -->
<g id="node2" class="node">
<title>map[string]main.Handler</title>
<ellipse fill="none" stroke="#000000" cx="439.6079" cy="-90" rx="109" ry="18"/>
<text text-anchor="middle" x="439.6079" y="-85.8" font-family="Times,serif" font-size="14.00" fill="#000000">map[string]main.Handler</text>
</g>
<!-- map[string]main.Handler&#45;&gt;main.main.func1 -->
<g id="edge18" class="edge">
<title>map[string]main.Handler&#45;&gt;main.main.func1</title>
<path fill="none" stroke="#000000" d="M414.1666,-72.3868C401.0196,-63.2851 384.7765,-52.0399 370.4785,-42.1412"/>
<polygon fill="#000000" stroke="#000000" points="372.0866,-38.9976 361.8724,-36.1832 368.1021,-44.753 372.0866,-38.9976"/>
</g>
<!-- main.ProvideKVStoreKey -->
<g id="node3" class="node">
<title>main.ProvideKVStoreKey</title>
<polygon fill="none" stroke="#000000" points="308.7349,-472.8 144.4808,-472.8 144.4808,-436.8 308.7349,-436.8 308.7349,-472.8"/>
<text text-anchor="middle" x="226.6079" y="-450.6" font-family="Times,serif" font-size="14.00" fill="#000000">main.ProvideKVStoreKey</text>
</g>
<!-- main.KVStoreKey -->
<g id="node5" class="node">
<title>main.KVStoreKey</title>
<ellipse fill="none" stroke="#000000" cx="232.6079" cy="-238.8" rx="83.3462" ry="18"/>
<text text-anchor="middle" x="232.6079" y="-234.6" font-family="Times,serif" font-size="14.00" fill="#000000">main.KVStoreKey</text>
</g>
<!-- main.ProvideKVStoreKey&#45;&gt;main.KVStoreKey -->
<g id="edge2" class="edge">
<title>main.ProvideKVStoreKey&#45;&gt;main.KVStoreKey</title>
<path fill="none" stroke="#000000" d="M227.1091,-436.7555C228.1525,-399.1938 230.5647,-312.3541 231.8187,-267.2103"/>
<polygon fill="#000000" stroke="#000000" points="235.3247,-267.0384 232.1038,-256.9451 228.3274,-266.844 235.3247,-267.0384"/>
</g>
<!-- container.Scope -->
<g id="node4" class="node">
<title>container.Scope</title>
<ellipse fill="none" stroke="#000000" cx="458.6079" cy="-526.8" rx="73" ry="18"/>
<text text-anchor="middle" x="458.6079" y="-522.6" font-family="Times,serif" font-size="14.00" fill="#000000">container.Scope</text>
</g>
<!-- container.Scope&#45;&gt;main.ProvideKVStoreKey -->
<g id="edge1" class="edge">
<title>container.Scope&#45;&gt;main.ProvideKVStoreKey</title>
<path fill="none" stroke="#000000" d="M413.0489,-512.661C379.3728,-502.2098 332.9493,-487.8025 294.8518,-475.9792"/>
<polygon fill="#000000" stroke="#000000" points="295.441,-472.4974 284.853,-472.8761 293.3662,-479.1829 295.441,-472.4974"/>
</g>
<!-- main.ProvideModuleKey -->
<g id="node6" class="node">
<title>main.ProvideModuleKey</title>
<polygon fill="none" stroke="#000000" points="484.6079,-472.8 326.6079,-472.8 326.6079,-436.8 484.6079,-436.8 484.6079,-472.8"/>
<text text-anchor="middle" x="405.6079" y="-450.6" font-family="Times,serif" font-size="14.00" fill="#000000">main.ProvideModuleKey</text>
</g>
<!-- container.Scope&#45;&gt;main.ProvideModuleKey -->
<g id="edge3" class="edge">
<title>container.Scope&#45;&gt;main.ProvideModuleKey</title>
<path fill="none" stroke="#000000" d="M445.5067,-509.0022C439.3108,-500.5851 431.7887,-490.3665 424.9532,-481.0805"/>
<polygon fill="#000000" stroke="#000000" points="427.6733,-478.8716 418.9264,-472.8931 422.0359,-483.0214 427.6733,-478.8716"/>
</g>
<!-- main.ProvideMsgClientA -->
<g id="node8" class="node">
<title>main.ProvideMsgClientA</title>
<polygon fill="none" stroke="#000000" points="519.8711,-328.8 359.3446,-328.8 359.3446,-292.8 519.8711,-292.8 519.8711,-328.8"/>
<text text-anchor="middle" x="439.6079" y="-306.6" font-family="Times,serif" font-size="14.00" fill="#000000">main.ProvideMsgClientA</text>
</g>
<!-- container.Scope&#45;&gt;main.ProvideMsgClientA -->
<g id="edge5" class="edge">
<title>container.Scope&#45;&gt;main.ProvideMsgClientA</title>
<path fill="none" stroke="#000000" d="M473.7944,-509.1306C481.3448,-499.1691 489.6792,-486.0845 493.6079,-472.8 507.2202,-426.7706 511.9767,-409.1462 493.6079,-364.8 489.0558,-353.8103 481.0618,-343.8911 472.5976,-335.6418"/>
<polygon fill="#000000" stroke="#000000" points="474.8667,-332.9745 465.113,-328.8373 470.1579,-338.154 474.8667,-332.9745"/>
</g>
<!-- main.ModuleB.Provide -->
<g id="node12" class="node">
<title>main.ModuleB.Provide</title>
<polygon fill="none" stroke="#000000" points="513.5391,-180 365.6766,-180 365.6766,-144 513.5391,-144 513.5391,-180"/>
<text text-anchor="middle" x="439.6079" y="-157.8" font-family="Times,serif" font-size="14.00" fill="#000000">main.ModuleB.Provide</text>
</g>
<!-- container.Scope&#45;&gt;main.ModuleB.Provide -->
<g id="edge14" class="edge">
<title>container.Scope&#45;&gt;main.ModuleB.Provide</title>
<path fill="none" stroke="#000000" d="M479.4841,-509.1258C506.6279,-484.0467 550.6079,-435.31 550.6079,-382.8 550.6079,-382.8 550.6079,-382.8 550.6079,-310.8 550.6079,-269.7255 553.1602,-254.4511 529.6079,-220.8 519.4091,-206.2281 504.3318,-194.3571 489.4214,-185.1953"/>
<polygon fill="#000000" stroke="#000000" points="491.1023,-182.1239 480.6998,-180.1141 487.5785,-188.1723 491.1023,-182.1239"/>
</g>
<!-- main.ModuleA.Provide -->
<g id="node10" class="node">
<title>main.ModuleA.Provide</title>
<polygon fill="none" stroke="#000000" points="306.8086,-180 158.4071,-180 158.4071,-144 306.8086,-144 306.8086,-180"/>
<text text-anchor="middle" x="232.6079" y="-157.8" font-family="Times,serif" font-size="14.00" fill="#000000">main.ModuleA.Provide</text>
</g>
<!-- main.KVStoreKey&#45;&gt;main.ModuleA.Provide -->
<g id="edge8" class="edge">
<title>main.KVStoreKey&#45;&gt;main.ModuleA.Provide</title>
<path fill="none" stroke="#000000" d="M232.6079,-220.5995C232.6079,-211.5132 232.6079,-200.3176 232.6079,-190.1549"/>
<polygon fill="#000000" stroke="#000000" points="236.108,-190.0698 232.6079,-180.0699 229.108,-190.0699 236.108,-190.0698"/>
</g>
<!-- main.KVStoreKey&#45;&gt;main.ModuleB.Provide -->
<g id="edge12" class="edge">
<title>main.KVStoreKey&#45;&gt;main.ModuleB.Provide</title>
<path fill="none" stroke="#000000" d="M283.3724,-224.4082C295.0244,-220.841 307.3073,-216.868 318.6079,-212.8 342.4163,-204.2294 368.3412,-193.5338 390.0649,-184.1702"/>
<polygon fill="#000000" stroke="#000000" points="391.6335,-187.3048 399.4125,-180.1119 388.8458,-180.8838 391.6335,-187.3048"/>
</g>
<!-- main.ModuleKey -->
<g id="node7" class="node">
<title>main.ModuleKey</title>
<ellipse fill="none" stroke="#000000" cx="405.6079" cy="-382.8" rx="79" ry="18"/>
<text text-anchor="middle" x="405.6079" y="-378.6" font-family="Times,serif" font-size="14.00" fill="#000000">main.ModuleKey</text>
</g>
<!-- main.ProvideModuleKey&#45;&gt;main.ModuleKey -->
<g id="edge4" class="edge">
<title>main.ProvideModuleKey&#45;&gt;main.ModuleKey</title>
<path fill="none" stroke="#000000" d="M405.6079,-436.6314C405.6079,-428.931 405.6079,-419.7743 405.6079,-411.2166"/>
<polygon fill="#000000" stroke="#000000" points="409.108,-411.2132 405.6079,-401.2133 402.108,-411.2133 409.108,-411.2132"/>
</g>
<!-- main.ModuleKey&#45;&gt;main.ProvideMsgClientA -->
<g id="edge6" class="edge">
<title>main.ModuleKey&#45;&gt;main.ProvideMsgClientA</title>
<path fill="none" stroke="#000000" d="M414.1875,-364.6314C417.9437,-356.6771 422.4336,-347.169 426.5876,-338.3723"/>
<polygon fill="#000000" stroke="#000000" points="429.8075,-339.7503 430.9127,-329.2133 423.4777,-336.7612 429.8075,-339.7503"/>
</g>
<!-- main.MsgClientA -->
<g id="node9" class="node">
<title>main.MsgClientA</title>
<ellipse fill="none" stroke="#000000" cx="439.6079" cy="-238.8" rx="80.5152" ry="18"/>
<text text-anchor="middle" x="439.6079" y="-234.6" font-family="Times,serif" font-size="14.00" fill="#000000">main.MsgClientA</text>
</g>
<!-- main.ProvideMsgClientA&#45;&gt;main.MsgClientA -->
<g id="edge7" class="edge">
<title>main.ProvideMsgClientA&#45;&gt;main.MsgClientA</title>
<path fill="none" stroke="#000000" d="M439.6079,-292.6314C439.6079,-284.931 439.6079,-275.7743 439.6079,-267.2166"/>
<polygon fill="#000000" stroke="#000000" points="443.108,-267.2132 439.6079,-257.2133 436.108,-267.2133 443.108,-267.2132"/>
</g>
<!-- main.MsgClientA&#45;&gt;main.ModuleB.Provide -->
<g id="edge13" class="edge">
<title>main.MsgClientA&#45;&gt;main.ModuleB.Provide</title>
<path fill="none" stroke="#000000" d="M439.6079,-220.5995C439.6079,-211.5132 439.6079,-200.3176 439.6079,-190.1549"/>
<polygon fill="#000000" stroke="#000000" points="443.108,-190.0698 439.6079,-180.0699 436.108,-190.0699 443.108,-190.0698"/>
</g>
<!-- main.ModuleA.Provide&#45;&gt;[]main.Command -->
<g id="edge11" class="edge">
<title>main.ModuleA.Provide&#45;&gt;[]main.Command</title>
<path fill="none" stroke="#000000" d="M232.6079,-143.8314C232.6079,-136.131 232.6079,-126.9743 232.6079,-118.4166"/>
<polygon fill="#000000" stroke="#000000" points="236.108,-118.4132 232.6079,-108.4133 229.108,-118.4133 236.108,-118.4132"/>
</g>
<!-- main.ModuleA.Provide&#45;&gt;map[string]main.Handler -->
<g id="edge10" class="edge">
<title>main.ModuleA.Provide&#45;&gt;map[string]main.Handler</title>
<path fill="none" stroke="#000000" d="M284.5755,-143.9243C314.5096,-133.5125 352.1647,-120.415 382.8683,-109.7355"/>
<polygon fill="#000000" stroke="#000000" points="384.279,-112.9506 392.5742,-106.3595 381.9794,-106.3391 384.279,-112.9506"/>
</g>
<!-- main.KeeperA -->
<g id="node11" class="node">
<title>main.KeeperA</title>
<ellipse fill="none" stroke="#000000" cx="67.6079" cy="-90" rx="67.7159" ry="18"/>
<text text-anchor="middle" x="67.6079" y="-85.8" font-family="Times,serif" font-size="14.00" fill="#000000">main.KeeperA</text>
</g>
<!-- main.ModuleA.Provide&#45;&gt;main.KeeperA -->
<g id="edge9" class="edge">
<title>main.ModuleA.Provide&#45;&gt;main.KeeperA</title>
<path fill="none" stroke="#000000" d="M190.9714,-143.8314C167.0356,-133.3867 136.9603,-120.2629 112.4979,-109.5884"/>
<polygon fill="#000000" stroke="#000000" points="113.6457,-106.2706 103.0805,-105.479 110.8461,-112.6864 113.6457,-106.2706"/>
</g>
<!-- main.KeeperA&#45;&gt;main.main.func1 -->
<g id="edge20" class="edge">
<title>main.KeeperA&#45;&gt;main.main.func1</title>
<path fill="none" stroke="#000000" d="M115.2121,-77.2108C158.2725,-65.6423 222.0826,-48.4993 269.9765,-35.6323"/>
<polygon fill="#000000" stroke="#000000" points="270.8872,-39.0118 279.6366,-33.0371 269.0709,-32.2515 270.8872,-39.0118"/>
</g>
<!-- main.ModuleB.Provide&#45;&gt;[]main.Command -->
<g id="edge16" class="edge">
<title>main.ModuleB.Provide&#45;&gt;[]main.Command</title>
<path fill="none" stroke="#000000" d="M387.6402,-143.9243C356.6255,-133.1366 317.3222,-119.4659 286.05,-108.5886"/>
<polygon fill="#000000" stroke="#000000" points="286.7943,-105.1418 276.1995,-105.1623 284.4946,-111.7533 286.7943,-105.1418"/>
</g>
<!-- main.ModuleB.Provide&#45;&gt;map[string]main.Handler -->
<g id="edge17" class="edge">
<title>main.ModuleB.Provide&#45;&gt;map[string]main.Handler</title>
<path fill="none" stroke="#000000" d="M439.6079,-143.8314C439.6079,-136.131 439.6079,-126.9743 439.6079,-118.4166"/>
<polygon fill="#000000" stroke="#000000" points="443.108,-118.4132 439.6079,-108.4133 436.108,-118.4133 443.108,-118.4132"/>
</g>
<!-- main.KeeperB -->
<g id="node13" class="node">
<title>main.KeeperB</title>
<ellipse fill="none" stroke="#000000" cx="633.6079" cy="-90" rx="67.1535" ry="18"/>
<text text-anchor="middle" x="633.6079" y="-85.8" font-family="Times,serif" font-size="14.00" fill="#000000">main.KeeperB</text>
</g>
<!-- main.ModuleB.Provide&#45;&gt;main.KeeperB -->
<g id="edge15" class="edge">
<title>main.ModuleB.Provide&#45;&gt;main.KeeperB</title>
<path fill="none" stroke="#000000" d="M488.5622,-143.8314C517.9089,-132.9398 555.1051,-119.135 584.4822,-108.2322"/>
<polygon fill="#000000" stroke="#000000" points="585.9652,-111.4152 594.1225,-104.6543 583.5296,-104.8525 585.9652,-111.4152"/>
</g>
<!-- main.KeeperB&#45;&gt;main.main.func1 -->
<g id="edge21" class="edge">
<title>main.KeeperB&#45;&gt;main.main.func1</title>
<path fill="none" stroke="#000000" d="M583.7294,-77.9488C533.6592,-65.8513 456.2588,-47.1506 401.232,-33.8555"/>
<polygon fill="#000000" stroke="#000000" points="401.7717,-30.3852 391.2293,-31.4387 400.1276,-37.1895 401.7717,-30.3852"/>
</g>
</g>
</svg>
