<svg id="line_copy" viewBox="0 0 64 64" xmlns="http://www.w3.org/2000/svg" xmlns:xlink="http://www.w3.org/1999/xlink" data-name="line copy"><linearGradient id="linear-gradient" gradientUnits="userSpaceOnUse" x1="4" x2="60" y1="32" y2="32"><stop offset="0" stop-color="#7f00ff"/><stop offset="1" stop-color="#e100ff"/></linearGradient><path d="m28.63748 36.78411-10.00332-6.54737a2.997 2.997 0 0 0 -3.27828 0l-10.00332 6.54785a3.025 3.025 0 0 0 -1.35256 2.50325v10.9323a2.98419 2.98419 0 0 0 1.35256 2.50373l10.00332 6.54738a2.99506 2.99506 0 0 0 3.27828 0l10.00332-6.54786a2.98274 2.98274 0 0 0 1.35252-2.50325v-10.9323a3.05357 3.05357 0 0 0 -.39115-1.4789 3.23249 3.23249 0 0 0 -.96137-1.02483zm-12.63388 20.54059-9.56473-6.25982a1.00694 1.00694 0 0 1 -.456-.84474v-10.18383l9.36819 6.1368a2.98671 2.98671 0 0 0 .65256.31521zm.43471-12.80961-9.63389-6.31077 9.63777-6.30811a1.00856 1.00856 0 0 1 1.10567 0l9.63814 6.30787-9.63426 6.311a1.00951 1.00951 0 0 1 -1.11343.00001zm11.56888 5.70505a1.0055 1.0055 0 0 1 -.456.84426l-9.56473 6.2603v-10.83608a2.98362 2.98362 0 0 0 .65255-.315l9.36819-6.13723zm31.61056-12.389a3.13619 3.13619 0 0 0 -.97031-1.047l-10.00332-6.5474a2.997 2.997 0 0 0 -3.27828 0l-10.00332 6.54785a3.02474 3.02474 0 0 0 -1.35252 2.50325v10.9323a2.98419 2.98419 0 0 0 1.35256 2.50373l10.00332 6.54738a2.99506 2.99506 0 0 0 3.27828 0l10.00332-6.54786a2.98274 2.98274 0 0 0 1.35252-2.50325v-10.9323a2.98373 2.98373 0 0 0 -.38225-1.4567zm-13.6042 19.49356-9.56473-6.25982a1.007 1.007 0 0 1 -.456-.84474v-10.18371l9.36718 6.13717a2.99631 2.99631 0 0 0 .65352.31508zm.43375-12.80961-9.633-6.31071 9.63782-6.30817a1.00856 1.00856 0 0 1 1.10567 0l9.63821 6.30787-9.63523 6.31149a1.0132 1.0132 0 0 1 -1.11347-.00048zm11.56985 5.70505a1.00548 1.00548 0 0 1 -.456.84426l-9.56475 6.2603v-10.83614a2.97266 2.97266 0 0 0 .65159-.315l9.36916-6.13735zm-13.02215-25.50837v-10.93229a3.0268 3.0268 0 0 0 -1.35256-2.50374l-10.0033-6.54737a2.997 2.997 0 0 0 -3.27828 0l-10.00332 6.54785a3.02475 3.02475 0 0 0 -1.35254 2.50326v10.93229a2.98421 2.98421 0 0 0 1.35256 2.50374l10.00332 6.54737a2.99454 2.99454 0 0 0 3.27828 0l10.0033-6.54788a2.98273 2.98273 0 0 0 1.35254-2.50323zm-13.98642 7.10457-9.56473-6.25982a1.007 1.007 0 0 1 -.456-.84475v-10.1837l9.36722 6.13716a2.99339 2.99339 0 0 0 .65353.315zm.43374-12.80962-9.633-6.31071 9.63782-6.30817a1.00858 1.00858 0 0 1 1.10568 0l9.63818 6.30787-9.63426 6.311a1.0148 1.0148 0 0 1 -1.11442.00001zm11.56985 5.70505a1.00548 1.00548 0 0 1 -.456.84426l-9.56473 6.26031v-10.83615a2.97961 2.97961 0 0 0 .65256-.315l9.36817-6.13719z" fill="url(#linear-gradient)"/></svg>