<svg id="Layer_5" enable-background="new 0 0 64 64" height="512" viewBox="0 0 64 64" width="512" xmlns="http://www.w3.org/2000/svg" xmlns:xlink="http://www.w3.org/1999/xlink"><linearGradient id="SVGID_1_" gradientUnits="userSpaceOnUse" x1="32" x2="32" y1="63" y2="1.334"><stop offset="0" stop-color="#9f2fff"/><stop offset="1" stop-color="#0bb1d3"/></linearGradient><path d="m32 20c3.309 0 6-2.691 6-6s-2.691-6-6-6-6 2.691-6 6 2.691 6 6 6zm0-10c2.206 0 4 1.794 4 4s-1.794 4-4 4-4-1.794-4-4 1.794-4 4-4zm29 51h2v2h-2zm-58 2h-2v-2h2zm38-6v2h-4v-2zm-16-2h-4v-2h4zm0 4h-4v-2h4zm15.874-52.493.736-1.849-3.015.603c-1.927.384-3.936-.382-5.116-1.955l-1.479-1.973-1.479 1.973c-1.18 1.573-3.188 2.339-5.116 1.955l-3.015-.603.736 1.848c-8.04 2.793-14.269 9.178-16.852 17.309-2.759 1.27-4.804 3.908-5.199 7.007-.447 3.508 1.118 6.865 4.084 8.761.519.332.841.97.841 1.667v1.75c0 2.043 1.546 3.714 3.526 3.952 1.966 2.946 4.532 5.518 7.474 7.49v6.558h-12v2h54v-2h-14v-5.344c4.15-2.285 7.614-5.607 10.074-9.656h5.926v-2h-2v-2h4v-18h-5.22c-2.521-8.112-8.889-14.694-16.906-17.493zm10.126 33.493v-6h4v6zm-6-6h4v6h-4zm0-2v-6h4v6zm6 0v-6h4v6zm-25.589-24.71c2.485.35 5.02-.653 6.589-2.628 1.569 1.975 4.105 2.979 6.59 2.628-.415 2.522.555 5.084 2.577 6.7-2.02 1.559-3.04 4.075-2.714 6.569-2.492-.276-4.93.77-6.454 2.777-1.362-1.713-3.449-2.695-5.604-2.695-.328 0-.657.022-.985.069.416-2.527-.558-5.094-2.589-6.71 2.031-1.616 3.005-4.183 2.59-6.71zm-19.174 30.608c-2.309-1.475-3.526-4.089-3.177-6.823.399-3.137 2.974-5.673 6.12-6.029.278-.031.554-.046.828-.046 1.725 0 3.354.617 4.653 1.778 1.487 1.327 2.339 3.231 2.339 5.222 0 2.39-1.204 4.591-3.22 5.887-1.057.679-1.703 1.833-1.768 3.113h-1.012v-6.184c1.161-.414 2-1.514 2-2.816 0-1.654-1.346-3-3-3s-3 1.346-3 3c0 1.302.839 2.402 2 2.816v6.184h-1.015c-.074-1.291-.711-2.439-1.748-3.102zm2.763-5.898c0-.551.449-1 1-1s1 .449 1 1-.449 1-1 1-1-.449-1-1zm-1 11h4c0 1.103-.897 2-2 2s-2-.897-2-2zm29 2v4.58l-4-.8v12.22h-4v-14.22l-2 .4v-2.18zm-10 4.22v11.78h-8v-10.18zm8 11.78v-9.78l8 1.6v8.18zm10-7.649v-2.171l-6-1.2v-6.98h-2v-2h-2v2h-2v-4h-2v4h-2v-2h-2v2h-2v4.58l-8 1.6v2.809c-2.016-1.518-3.816-3.342-5.292-5.387 1.35-.643 2.292-2.01 2.292-3.602v-1.792c0-.669.33-1.297.862-1.639 2.591-1.665 4.138-4.495 4.138-7.569 0-2.56-1.096-5.007-3.006-6.713-1.909-1.706-4.479-2.52-7.039-2.228-.109.012-.215.035-.323.051 2.583-6.808 7.989-12.135 14.858-14.616-.019 1.736-.91 3.392-2.486 4.337l-1.947 1.169 1.948 1.169c2.173 1.304 3.068 3.958 2.125 6.313l-.74 1.86 3.015-.603c1.928-.383 3.936.382 5.116 1.955l1.479 1.973 1.572-2.095c1.15-1.534 3.039-2.296 4.934-1.988l2.81.458-.6-1.612c-.862-2.318.051-4.923 2.17-6.195l2.058-1.235-1.948-1.169c-1.575-.945-2.465-2.6-2.485-4.335 7.091 2.577 12.753 8.362 15.174 15.504h-12.685v18h4v2h-2v2h7.716c-2.015 2.979-4.645 5.479-7.716 7.351zm12-9.351h-8v-2h8zm0-4v-6h4v6zm4-8h-4v-6h4zm-36-3h14v2h-14zm12 4h2v2h-2zm-12 0h2v2h-2zm4 0h2v2h-2zm4 0h2v2h-2z" fill="url(#SVGID_1_)"/></svg>