<svg width="260" height="260" viewBox="0 0 260 260" fill="none" xmlns="http://www.w3.org/2000/svg">
  <style>
    path {
      fill: #F8F8FD;
    }
  </style>
  <g clip-path="url(#clip0)">
    <path fill-rule="evenodd" clip-rule="evenodd" d="M161.69 76.4992L77.7047 160.372C76.6218 158.273 75.6441 156.087 74.7683 153.819C71.8353 146.198 70.3688 138.113 70.3688 129.573C70.3688 121.027 71.8353 112.945 74.7683 105.324C77.7047 97.7003 81.7716 91.0864 86.9723 85.4725C92.1729 79.8621 98.4226 75.4245 105.718 72.1566C113.016 68.892 121.024 67.258 129.745 67.258C138.47 67.258 146.522 68.9326 153.899 72.2854C156.642 73.5295 159.239 74.933 161.69 76.4992ZM154.279 187.488C146.98 190.756 138.972 192.387 130.251 192.387C121.527 192.387 113.475 190.712 106.094 187.363C103.355 186.115 100.758 184.712 98.3104 183.142L182.292 99.2765C183.375 101.372 184.353 103.555 185.228 105.826C188.161 113.447 189.628 121.532 189.628 130.075C189.628 138.618 188.161 146.699 185.228 154.324C182.292 161.944 178.225 168.558 173.024 174.169C167.824 179.779 161.577 184.22 154.279 187.488ZM166.985 213.493C178.225 208.635 187.954 202.062 196.173 193.767C204.391 185.478 210.763 175.803 215.292 164.748C219.824 153.693 222.088 141.967 222.088 129.573C222.088 117.176 219.824 105.45 215.292 94.3916C212.607 87.8353 209.3 81.7808 205.376 76.2245L260 21.6758L238.294 -2.28882e-05L183.504 54.7149C178.585 51.3655 173.245 48.4705 167.488 46.0262C156.248 41.2531 143.837 38.8631 130.251 38.8631C116.662 38.8631 104.251 41.2938 93.0114 46.1517C81.7715 51.0096 72.0423 57.5828 63.8237 65.8748C55.6052 74.1668 49.2299 83.8419 44.7014 94.8967C40.1729 105.952 37.9086 117.678 37.9086 130.075C37.9086 142.469 40.1729 154.192 44.7014 165.25C47.39 171.809 50.6964 177.864 54.6207 183.424L0 237.966L21.7057 259.641L76.4928 204.93C81.4117 208.279 86.7515 211.174 92.509 213.619C103.749 218.392 116.16 220.778 129.745 220.778C143.334 220.778 155.745 218.348 166.985 213.493V213.493Z" fill="black" />
  </g>
  <defs>
    <clipPath id="clip0">
      <rect width="260" height="260" fill="white" />
    </clipPath>
  </defs>
</svg>