<svg id="line_gradient_flaticon" height="512" viewBox="0 0 64 64" width="512" xmlns="http://www.w3.org/2000/svg" xmlns:xlink="http://www.w3.org/1999/xlink" data-name="line gradient flaticon"><linearGradient id="linear-gradient" gradientUnits="userSpaceOnUse" x1="8.018" x2="55.982" y1="32" y2="32"><stop offset="0" stop-color="#00c0ff"/><stop offset="1" stop-color="#5558ff"/></linearGradient><path d="m32.01312 33.75214c3.50641 0 6.146-5.07563 6.146-8.36676a6.14646 6.14646 0 1 0 -12.29291 0c0 3.29113 2.63959 8.36676 6.14691 8.36676zm0-12.51007a4.14739 4.14739 0 0 1 4.14234 4.14331c0 2.394-2.0066 6.36309-4.14234 6.36309-2.13672 0-4.14325-3.96911-4.14325-6.36309a4.14817 4.14817 0 0 1 4.14325-4.14331zm-5.63232 11.36053a1.00644 1.00644 0 0 1 1.18182.22 5.67634 5.67634 0 0 0 8.89319.00012 1.00185 1.00185 0 0 1 1.17987-.221 12.73173 12.73173 0 0 1 6.84247 8.96448c.20642.6673-.6582 1.22009-1.01453 1.63965-.54986.60925-1.46 1.38214-2.16308.5509a1.00039 1.00039 0 0 1 .134-1.40979c.32361-.25756.66205-.61566.96564-.9118a10.72342 10.72342 0 0 0 -5.02088-6.69873 7.50232 7.50232 0 0 1 -10.73925.001 10.72891 10.72891 0 0 0 -5.01205 6.69665l.35516.35517a10.1392 10.1392 0 0 0 7.21624 2.99275h5.63037a9.96606 9.96606 0 0 0 3.524-.62707 1.00155 1.00155 0 1 1 .7063 1.87445c-2.4928 1.12555-7.15851.66223-9.8606.75622a12.48244 12.48244 0 0 1 -9.37447-4.32131 1.00347 1.00347 0 0 1 -.27594-.89617 12.73359 12.73359 0 0 1 6.83174-8.96552zm-8.05469-4.205c2.90961 0 5.016-3.80474 5.016-6.37a4.89493 4.89493 0 0 0 -5.016-4.75177 4.89489 4.89489 0 0 0 -5.016 4.75177c.00001 2.5653 2.10639 6.37004 5.016 6.37004zm0-9.11816a2.89247 2.89247 0 0 1 3.01233 2.74817c0 1.764-1.58691 4.36639-3.01233 4.36639s-3.01233-2.60241-3.01233-4.36639a2.89243 2.89243 0 0 1 3.01233-2.74813zm-10.12 15.93823a10.31812 10.31812 0 0 1 5.54718-7.2818 1.00547 1.00547 0 0 1 1.18286.22107 4.56075 4.56075 0 0 0 3.39285 1.66716 4.67756 4.67756 0 0 0 3.38312-1.66724c.977-.928 2.28143.49475 3.12872 1.03033a1.00176 1.00176 0 0 1 .14679 1.40876c-.78406.9198-1.63452-.09479-2.36175-.52338a6.16063 6.16063 0 0 1 -8.60157 0 8.30926 8.30926 0 0 0 -3.7373 5.01209 7.92085 7.92085 0 0 0 5.79767 2.52117h1.984a1.00193 1.00193 0 0 1 .00006 2.00367h-1.98402a9.8612 9.8612 0 0 1 -7.01764-2.91156c-.36508-.37928-1.03144-.8664-.86096-1.48023zm37.4931-17.94183a4.8857 4.8857 0 0 0 -4.99939 4.75177c0 2.56525 2.09955 6.37 4.99939 6.37s4.99933-3.80474 4.99933-6.37a4.88569 4.88569 0 0 0 -4.99932-4.75173zm0 9.11816c-1.41766 0-2.99573-2.60241-2.99573-4.36639a3.00685 3.00685 0 0 1 5.9914 0c.00001 1.76402-1.57806 4.36639-2.99566 4.36639zm4.558 1.539a10.3327 10.3327 0 0 1 5.56281 7.28174c.17761.6178-.50488 1.09864-.86182 1.48316a9.86134 9.86134 0 0 1 -7.0177 2.91156h-1.97517a1.00194 1.00194 0 0 1 -.00006-2.00367h1.97528a7.9221 7.9221 0 0 0 5.79767-2.52111 8.30952 8.30952 0 0 0 -3.74017-5.01313 6.15628 6.15628 0 0 1 -8.59967-.00006c-.67615.44251-1.45844 1.18958-2.16211.33368a1.00216 1.00216 0 0 1 .1839-1.405c.81286-.49481 1.97564-1.72961 2.892-.84338a4.30813 4.30813 0 0 0 6.76624.003 1.00525 1.00525 0 0 1 1.17885-.22679zm-35.43458-18.07381a28.15545 28.15545 0 0 1 34.35449-.0246 1.002 1.002 0 0 1 -1.22662 1.58448c-9.3999-7.59735-23.12494-6.817-32.51245.23327a1.00835 1.00835 0 0 1 -.61542-1.79315zm41.00737 37.00141c-10.58539 17.531-37.08368 17.51892-47.65119-.03479a1.00169 1.00169 0 0 1 1.70032-1.059c9.81219 16.29888 34.41821 16.31683 44.25049.03363a1.00189 1.00189 0 0 1 1.70038 1.06016zm-5.38977-4.33069a1.00223 1.00223 0 0 1 1.74151.9917c-8.70951 15.54339-31.67564 15.53064-40.35574-.03583a1.00213 1.00213 0 0 1 1.74341-.98822c7.92687 14.21863 28.91088 14.23755 36.87078.03235zm-30.75023-27.75959a1.00251 1.00251 0 0 1 -1.17016-1.62786 23.25913 23.25913 0 0 1 26.95916-.0177 1.00194 1.00194 0 0 1 -1.16809 1.62793 21.24538 21.24538 0 0 0 -24.62091.01763z" fill="url(#linear-gradient)"/></svg>