<svg id="Layer_1" viewBox="0 0 512 512" xmlns="http://www.w3.org/2000/svg" xmlns:xlink="http://www.w3.org/1999/xlink" data-name="Layer 1"><linearGradient id="linear-gradient" gradientUnits="userSpaceOnUse" x1="256" x2="256" y1="506" y2="6"><stop offset="0" stop-color="#8d3fff"/><stop offset="1" stop-color="#00b4d1"/></linearGradient><path d="m64.651 207.042c.004 2.761-2.23 5.003-4.992 5.008l-27.544.046h-.008c-2.758 0-4.995-2.233-5-4.992-.004-2.761 2.23-5.003 4.992-5.008l27.544-.046h.008c2.758 0 4.995 2.233 5 4.992zm48.394-103.53c.987 1.092 2.346 1.647 3.711 1.647 1.195 0 2.395-.426 3.351-1.291 2.048-1.852 2.208-5.013.357-7.062l-16.265-17.997c-1.852-2.049-5.013-2.208-7.062-.357-2.048 1.852-2.208 5.013-.357 7.062l16.265 17.997zm115.772-33.959c2.761 0 5-2.239 5-5v-24.08c0-2.761-2.239-5-5-5s-5 2.239-5 5v24.08c0 2.761 2.239 5 5 5zm256.076 29.009v34.982c0 2.389-1.689 4.443-4.033 4.905l-18.499 3.647-7.225 17.417 10.508 15.669c1.331 1.983 1.072 4.631-.617 6.32l-24.736 24.736c-1.69 1.689-4.337 1.946-6.32.617l-15.669-10.508-17.417 7.225-3.648 18.499c-.462 2.343-2.517 4.033-4.905 4.033h-21.18c-.81 47.718-21.051 75.988-38.964 100.978-15.86 22.127-29.558 41.237-29.558 70.388v47.512c0 16.063-13.068 29.131-29.132 29.131h-2.756v8.417c0 12.94-10.528 23.469-23.469 23.469h-36.407c-12.941 0-23.469-10.528-23.469-23.469v-8.417h-2.756c-16.063 0-29.132-13.068-29.132-29.131v-47.512c0-29.151-13.698-48.261-29.558-70.388-18.282-25.504-39.002-54.412-39.002-103.937 0-39.525 15.469-72.735 44.735-96.04 25.751-20.505 60.336-31.798 97.385-31.798 12.115 0 24.098 1.246 35.719 3.683v-.43c0-2.389 1.689-4.443 4.033-4.905l18.499-3.648 7.225-17.417-10.508-15.669c-1.33-1.983-1.071-4.631.617-6.32l24.736-24.736c1.689-1.689 4.336-1.947 6.32-.617l15.669 10.508 17.417-7.225 3.648-18.499c.462-2.343 2.517-4.033 4.905-4.033h34.981c2.388 0 4.443 1.689 4.905 4.033l3.648 18.499 17.417 7.225 15.669-10.508c1.983-1.33 4.63-1.072 6.32.617l24.736 24.736c1.689 1.689 1.947 4.337.617 6.32l-10.508 15.669 7.225 17.417 18.499 3.648c2.343.462 4.033 2.517 4.033 4.905zm-319.384 330.847h127.121v-24.707h-127.121zm46.177-122.949v88.242s34.766 0 34.766 0v-88.242c0-1.735.014-3.454.044-5.152-5.612 1.107-11.444 1.682-17.427 1.682s-11.815-.575-17.427-1.682c.03 1.699.044 3.417.044 5.152zm49.056 167.654h-63.345v8.417c0 7.427 6.042 13.469 13.469 13.469h36.407c7.427 0 13.469-6.042 13.469-13.469zm31.888-29.131v-5.574h-127.121v5.574c0 10.549 8.583 19.131 19.132 19.131h88.857c10.549 0 19.132-8.582 19.132-19.131zm68.523-218.877h-3.803c-2.389 0-4.443-1.689-4.905-4.033l-3.648-18.499-17.417-7.225-15.669 10.508c-1.984 1.329-4.631 1.072-6.32-.617l-24.736-24.736c-1.688-1.689-1.947-4.337-.617-6.32l10.508-15.669-7.225-17.418-18.499-3.647c-2.343-.462-4.033-2.517-4.033-4.905v-24.321c-11.584-2.59-23.578-3.914-35.719-3.914-63.633 0-132.121 36.875-132.121 117.837 0 46.312 18.875 72.645 37.13 98.111 15.698 21.9 30.547 42.622 31.39 73.445h36.217v-88.242c0-2.666-.035-5.257-.104-7.782-20.145-6.617-36.514-20.524-45.348-39.464-9.424-20.205-9.788-37.846-.975-47.189 5.129-5.438 12.734-6.879 20.343-3.857 9.693 3.851 18.516 14.313 24.843 29.461 6.031 14.438 9.658 32.341 10.825 53.371 5.682 1.308 11.647 1.991 17.798 1.991s12.116-.683 17.798-1.991c1.167-21.029 4.794-38.932 10.825-53.37 6.327-15.148 15.15-25.611 24.843-29.461 7.608-3.022 15.214-1.58 20.343 3.857 8.814 9.343 8.45 26.984-.975 47.189-8.833 18.94-25.203 32.848-45.347 39.464-.069 2.525-.105 5.116-.105 7.782v88.242h36.219c.843-30.823 15.692-51.545 31.39-73.445 17.86-24.917 36.304-50.676 37.092-95.152zm-68.311 28.882c8.415-18.042 7.451-31.131 2.763-36.101-1.609-1.706-3.483-2.287-5.287-2.287-1.47 0-2.894.385-4.09.861-9.855 3.915-25.791 23.149-29.144 70.399 15.872-6.178 28.66-17.654 35.758-32.873zm-120.931-37.526c-1.197-.475-2.621-.861-4.09-.861-1.804 0-3.677.58-5.287 2.287-4.688 4.969-5.651 18.06 2.763 36.101 7.098 15.219 19.887 26.694 35.758 32.873-3.354-47.249-19.289-66.484-29.144-70.399zm302.982-114.79-17.092-3.371c-1.64-.323-3.01-1.445-3.651-2.989l-9.277-22.364c-.642-1.546-.467-3.311.466-4.701l9.711-14.481-18.923-18.923-14.481 9.711c-1.39.932-3.154 1.107-4.7.465l-22.364-9.277c-1.544-.641-2.667-2.01-2.99-3.651l-3.371-17.092h-26.761l-3.371 17.092c-.323 1.64-1.445 3.01-2.99 3.651l-22.364 9.277c-1.547.641-3.311.466-4.7-.465l-14.481-9.711-18.923 18.923 9.711 14.481c.932 1.39 1.107 3.154.465 4.7l-9.277 22.364c-.641 1.544-2.011 2.667-3.651 2.99l-17.092 3.371v26.761l17.092 3.37c1.64.323 3.01 1.445 3.651 2.99l9.277 22.365c.642 1.546.467 3.31-.465 4.7l-9.711 14.481 18.923 18.923 14.481-9.711c1.39-.932 3.154-1.107 4.7-.465l22.364 9.277c1.544.641 2.667 2.011 2.99 3.651l3.371 17.092h26.761l3.371-17.092c.323-1.641 1.445-3.01 2.99-3.651l22.364-9.277c1.545-.642 3.311-.467 4.7.465l14.481 9.711 18.923-18.923-9.711-14.481c-.933-1.39-1.107-3.154-.466-4.701l9.277-22.364c.641-1.544 2.011-2.667 3.651-2.99l17.092-3.37zm-41.179 13.381c0 32.463-26.411 58.874-58.874 58.874s-58.874-26.411-58.874-58.874 26.411-58.874 58.874-58.874 58.874 26.411 58.874 58.874zm-10 0c0-26.949-21.925-48.874-48.874-48.874s-48.874 21.925-48.874 48.874 21.924 48.874 48.874 48.874 48.874-21.924 48.874-48.874z" fill="url(#linear-gradient)"/></svg>