<svg id="Layer_1" enable-background="new 0 0 512 512" height="512" viewBox="0 0 512 512" width="512" xmlns="http://www.w3.org/2000/svg" xmlns:xlink="http://www.w3.org/1999/xlink"><linearGradient id="SVGID_1_" gradientUnits="userSpaceOnUse" x1="403.306" x2="111.568" y1="15.648" y2="520.952"><stop offset="0" stop-color="#0cb0d3"/><stop offset="1" stop-color="#9d31fe"/></linearGradient><path d="m454.799 77.489-75.233-75.232c-1.501-1.5-3.535-2.343-5.657-2.343h-210.045c-4.418 0-8 3.582-8 8v51.951h-39.146c-4.418 0-8 3.582-8 8v343.549l-51.517 51.517c-3.124 3.125-3.124 8.189 0 11.313l35.497 35.499c1.501 1.5 3.535 2.343 5.657 2.343s4.156-.843 5.657-2.343l61.366-61.366h236.617c4.418 0 8-3.582 8-8v-51.951h39.146c4.418 0 8-3.582 8-8v-297.28c.001-2.122-.842-4.156-2.342-5.657zm-72.89-50.261 47.919 47.919h-47.919zm-108.994 195.716c18.212 0 36.424 6.932 50.288 20.797h.001c13.432 13.432 20.829 31.291 20.829 50.286 0 18.997-7.397 36.855-20.83 50.287-27.729 27.729-72.847 27.731-100.575 0-27.729-27.728-27.729-72.846 0-100.573 13.864-13.865 32.076-20.797 50.287-20.797zm-55.545 150.813-24.183-24.183 7.234-7.234c3.129 4.693 6.754 9.151 10.892 13.289 4.139 4.138 8.598 7.764 13.291 10.894zm-35.497-12.869 24.183 24.183-90.35 90.351-24.184-24.184zm-83.518 131.884-24.184-24.185 6.036-6.036 24.184 24.184zm83.024-60.395 57.973-57.972c10.711 4.457 22.134 6.7 33.564 6.699 22.306-.002 44.619-8.493 61.601-25.475 4.803-4.803 8.956-10.079 12.458-15.705h6.1c4.418 0 8-3.582 8-8 0-3.855-2.729-7.073-6.36-7.83 3.487-9.503 5.319-19.642 5.319-30.066 0-21.543-7.78-41.883-21.989-57.841h15.03c4.418 0 8-3.582 8-8s-3.582-8-8-8h-33.968c-28.151-17.608-64.233-17.611-92.385 0h-61.082c-4.418 0-8 3.582-8 8s3.582 8 8 8h42.147c-9.403 10.575-15.775 22.907-19.132 35.869h-23.015c-4.418 0-8 3.582-8 8s3.582 8 8 8h20.426c-.825 12.103.855 24.339 5.048 35.868h-25.474c-4.418 0-8 3.582-8 8s3.582 8 8 8h14.568l-55.49 55.49v-319.549h194.046v67.232c0 4.418 3.582 8 8 8h67.232v281.279h-212.617zm153.385-345.198 47.919 47.919h-47.919zm75.232 285.247v-229.328c0-2.122-.843-4.156-2.343-5.657l-75.232-75.232c-1.501-1.5-3.535-2.343-5.657-2.343h-154.9v-43.952h194.045v67.232c0 4.418 3.582 8 8 8h67.232v281.279h-31.145zm-252.356-247.977c0-4.418 3.582-8 8-8h116.705c4.418 0 8 3.582 8 8s-3.582 8-8 8h-116.705c-4.418 0-8-3.582-8-8zm203.434 51.869c0 4.418-3.582 8-8 8h-187.434c-4.418 0-8-3.582-8-8s3.582-8 8-8h187.435c4.417 0 7.999 3.582 7.999 8zm0 207.475c0 4.418-3.582 8-8 8h-32.634c-4.418 0-8-3.582-8-8s3.582-8 8-8h32.634c4.418 0 8 3.582 8 8zm-57.39-58.997c16.966-16.966 16.966-44.57 0-61.536-3.124-3.125-3.124-8.189 0-11.314 3.126-3.123 8.19-3.121 11.314 0 23.204 23.204 23.204 60.961 0 84.165-1.562 1.562-3.609 2.343-5.657 2.343-2.047 0-4.095-.781-5.657-2.343-3.124-3.126-3.124-8.19 0-11.315z" fill="url(#SVGID_1_)"/></svg>