<svg id="Layer_1" enable-background="new 0 0 512 512" viewBox="0 0 512 512" xmlns="http://www.w3.org/2000/svg" xmlns:xlink="http://www.w3.org/1999/xlink"><linearGradient id="lg1"><stop offset="0" stop-color="#0bcff4"/><stop offset="1" stop-color="#4d5ef3"/></linearGradient><linearGradient id="SVGID_1_" gradientTransform="matrix(1 0 0 -1 0 513.88)" gradientUnits="userSpaceOnUse" x1="59.986" x2="557.206" xlink:href="#lg1" y1="566.036" y2="68.806"/><linearGradient id="SVGID_00000175307128970817575830000017638555886484123581_" gradientTransform="matrix(1 0 0 -1 0 513.88)" gradientUnits="userSpaceOnUse" x1="-52.281" x2="444.949" xlink:href="#lg1" y1="453.769" y2="-43.451"/><g id="Layer_2_00000045592084198892357920000008097062752688610979_"><g id="link"><path d="m388 57.9v12c16.1 0 32.6 4.2 49.1 12.4 37.8 18.9 59 51.1 61.4 93-.5 35.1-11 62-33.2 84.6l-1.5 1.5c-29.8 30.4-60.7 61.8-91.9 91.7-23.1 22.2-48.8 33.4-76.4 33.4-11-.1-22-1.7-32.5-4.9-41.2-12.1-67.2-39.2-77.3-80.7-3.9-15.4-4.2-31.6-.8-47.1 3.3-14.7 10.1-29.4 20.2-43.6 2.5-3.6 6.6-5.8 11-5.8 2.2 0 4.4.6 6.3 1.6 7.3 4 10.3 11.8 7.3 19.1-1.1 2.4-2.3 4.6-3.7 6.8-.8 1.4-1.7 2.8-2.5 4.2-19.4 34.7-12.1 77.5 17.4 101.6 14.9 12.3 33.5 19 52.7 19.2 19.5 0 38.2-7.4 52.4-20.8 35.4-33.3 70.1-68 103.2-103.1 25.8-27.3 26.5-71.8 1.6-103.4-14.4-18.3-37.4-29.3-61.6-29.3-12.6 0-25 2.9-36.3 8.5-3 1.5-5.7 3.2-8.4 4.8-2 1.2-4 2.4-5.9 3.4-2.2 1.1-4.6 1.7-7 1.7-5 .1-9.6-2.4-12.3-6.6-4.4-7.2-3.1-15 3.4-19.5 21.5-15 43.5-22.6 65.3-22.6zm0 0c-24.8 0-48.9 8.6-72.2 24.8-11.8 8.3-14.3 23.2-6.7 35.6 4.9 7.7 13.4 12.4 22.5 12.3 4.4 0 8.7-1.1 12.5-3.1 4.8-2.5 9.2-5.7 14.1-8.1 9.6-4.8 20.2-7.3 31-7.3 20.1 0 39.7 8.7 52.2 24.7 20.7 26.4 21.6 64-.9 87.8-33.2 35.2-67.5 69.4-102.7 102.6-11.9 11.3-27.7 17.6-44.1 17.5-16.5-.1-32.4-5.9-45.1-16.5-25.1-20.5-31.2-56.7-14.6-86.4 2.3-4.1 5-8 6.8-12.3 5.4-13.1 0-27.4-12.6-34.2-11.3-6.1-25.4-2.8-32.8 7.8-21.6 30.4-30.3 63.9-21.3 100.5 11.2 46 40.8 76.2 85.6 89.4 11.6 3.5 23.7 5.3 35.9 5.4 31.3 0 59.9-12.9 84.8-36.7 31.8-30.5 62.7-62 93.6-93.4 23.8-24.2 36.2-53.6 36.6-93.2-2.4-43.5-23.7-81.3-68-103.5-18.6-9.2-36.7-13.7-54.6-13.7z" fill="url(#SVGID_1_)"/><path d="m219.1 125.9c15 0 29.9 3.2 43.6 9.3 20.2 8.7 37.5 23.2 49.6 41.6 11.8 18.1 17.9 39.3 17.4 60.9-.4 22.2-7.2 42.5-20.9 62.2-3.6 5.1-8 8-12.5 8-2.5-.1-5-.8-7.1-2.2-10-6-8.4-14.8-5.3-21.2 1.1-2.2 2.2-4.4 3.5-6.8 3.9-7.5 7.9-15.2 10.1-24 8.5-33.7-6.3-68.5-36.8-86.6-12.7-7.6-27.3-11.6-42.1-11.7-19.6-.1-38.6 7.4-52.8 21-37.5 36-71.1 69.9-102.7 103.5-25.4 27.1-26.6 69.6-2.7 101.3 14.5 19.2 37.9 30.8 62.7 30.8 11.6 0 23.1-2.5 33.6-7.3 3.8-1.8 7.5-3.8 11.1-6.1 1.7-1 3.2-1.9 4.8-2.8 2.5-1.3 5.3-2 8.1-2 5.4 0 10.3 2.3 12.7 5.8 4.3 6.5 2.7 15.2-3.6 19.9-19.1 14.8-41.1 22-69.2 22.6-22.7-1.7-42.4-8-58.4-18.7-17.1-11.4-30.3-28.1-39.2-49.4-18.5-44.2-10.5-85 23.8-121.1 32.4-34.2 68-68.3 96.6-95.8 21-20.2 47.8-31.2 75.7-31.2m0-12c-30.3 0-60.2 11.7-83.9 34.5-32.8 31.6-65.6 63.2-96.9 96.2-36.7 38.6-46.9 84.4-26.2 134 20.4 48.8 59.9 71.9 108.4 75.5 30.6-.6 55.3-8.5 76.9-25.1 11.2-8.5 13.9-24.2 6.2-36-4.8-7.2-13.7-11.2-22.7-11.2-4.9 0-9.6 1.2-13.9 3.5-5 2.8-9.9 6-15.1 8.4-9 4.1-18.7 6.3-28.6 6.3-20.6 0-40.5-9.2-53.1-25.9-19.9-26.4-20.3-62.3 1.9-85.9 33.2-35.2 67.4-69.5 102.3-103.1 12-11.4 27.9-17.8 44.4-17.7 12.7 0 25.1 3.5 36 10 25.6 15.2 38.5 44.3 31.2 73.4-2.5 9.9-8.2 19.1-12.7 28.5-7 14.5-3.4 28.6 9.9 36.7 4 2.5 8.6 3.9 13.3 3.9 8.3 0 16.4-4.5 22.3-13.2 14.3-20.7 22.5-43.6 23-68.8.9-49.4-27.9-93.2-74.2-113.7-15.3-6.7-31.8-10.2-48.5-10.3z" fill="url(#SVGID_00000175307128970817575830000017638555886484123581_)"/></g></g></svg>