<svg width="100%" height="100%" viewBox="0 0 200 200" fill="none" xmlns="http://www.w3.org/2000/svg" data-v-25cba946="">
    <path fill-rule="evenodd" clip-rule="evenodd" d="M100 6.9282L19.3975 53.4641V146.536L100 193.072L180.603 146.536V53.4641L100 6.9282ZM186.603 50L100 0L13.3975 50V150L100 200L186.603 150V50Z" fill="#5064FB"></path>
    <path fill-rule="evenodd" clip-rule="evenodd" d="M100 86.5949L88.6795 93.1308V106.203L100 112.739L111.321 106.203V93.1308L100 86.5949ZM117.321 89.6667L100 79.6667L82.6795 89.6667V109.667L100 119.667L117.321 109.667V89.6667Z" fill="#5064FB"></path>
    <path fill-rule="evenodd" clip-rule="evenodd" d="M119.333 120.262L108.013 126.798V139.869L119.333 146.405L130.654 139.869V126.798L119.333 120.262ZM136.654 123.333L119.333 113.333L102.013 123.333V143.333L119.333 153.333L136.654 143.333V123.333Z" fill="#5064FB"></path>
    <path fill-rule="evenodd" clip-rule="evenodd" d="M138.667 86.5949L127.346 93.1308V106.203L138.667 112.739L149.987 106.203V93.1308L138.667 86.5949ZM155.987 89.6667L138.667 79.6667L121.346 89.6667V109.667L138.667 119.667L155.987 109.667V89.6667Z" fill="#5064FB"></path>
    <path fill-rule="evenodd" clip-rule="evenodd" d="M61.3333 86.5949L50.0128 93.1308V106.203L61.3333 112.739L72.6538 106.203V93.1308L61.3333 86.5949ZM78.6538 89.6667L61.3333 79.6667L44.0128 89.6667V109.667L61.3333 119.667L78.6538 109.667V89.6667Z" fill="#5064FB"></path>
    <path fill-rule="evenodd" clip-rule="evenodd" d="M80.6667 120.262L69.3462 126.798V139.869L80.6667 146.405L91.9872 139.869V126.798L80.6667 120.262ZM97.9872 123.333L80.6667 113.333L63.3462 123.333V143.333L80.6667 153.333L97.9872 143.333V123.333Z" fill="#5064FB"></path>
    <path fill-rule="evenodd" clip-rule="evenodd" d="M119.333 53.595L108.013 60.1308V73.2026L119.333 79.7385L130.654 73.2026V60.1308L119.333 53.595ZM136.654 56.6667L119.333 46.6667L102.013 56.6667V76.6667L119.333 86.6667L136.654 76.6667V56.6667Z" fill="#5064FB"></path>
    <path fill-rule="evenodd" clip-rule="evenodd" d="M80.6667 53.595L69.3462 60.1308V73.2026L80.6667 79.7385L91.9872 73.2026V60.1308L80.6667 53.595ZM97.9872 56.6667L80.6667 46.6667L63.3462 56.6667V76.6667L80.6667 86.6667L97.9872 76.6667V56.6667Z" fill="#5064FB"></path>
</svg>