<svg width="144" height="28" viewBox="0 0 144 28" fill="none" xmlns="http://www.w3.org/2000/svg">
	<path fill-rule="evenodd" clip-rule="evenodd" d="M16 20.0202L14.0251 18.0202C13.275 18.72 12.5167 19.2745 11.7497 19.6829C10.9834 20.091 10.0666 20.2951 9.00008 20.2951C8.16662 20.2951 7.3959 20.1329 6.68758 19.8077C5.97926 19.4826 5.36673 19.0371 4.84999 18.4701C4.33325 17.9035 3.93355 17.2411 3.64989 16.4829C3.36656 15.7247 3.22523 14.9118 3.22523 14.0457C3.22523 13.1789 3.36656 12.3705 3.64989 11.6204C3.93355 10.8706 4.33325 10.2166 4.84999 9.65808C5.36673 9.09989 5.97926 8.6584 6.68758 8.33326C7.3959 8.00846 8.16662 7.8459 9.00008 7.8459C9.99983 7.8459 10.8916 8.0459 11.6748 8.44591C12.4584 8.84558 13.2001 9.37072 13.8997 10.0207L15.8749 7.74606C15.4583 7.34605 15.0168 6.97944 14.55 6.64587C14.0835 6.31264 13.5752 6.02494 13.025 5.78345C12.4749 5.54163 11.8708 5.35444 11.2124 5.22122C10.554 5.08765 9.82477 5.02087 9.02504 5.02087C7.69171 5.02087 6.47508 5.25865 5.37516 5.73354C4.2749 6.20842 3.32507 6.85835 2.525 7.68333C1.72493 8.50831 1.10431 9.47056 0.66245 10.5707C0.220592 11.6706 0 12.8457 0 14.0956C0 15.3621 0.224977 16.5453 0.67493 17.6455C1.12488 18.745 1.74585 19.6991 2.53748 20.5076C3.32912 21.3157 4.26646 21.9531 5.34986 22.4199C6.43326 22.8867 7.61683 23.1198 8.89991 23.1198C9.71684 23.1198 10.4626 23.0489 11.1375 22.9073C11.8125 22.7656 12.4334 22.5575 13.0001 22.2827C13.5667 22.0074 14.096 21.6823 14.5877 21.3076C15.0792 20.9325 15.55 20.5032 16 20.0202" fill="#2E3148" />
	<path fill-rule="evenodd" clip-rule="evenodd" d="M55.6691 9.97591C55.6691 9.39376 55.9177 8.8991 56.4152 8.49193C56.9123 8.08409 57.6087 7.88051 58.5037 7.88051C59.2995 7.88051 60.0868 8.03462 60.8657 8.34219C61.645 8.64975 62.4323 9.09461 63.2277 9.67642L64.8688 7.35691C63.9741 6.64184 63.0167 6.09737 61.9972 5.72352C60.9774 5.34933 59.8298 5.16223 58.5534 5.16223C57.6916 5.16223 56.8959 5.2827 56.1706 5.52397C55.4413 5.76491 54.82 6.10982 54.3018 6.55872C53.7838 7.00795 53.3776 7.544 53.0793 8.16754C52.7851 8.79108 52.6359 9.48529 52.6359 10.2502C52.6359 11.0648 52.7643 11.755 53.0213 12.3203C53.2783 12.8857 53.6553 13.3679 54.1444 13.767C54.6332 14.1661 55.2424 14.4985 55.9633 14.7647C56.6886 15.0309 57.5135 15.2715 58.4457 15.4878C59.2582 15.6874 59.9167 15.8785 60.4266 16.0612C60.9322 16.2443 61.33 16.4398 61.6242 16.6474C61.914 16.8554 62.1133 17.0839 62.221 17.3332C62.3287 17.5829 62.3824 17.8652 62.3824 18.1812C62.3824 18.8633 62.1049 19.4037 61.5497 19.8025C60.9942 20.2019 60.2441 20.4011 59.2995 20.4011C58.2055 20.4011 57.2273 20.2056 56.3655 19.8149C55.5034 19.4243 54.65 18.8633 53.8043 18.1314L51.9646 20.3264C53.0089 21.274 54.1444 21.9766 55.3709 22.4339C56.5977 22.8912 57.8821 23.1197 59.2247 23.1197C60.1364 23.1197 60.9738 23.0033 61.7363 22.7708C62.4944 22.5376 63.1492 22.1967 63.688 21.7478C64.2307 21.2989 64.6534 20.7504 64.96 20.102C65.2626 19.4535 65.4159 18.7136 65.4159 17.8821C65.4159 17.1505 65.2958 16.5145 65.0553 15.9741C64.8148 15.4337 64.4585 14.9602 63.9946 14.5524C63.5303 14.1452 62.9419 13.7999 62.2374 13.5173C61.5333 13.2349 60.7208 12.9772 59.809 12.7443C58.9761 12.5448 58.2924 12.3533 57.7496 12.1706C57.2109 11.9879 56.7882 11.7883 56.4772 11.5719C56.1706 11.3559 55.9596 11.1231 55.8432 10.8737C55.7275 10.624 55.6691 10.3249 55.6691 9.97591" fill="#2E3148" />
	<path fill-rule="evenodd" clip-rule="evenodd" d="M89.7054 10.223V22.6955H92.7433V5.30359H89.4809L84.1768 13.5276L78.8726 5.30359H75.6106V22.6955H78.6485V10.2726L84.1019 18.4221H84.2017L89.7054 10.223Z" fill="#2E3148" />
	<path fill-rule="evenodd" clip-rule="evenodd" d="M118.268 14.0956C118.268 14.9455 118.122 15.7496 117.831 16.5081C117.54 17.2663 117.137 17.9244 116.621 18.4825C116.105 19.0407 115.486 19.4826 114.762 19.8077C114.038 20.1328 113.244 20.2951 112.379 20.2951C111.514 20.2951 110.715 20.1284 109.983 19.7952C109.252 19.4617 108.623 19.0117 108.099 18.4454C107.576 17.8785 107.168 17.2161 106.877 16.4579C106.586 15.6997 106.44 14.8953 106.44 14.0457C106.44 13.1954 106.586 12.3913 106.877 11.6331C107.168 10.8746 107.571 10.2166 108.087 9.65806C108.603 9.09986 109.223 8.65837 109.946 8.33324C110.67 8.00844 111.464 7.84587 112.329 7.84587C113.194 7.84587 113.993 8.01249 114.725 8.34605C115.456 8.67928 116.085 9.12921 116.608 9.69583C117.133 10.2621 117.54 10.9249 117.831 11.6831C118.122 12.4413 118.268 13.2457 118.268 14.0956ZM121.487 14.0457C121.487 12.8123 121.262 11.6456 120.813 10.5455C120.364 9.44593 119.74 8.4874 118.942 7.67085C118.143 6.85397 117.187 6.20842 116.072 5.73354C114.957 5.25865 113.727 5.02087 112.379 5.02087C111.032 5.02087 109.801 5.2627 108.686 5.74602C107.571 6.22933 106.606 6.88331 105.791 7.70829C104.976 8.53327 104.344 9.49585 103.895 10.5957C103.446 11.6956 103.221 12.8622 103.221 14.0956C103.221 15.3287 103.446 16.495 103.895 17.5952C104.344 18.6954 104.968 19.6536 105.766 20.4701C106.565 21.2867 107.521 21.9326 108.636 22.4074C109.75 22.8823 110.981 23.1198 112.329 23.1198C113.676 23.1198 114.908 22.8779 116.022 22.395C117.137 21.9117 118.101 21.2577 118.917 20.4324C119.732 19.6077 120.364 18.6451 120.813 17.5453C121.262 16.4454 121.487 15.2788 121.487 14.0457V14.0457Z" fill="#2E3148" />
	<path fill-rule="evenodd" clip-rule="evenodd" d="M134.253 9.97591C134.253 9.39376 134.502 8.8991 134.999 8.49193C135.496 8.08409 136.192 7.88051 137.088 7.88051C137.883 7.88051 138.671 8.03462 139.45 8.34219C140.229 8.64975 141.016 9.09461 141.812 9.67642L143.453 7.35691C142.558 6.64184 141.6 6.09737 140.581 5.72352C139.562 5.34933 138.414 5.16223 137.137 5.16223C136.276 5.16223 135.48 5.2827 134.755 5.52397C134.025 5.76491 133.404 6.10982 132.886 6.55872C132.368 7.00795 131.962 7.544 131.663 8.16754C131.369 8.79108 131.22 9.48529 131.22 10.2502C131.22 11.0648 131.348 11.755 131.605 12.3203C131.862 12.8857 132.239 13.3679 132.728 13.767C133.217 14.1661 133.826 14.4985 134.548 14.7647C135.273 15.0309 136.097 15.2715 137.03 15.4878C137.842 15.6874 138.501 15.8785 139.011 16.0612C139.516 16.2443 139.914 16.4398 140.208 16.6474C140.498 16.8554 140.697 17.0839 140.805 17.3332C140.913 17.5829 140.967 17.8652 140.967 18.1812C140.967 18.8633 140.689 19.4037 140.134 19.8025C139.578 20.2019 138.828 20.4011 137.883 20.4011C136.789 20.4011 135.811 20.2056 134.949 19.8149C134.088 19.4243 133.234 18.8633 132.388 18.1314L130.549 20.3264C131.593 21.274 132.728 21.9766 133.955 22.4339C135.181 22.8912 136.466 23.1197 137.809 23.1197C138.72 23.1197 139.557 23.0033 140.32 22.7708C141.078 22.5376 141.733 22.1967 142.272 21.7478C142.815 21.2989 143.237 20.7504 143.544 20.102C143.846 19.4535 144 18.7136 144 17.8821C144 17.1505 143.879 16.5145 143.639 15.9741C143.399 15.4337 143.043 14.9602 142.578 14.5524C142.114 14.1452 141.526 13.7999 140.821 13.5173C140.117 13.2349 139.304 12.9772 138.393 12.7443C137.56 12.5448 136.876 12.3533 136.334 12.1706C135.795 11.9879 135.372 11.7883 135.061 11.5719C134.755 11.3559 134.543 11.1231 134.427 10.8737C134.311 10.624 134.253 10.3249 134.253 9.97591" fill="#2E3148" />
	<path fill-rule="evenodd" clip-rule="evenodd" d="M36.8401 8.78536L28.5159 17.0984C28.4086 16.8904 28.3117 16.6737 28.2249 16.4489C27.9342 15.6936 27.7888 14.8922 27.7888 14.0458C27.7888 13.1987 27.9342 12.3977 28.2249 11.6424C28.5159 10.8867 28.919 10.2312 29.4345 9.67476C29.9499 9.11868 30.5694 8.67885 31.2924 8.35495C32.0158 8.03138 32.8095 7.86942 33.6739 7.86942C34.5386 7.86942 35.3367 8.03541 36.0679 8.36771C36.3397 8.49103 36.5971 8.63013 36.8401 8.78536ZM36.1056 19.786C35.3822 20.1099 34.5884 20.2715 33.7241 20.2715C32.8593 20.2715 32.0613 20.1055 31.3298 19.7736C31.0582 19.6499 30.8008 19.5108 30.5583 19.3552L38.8821 11.0429C38.9894 11.2505 39.0863 11.4669 39.1731 11.692C39.4638 12.4474 39.6092 13.2487 39.6092 14.0955C39.6092 14.9422 39.4638 15.7432 39.1731 16.4989C38.8821 17.2542 38.479 17.9098 37.9635 18.4658C37.4481 19.0219 36.829 19.4621 36.1056 19.786ZM37.365 22.3635C38.479 21.882 39.4433 21.2305 40.2579 20.4083C41.0725 19.5868 41.704 18.6278 42.1529 17.5321C42.602 16.4364 42.8265 15.2742 42.8265 14.0458C42.8265 12.817 42.602 11.6548 42.1529 10.5588C41.8867 9.90893 41.559 9.30883 41.17 8.75813L46.5841 3.35152L44.4328 1.20312L39.0022 6.62619C38.5147 6.29422 37.9854 6.00728 37.4148 5.76502C36.3007 5.29193 35.0706 5.05505 33.7241 5.05505C32.3772 5.05505 31.1471 5.29596 30.033 5.77745C28.919 6.25894 27.9547 6.91045 27.1401 7.73231C26.3255 8.55417 25.6936 9.51312 25.2448 10.6088C24.7959 11.7045 24.5715 12.8668 24.5715 14.0955C24.5715 15.3239 24.7959 16.4858 25.2448 17.5819C25.5113 18.232 25.839 18.8321 26.2279 19.3832L20.8142 24.7891L22.9656 26.9375L28.3958 21.5148C28.8833 21.8467 29.4126 22.1337 29.9832 22.3759C31.0973 22.849 32.3274 23.0856 33.6739 23.0856C35.0208 23.0856 36.2509 22.8447 37.365 22.3635V22.3635Z" fill="#2E3148" />
</svg>
