<svg width="168" height="66" viewBox="0 0 168 66" fill="#2E3148" xmlns="http://www.w3.org/2000/svg">
	<path fill-rule="evenodd" clip-rule="evenodd" d="M40 0V31.5004V54V54.5004L20 66.0004L0 54.5004V54V31.5004V0H40Z" fill="#5064FB" />
	<path fill-rule="evenodd" clip-rule="evenodd" d="M20 28.1085L7.10355 35.5543V50.4457L20 57.8915L32.8964 50.4457V35.5543L20 28.1085ZM33.8564 35L20 27L6.14355 35V51L20 59L33.8564 51V35Z" fill="#2E3148" />
	<path fill-rule="evenodd" clip-rule="evenodd" d="M20.0001 40.8553L18.1888 41.9011V43.9925L20.0001 45.0383L21.8113 43.9925V41.9011L20.0001 40.8553ZM22.7713 41.3468L20.0001 39.7468L17.2288 41.3468V44.5468L20.0001 46.1468L22.7713 44.5468V41.3468Z" fill="#2E3148" />
	<path fill-rule="evenodd" clip-rule="evenodd" d="M23.0934 46.242L21.2821 47.2877V49.3792L23.0934 50.425L24.9047 49.3792V47.2877L23.0934 46.242ZM25.8647 46.7335L23.0934 45.1335L20.3221 46.7335V49.9335L23.0934 51.5335L25.8647 49.9335V46.7335Z" fill="#2E3148" />
	<path fill-rule="evenodd" clip-rule="evenodd" d="M26.1867 40.8553L24.3754 41.9011V43.9925L26.1867 45.0383L27.998 43.9925V41.9011L26.1867 40.8553ZM28.958 41.3468L26.1867 39.7468L23.4154 41.3468V44.5468L26.1867 46.1468L28.958 44.5468V41.3468Z" fill="#2E3148" />
	<path fill-rule="evenodd" clip-rule="evenodd" d="M13.8134 40.8553L12.0021 41.9011V43.9925L13.8134 45.0383L15.6247 43.9925V41.9011L13.8134 40.8553ZM16.5847 41.3468L13.8134 39.7468L11.0421 41.3468V44.5468L13.8134 46.1468L16.5847 44.5468V41.3468Z" fill="#2E3148" />
	<path fill-rule="evenodd" clip-rule="evenodd" d="M16.9067 46.242L15.0954 47.2877V49.3792L16.9067 50.425L18.718 49.3792V47.2877L16.9067 46.242ZM19.678 46.7335L16.9067 45.1335L14.1354 46.7335V49.9335L16.9067 51.5335L19.678 49.9335V46.7335Z" fill="#2E3148" />
	<path fill-rule="evenodd" clip-rule="evenodd" d="M23.0934 35.5753L21.2821 36.6211V38.7125L23.0934 39.7583L24.9047 38.7125V36.6211L23.0934 35.5753ZM25.8647 36.0668L23.0934 34.4668L20.3221 36.0668V39.2668L23.0934 40.8668L25.8647 39.2668V36.0668Z" fill="#2E3148" />
	<path fill-rule="evenodd" clip-rule="evenodd" d="M16.9067 35.5753L15.0954 36.6211V38.7125L16.9067 39.7583L18.718 38.7125V36.6211L16.9067 35.5753ZM19.678 36.0668L16.9067 34.4668L14.1354 36.0668V39.2668L16.9067 40.8668L19.678 39.2668V36.0668Z" fill="#2E3148" />
	<path fill-rule="evenodd" clip-rule="evenodd" d="M62.6667 38.0132L61.3501 36.6799C60.85 37.1464 60.3445 37.5161 59.8332 37.7884C59.3223 38.0604 58.7111 38.1965 58.0001 38.1965C57.4444 38.1965 56.9306 38.0883 56.4584 37.8716C55.9862 37.6548 55.5778 37.3578 55.2333 36.9798C54.8888 36.6021 54.6224 36.1605 54.4333 35.655C54.2444 35.1495 54.1502 34.6076 54.1502 34.0302C54.1502 33.4524 54.2444 32.9134 54.4333 32.4133C54.6224 31.9135 54.8888 31.4775 55.2333 31.1051C55.5778 30.733 55.9862 30.4387 56.4584 30.2219C56.9306 30.0054 57.4444 29.897 58.0001 29.897C58.6666 29.897 59.2611 30.0304 59.7832 30.297C60.3056 30.5635 60.8001 30.9136 61.2664 31.3469L62.5832 29.8305C62.3055 29.5638 62.0112 29.3194 61.7 29.097C61.389 28.8748 61.0501 28.6831 60.6834 28.5221C60.3166 28.3608 59.9139 28.236 59.4749 28.1472C59.036 28.0582 58.5498 28.0137 58.0167 28.0137C57.1278 28.0137 56.3167 28.1722 55.5834 28.4888C54.8499 28.8054 54.2167 29.2387 53.6833 29.7886C53.15 30.3386 52.7362 30.9801 52.4416 31.7136C52.1471 32.4468 52 33.2302 52 34.0635C52 34.9078 52.15 35.6966 52.45 36.4301C52.7499 37.1631 53.1639 37.7992 53.6917 38.3381C54.2194 38.8769 54.8443 39.3018 55.5666 39.613C56.2888 39.9242 57.0779 40.0796 57.9333 40.0796C58.4779 40.0796 58.9751 40.0324 59.425 39.938C59.875 39.8435 60.289 39.7048 60.6667 39.5215C61.0445 39.338 61.3973 39.1213 61.7252 38.8715C62.0528 38.6214 62.3667 38.3352 62.6667 38.0132Z" fill="#161931" />
	<path fill-rule="evenodd" clip-rule="evenodd" d="M89.1127 31.3175C89.1127 30.9294 89.2785 30.5996 89.6101 30.3282C89.9415 30.0563 90.4058 29.9206 91.0025 29.9206C91.533 29.9206 92.0579 30.0233 92.5772 30.2284C93.0967 30.4334 93.6216 30.73 94.1518 31.1179L95.2459 29.5715C94.6494 29.0948 94.0111 28.7318 93.3315 28.4826C92.6516 28.2331 91.8866 28.1084 91.0356 28.1084C90.4611 28.1084 89.9306 28.1887 89.4471 28.3496C88.9609 28.5102 88.5467 28.7401 88.2012 29.0394C87.8559 29.3389 87.585 29.6962 87.3862 30.1119C87.1901 30.5276 87.0906 30.9904 87.0906 31.5004C87.0906 32.0435 87.1762 32.5036 87.3475 32.8805C87.5188 33.2573 87.7702 33.5788 88.0963 33.8449C88.4221 34.1109 88.8283 34.3326 89.3089 34.51C89.7924 34.6875 90.3423 34.8479 90.9638 34.9921C91.5055 35.1252 91.9445 35.2526 92.2844 35.3744C92.6214 35.4964 92.8867 35.6268 93.0828 35.7652C93.276 35.9038 93.4089 36.0562 93.4807 36.2224C93.5525 36.3888 93.5882 36.5771 93.5882 36.7877C93.5882 37.2424 93.4033 37.6027 93.0332 37.8686C92.6628 38.1349 92.1627 38.2677 91.533 38.2677C90.8037 38.2677 90.1515 38.1373 89.577 37.8769C89.0023 37.6164 88.4333 37.2424 87.8695 36.7545L86.6431 38.2179C87.3393 38.8496 88.0963 39.318 88.9139 39.6229C89.7318 39.9277 90.5881 40.0801 91.4831 40.0801C92.091 40.0801 92.6492 40.0024 93.1575 39.8474C93.6629 39.692 94.0995 39.4647 94.4586 39.1655C94.8205 38.8662 95.1023 38.5005 95.3067 38.0682C95.5084 37.6359 95.6106 37.1426 95.6106 36.5883C95.6106 36.1006 95.5306 35.6766 95.3702 35.3163C95.2099 34.956 94.9724 34.6404 94.6631 34.3685C94.3535 34.097 93.9613 33.8669 93.4916 33.6784C93.0222 33.4902 92.4805 33.3184 91.8727 33.1631C91.3174 33.0301 90.8616 32.9025 90.4998 32.7806C90.1406 32.6588 89.8588 32.5258 89.6515 32.3815C89.4471 32.2375 89.3064 32.0823 89.2288 31.916C89.1516 31.7496 89.1127 31.5502 89.1127 31.3175Z" fill="#161931" />
	<path fill-rule="evenodd" clip-rule="evenodd" d="M111.804 31.4822V39.7972H113.829V28.2026H111.654L108.118 33.6853L104.582 28.2026H102.407V39.7972H104.432V31.5153L108.068 36.9483H108.134L111.804 31.4822Z" fill="#161931" />
	<path fill-rule="evenodd" clip-rule="evenodd" d="M130.845 34.0635C130.845 34.6301 130.748 35.1662 130.554 35.6718C130.36 36.1773 130.091 36.616 129.747 36.9881C129.404 37.3602 128.99 37.6548 128.508 37.8716C128.026 38.0883 127.496 38.1965 126.92 38.1965C126.343 38.1965 125.81 38.0854 125.322 37.8632C124.834 37.6409 124.416 37.3409 124.066 36.9634C123.717 36.5854 123.445 36.1438 123.251 35.6383C123.057 35.1329 122.96 34.5966 122.96 34.0302C122.96 33.4634 123.057 32.9273 123.251 32.4219C123.445 31.9162 123.714 31.4775 124.058 31.1051C124.402 30.733 124.815 30.4387 125.297 30.2219C125.78 30.0054 126.309 29.897 126.886 29.897C127.463 29.897 127.995 30.0081 128.483 30.2305C128.971 30.4526 129.39 30.7526 129.739 31.1303C130.088 31.5078 130.36 31.9497 130.554 32.4551C130.748 32.9606 130.845 33.4969 130.845 34.0635ZM132.991 34.0302C132.991 33.2079 132.841 32.4302 132.542 31.6967C132.243 30.9637 131.827 30.3247 131.295 29.7803C130.762 29.2357 130.125 28.8054 129.381 28.4888C128.638 28.1722 127.818 28.0137 126.92 28.0137C126.021 28.0137 125.201 28.1749 124.457 28.4971C123.714 28.8193 123.071 29.2553 122.528 29.8053C121.984 30.3553 121.563 30.997 121.263 31.7302C120.964 32.4635 120.814 33.2412 120.814 34.0635C120.814 34.8856 120.964 35.6631 121.263 36.3966C121.563 37.13 121.979 37.7688 122.511 38.3132C123.043 38.8575 123.681 39.2881 124.424 39.6047C125.167 39.9213 125.988 40.0796 126.886 40.0796C127.784 40.0796 128.605 39.9184 129.348 39.5964C130.091 39.2742 130.734 38.8382 131.278 38.288C131.821 37.7382 132.243 37.0965 132.542 36.3633C132.841 35.63 132.991 34.8523 132.991 34.0302Z" fill="#161931" />
	<path fill-rule="evenodd" clip-rule="evenodd" d="M141.502 31.3175C141.502 30.9294 141.668 30.5996 141.999 30.3282C142.331 30.0563 142.795 29.9206 143.392 29.9206C143.922 29.9206 144.447 30.0233 144.967 30.2284C145.486 30.4334 146.011 30.73 146.541 31.1179L147.635 29.5715C147.039 29.0948 146.4 28.7318 145.721 28.4826C145.041 28.2331 144.276 28.1084 143.425 28.1084C142.85 28.1084 142.32 28.1887 141.836 28.3496C141.35 28.5102 140.936 28.7401 140.591 29.0394C140.245 29.3389 139.975 29.6962 139.775 30.1119C139.579 30.5276 139.48 30.9904 139.48 31.5004C139.48 32.0435 139.566 32.5036 139.737 32.8805C139.908 33.2573 140.16 33.5788 140.485 33.8449C140.812 34.1109 141.218 34.3326 141.698 34.51C142.182 34.6875 142.732 34.8479 143.353 34.9921C143.895 35.1252 144.334 35.2526 144.674 35.3744C145.011 35.4964 145.276 35.6268 145.472 35.7652C145.665 35.9038 145.798 36.0562 145.87 36.2224C145.942 36.3888 145.978 36.5771 145.978 36.7877C145.978 37.2424 145.792 37.6027 145.423 37.8686C145.052 38.1349 144.552 38.2677 143.922 38.2677C143.193 38.2677 142.541 38.1373 141.966 37.8769C141.392 37.6164 140.823 37.2424 140.259 36.7545L139.032 38.2179C139.728 38.8496 140.485 39.318 141.303 39.6229C142.121 39.9277 142.977 40.0801 143.873 40.0801C144.48 40.0801 145.038 40.0024 145.547 39.8474C146.052 39.692 146.489 39.4647 146.848 39.1655C147.21 38.8662 147.492 38.5005 147.696 38.0682C147.898 37.6359 148 37.1426 148 36.5883C148 36.1006 147.92 35.6766 147.76 35.3163C147.599 34.956 147.362 34.6404 147.052 34.3685C146.743 34.097 146.351 33.8669 145.881 33.6784C145.411 33.4902 144.87 33.3184 144.262 33.1631C143.707 33.0301 143.251 32.9025 142.889 32.7806C142.53 32.6588 142.248 32.5258 142.041 32.3815C141.836 32.2375 141.696 32.0823 141.618 31.916C141.541 31.7496 141.502 31.5502 141.502 31.3175Z" fill="#161931" />
	<path fill-rule="evenodd" clip-rule="evenodd" d="M76.56 30.5236L71.0106 36.0656C70.939 35.9269 70.8744 35.7824 70.8165 35.6326C70.6227 35.129 70.5258 34.5948 70.5258 34.0305C70.5258 33.4658 70.6227 32.9318 70.8165 32.4283C71.0106 31.9245 71.2793 31.4875 71.6229 31.1165C71.9666 30.7458 72.3795 30.4526 72.8616 30.2366C73.3438 30.0209 73.873 29.9129 74.4492 29.9129C75.0257 29.9129 75.5578 30.0236 76.0452 30.2451C76.2265 30.3274 76.3981 30.4201 76.56 30.5236ZM76.0703 37.8573C75.5881 38.0733 75.0589 38.181 74.4827 38.181C73.9062 38.181 73.3741 38.0704 72.8865 37.849C72.7055 37.7666 72.5339 37.6739 72.3721 37.5702L77.9214 32.0286C77.9929 32.167 78.0575 32.3113 78.1154 32.4614C78.3092 32.9649 78.4061 33.4992 78.4061 34.0636C78.4061 34.6281 78.3092 35.1621 78.1154 35.6659C77.9214 36.1695 77.6526 36.6065 77.309 36.9772C76.9653 37.348 76.5526 37.6414 76.0703 37.8573ZM76.9099 39.5757C77.6526 39.2547 78.2955 38.8203 78.8385 38.2722C79.3816 37.7245 79.8026 37.0852 80.1019 36.3548C80.4013 35.6243 80.5509 34.8495 80.5509 34.0305C80.5509 33.2114 80.4013 32.4365 80.1019 31.7058C79.9244 31.2726 79.706 30.8726 79.4467 30.5054L83.056 26.901L81.6218 25.4688L78.0014 29.0841C77.6764 28.8628 77.3236 28.6715 76.9431 28.51C76.2004 28.1946 75.3804 28.0367 74.4827 28.0367C73.5848 28.0367 72.7647 28.1973 72.022 28.5183C71.2793 28.8393 70.6364 29.2736 70.0934 29.8215C69.5503 30.3694 69.129 31.0087 68.8298 31.7392C68.5306 32.4697 68.381 33.2445 68.381 34.0637C68.381 34.8826 68.5306 35.6572 68.8298 36.3879C69.0075 36.8214 69.226 37.2214 69.4853 37.5888L65.8761 41.1927L67.3103 42.625L70.9305 39.0098C71.2555 39.2312 71.6084 39.4225 71.9888 39.584C72.7315 39.8994 73.5516 40.0571 74.4492 40.0571C75.3472 40.0571 76.1672 39.8964 76.9099 39.5757Z" fill="#161931" />
	<path d="M55.685 60.11C57.302 60.11 58.435 59.252 58.435 57.811V57.789C58.435 56.513 57.599 55.93 55.971 55.534C54.486 55.182 54.134 54.918 54.134 54.324V54.302C54.134 53.796 54.596 53.389 55.388 53.389C56.092 53.389 56.785 53.664 57.478 54.181L58.204 53.158C57.423 52.531 56.532 52.19 55.41 52.19C53.881 52.19 52.781 53.103 52.781 54.423V54.445C52.781 55.864 53.705 56.348 55.344 56.744C56.774 57.074 57.082 57.371 57.082 57.921V57.943C57.082 58.515 56.554 58.911 55.718 58.911C54.772 58.911 54.024 58.548 53.287 57.91L52.473 58.878C53.397 59.703 54.508 60.11 55.685 60.11ZM60.2461 60H63.1171C65.5371 60 67.2091 58.317 67.2091 56.15V56.128C67.2091 53.961 65.5371 52.3 63.1171 52.3H60.2461V60ZM63.1171 53.532C64.7341 53.532 65.7901 54.643 65.7901 56.15V56.172C65.7901 57.679 64.7341 58.768 63.1171 58.768H61.5991V53.532H63.1171ZM69.0706 60H70.4236V57.767L71.6226 56.535L74.2516 60H75.9016L72.5466 55.611L75.7586 52.3H74.0756L70.4236 56.172V52.3H69.0706V60ZM80.7899 60H83.6609C86.0809 60 87.7529 58.317 87.7529 56.15V56.128C87.7529 53.961 86.0809 52.3 83.6609 52.3H80.7899V60ZM83.6609 53.532C85.2779 53.532 86.3339 54.643 86.3339 56.15V56.172C86.3339 57.679 85.2779 58.768 83.6609 58.768H82.1429V53.532H83.6609ZM92.2214 60.132C94.0144 60.132 95.3344 58.757 95.3344 57.107V57.085C95.3344 55.424 94.0254 54.071 92.2434 54.071C90.4614 54.071 89.1414 55.446 89.1414 57.107V57.129C89.1414 58.779 90.4504 60.132 92.2214 60.132ZM92.2434 58.966C91.2094 58.966 90.4724 58.119 90.4724 57.107V57.085C90.4724 56.073 91.1544 55.237 92.2214 55.237C93.2664 55.237 94.0034 56.084 94.0034 57.107V57.129C94.0034 58.13 93.3214 58.966 92.2434 58.966ZM99.5939 60.132C100.727 60.132 101.398 59.681 101.97 59.043L101.167 58.251C100.738 58.68 100.287 58.966 99.6599 58.966C98.6369 58.966 97.9219 58.141 97.9219 57.107V57.085C97.9219 56.073 98.6369 55.237 99.6049 55.237C100.265 55.237 100.694 55.545 101.101 55.963L101.937 55.072C101.387 54.478 100.705 54.071 99.6159 54.071C97.8669 54.071 96.5909 55.457 96.5909 57.107V57.129C96.5909 58.779 97.8669 60.132 99.5939 60.132ZM105.405 60.121C106.307 60.121 106.846 59.648 107.22 59.098V60H108.562V54.192H107.22V57.47C107.22 58.372 106.681 58.9 105.911 58.9C105.119 58.9 104.668 58.394 104.668 57.492V54.192H103.337V57.888C103.337 59.241 104.096 60.121 105.405 60.121ZM110.434 60H111.776V56.722C111.776 55.831 112.282 55.281 113.019 55.281C113.756 55.281 114.196 55.787 114.196 56.689V60H115.527V56.722C115.527 55.787 116.044 55.281 116.77 55.281C117.518 55.281 117.947 55.776 117.947 56.7V60H119.278V56.293C119.278 54.874 118.508 54.071 117.243 54.071C116.363 54.071 115.747 54.478 115.285 55.094C114.977 54.478 114.383 54.071 113.547 54.071C112.656 54.071 112.15 54.555 111.776 55.072V54.192H110.434V60ZM123.768 60.132C124.835 60.132 125.594 59.703 126.144 59.043L125.363 58.35C124.901 58.801 124.439 59.043 123.79 59.043C122.932 59.043 122.261 58.515 122.118 57.569H126.386C126.397 57.437 126.408 57.316 126.408 57.195C126.408 55.523 125.473 54.071 123.625 54.071C121.964 54.071 120.787 55.435 120.787 57.096V57.118C120.787 58.911 122.085 60.132 123.768 60.132ZM122.107 56.689C122.228 55.787 122.8 55.16 123.614 55.16C124.494 55.16 125 55.831 125.088 56.689H122.107ZM127.954 60H129.296V56.722C129.296 55.82 129.835 55.281 130.605 55.281C131.397 55.281 131.848 55.798 131.848 56.7V60H133.179V56.293C133.179 54.951 132.42 54.071 131.111 54.071C130.209 54.071 129.67 54.544 129.296 55.083V54.192H127.954V60ZM136.953 60.099C137.459 60.099 137.822 59.989 138.152 59.802V58.713C137.888 58.845 137.624 58.911 137.327 58.911C136.876 58.911 136.612 58.702 136.612 58.185V55.336H138.174V54.192H136.612V52.597H135.281V54.192H134.544V55.336H135.281V58.394C135.281 59.67 135.974 60.099 136.953 60.099ZM141.42 60.121C142.311 60.121 142.916 59.747 143.312 59.274V60H144.61V56.557C144.61 55.798 144.412 55.182 143.983 54.764C143.576 54.346 142.927 54.115 142.058 54.115C141.134 54.115 140.507 54.302 139.858 54.588L140.221 55.633C140.749 55.413 141.233 55.27 141.882 55.27C142.817 55.27 143.323 55.71 143.323 56.535V56.678C142.872 56.535 142.41 56.436 141.761 56.436C140.342 56.436 139.352 57.052 139.352 58.306V58.328C139.352 59.494 140.331 60.121 141.42 60.121ZM141.794 59.153C141.156 59.153 140.661 58.834 140.661 58.273V58.251C140.661 57.646 141.167 57.283 142.025 57.283C142.553 57.283 143.004 57.382 143.345 57.514V57.91C143.345 58.647 142.674 59.153 141.794 59.153ZM148.318 60.099C148.824 60.099 149.187 59.989 149.517 59.802V58.713C149.253 58.845 148.989 58.911 148.692 58.911C148.241 58.911 147.977 58.702 147.977 58.185V55.336H149.539V54.192H147.977V52.597H146.646V54.192H145.909V55.336H146.646V58.394C146.646 59.67 147.339 60.099 148.318 60.099ZM151.135 53.301H152.565V52.036H151.135V53.301ZM151.179 60H152.521V54.192H151.179V60ZM157.242 60.132C159.035 60.132 160.355 58.757 160.355 57.107V57.085C160.355 55.424 159.046 54.071 157.264 54.071C155.482 54.071 154.162 55.446 154.162 57.107V57.129C154.162 58.779 155.471 60.132 157.242 60.132ZM157.264 58.966C156.23 58.966 155.493 58.119 155.493 57.107V57.085C155.493 56.073 156.175 55.237 157.242 55.237C158.287 55.237 159.024 56.084 159.024 57.107V57.129C159.024 58.13 158.342 58.966 157.264 58.966ZM161.919 60H163.261V56.722C163.261 55.82 163.8 55.281 164.57 55.281C165.362 55.281 165.813 55.798 165.813 56.7V60H167.144V56.293C167.144 54.951 166.385 54.071 165.076 54.071C164.174 54.071 163.635 54.544 163.261 55.083V54.192H161.919V60Z" fill="#5064FB" />
</svg>
