<?xml version="1.0" encoding="UTF-8"?>
<svg xmlns="http://www.w3.org/2000/svg" xmlns:xlink="http://www.w3.org/1999/xlink" id="Layer_1" data-name="Layer 1" viewBox="0 0 512 512" width="512" height="512"><defs><style>.cls-1{fill:url(#linear-gradient);}</style><linearGradient id="linear-gradient" x1="115.673" y1="396.327" x2="396.327" y2="115.673" gradientUnits="userSpaceOnUse"><stop offset="0" stop-color="#4158d0"/><stop offset="1" stop-color="#c850c0"/></linearGradient></defs><path class="cls-1" d="M486.4,208.729H449.31L303.271,62.69V25.6a7.2,7.2,0,0,0-7.2-7.2H215.929a7.2,7.2,0,0,0-7.2,7.2V62.69L62.69,208.729H25.6a7.2,7.2,0,0,0-7.2,7.2v80.142a7.2,7.2,0,0,0,7.2,7.2H62.69L208.729,449.31V486.4a7.2,7.2,0,0,0,7.2,7.2h80.142a7.2,7.2,0,0,0,7.2-7.2V449.31L449.31,303.271H486.4a7.2,7.2,0,0,0,7.2-7.2V215.929A7.2,7.2,0,0,0,486.4,208.729Zm-57.452,0H406.261a7.2,7.2,0,0,0-7.2,7.2V248.8H343.339V203.132a7.432,7.432,0,0,0-4.163-6.528L263.2,161.25V112.939h32.871a7.2,7.2,0,0,0,7.2-7.2V83.052ZM256,173.784l61.675,28.7L256,226.071l-61.675-23.587ZM183.061,213.6,248.8,238.737V335.7l-65.739-25.141ZM263.2,238.737,328.939,213.6v96.96L263.2,335.7ZM223.129,32.8h65.742V98.539H223.129Zm-14.4,50.252v22.687a7.2,7.2,0,0,0,7.2,7.2H248.8V161.25L172.824,196.6a7.432,7.432,0,0,0-4.163,6.528V248.8H112.939V215.929a7.2,7.2,0,0,0-7.2-7.2H83.052ZM32.8,223.129H98.539v65.742H32.8Zm50.252,80.142h22.687a7.2,7.2,0,0,0,7.2-7.2V263.2h55.722v52.309a7.2,7.2,0,0,0,4.627,6.725l75.512,28.88v47.947H215.929a7.2,7.2,0,0,0-7.2,7.2v22.687ZM288.871,479.2H223.129V413.461h65.742Zm14.4-50.252V406.261a7.2,7.2,0,0,0-7.2-7.2H263.2V351.114l75.512-28.88a7.2,7.2,0,0,0,4.627-6.725V263.2h55.722v32.871a7.2,7.2,0,0,0,7.2,7.2h22.687ZM479.2,288.871H413.461V223.129H479.2Z"/></svg>
