<svg id="Layer_1" enable-background="new 0 0 512 512" height="512" viewBox="0 0 512 512" width="512" xmlns="http://www.w3.org/2000/svg" xmlns:xlink="http://www.w3.org/1999/xlink"><linearGradient id="SVGID_1_" gradientUnits="userSpaceOnUse" x1="50.319" x2="461.681" y1="256" y2="256"><stop offset="0" stop-color="#a647fe"/><stop offset=".1488" stop-color="#a04cfc"/><stop offset=".3414" stop-color="#905af8"/><stop offset=".5582" stop-color="#7571f0"/><stop offset=".7908" stop-color="#5191e5"/><stop offset="1" stop-color="#29b4d9"/></linearGradient><path d="m444.28 196.15c-8.78-1.72-20.09 3.01-25.48 21.42l-18.45 63.08c-4.68.42-9.71 2.53-14.54 7.02-5.44 5.08-10.91 9.99-16.2 14.73-34.43 30.89-66.95 60.07-67.86 117.92v.13 33.76h-3.15c-6.81 0-12.36 5.54-12.36 12.36v33.08c0 6.8 5.54 12.33 12.36 12.33h88.41c6.81 0 12.36-5.53 12.36-12.33v-33.08c0-6.81-5.54-12.36-12.36-12.36h-2.8l.11-7.73c.06-4.81 1.78-8.77 5.25-12.1l32.6-31.27c15.6-14.98 24.26-32.73 26.48-54.27l12.87-125.35c1.35-13.17-6.23-25.18-17.24-27.34zm-60.89 299.85h-81.16v-25.8h81.16zm62.23-274.13-12.87 125.35c-1.81 17.61-8.89 32.13-21.65 44.37l-32.6 31.27c-6.54 6.28-10.06 14.39-10.17 23.42l-.11 7.94h-50.48v-33.7c.83-50.83 28.07-75.27 62.55-106.21 5.35-4.8 10.88-9.76 16.43-14.94 2.4-2.24 5.7-3.9 7.77-1.86 1.84 1.81 2.03 5.72-1.88 10.03l-44.73 49.29c-2.97 3.27-2.72 8.33.55 11.29s8.32 2.72 11.29-.55l44.73-49.29c10.5-11.56 8.59-24.92 1.27-32.15-.08-.08-.17-.16-.25-.23l18.67-63.83c2.34-7.99 5.57-10.52 7.07-10.22 1.92.37 5.02 4.04 4.41 10.02zm-232.22 232.35h-3.15v-33.76c0-.04 0-.08 0-.13-.92-57.87-33.46-87.05-67.91-117.95-5.28-4.74-10.75-9.64-16.18-14.71-4.82-4.49-9.83-6.6-14.51-7.02l-18.48-63.08c-5.39-18.41-16.69-23.13-25.47-21.42-11 2.15-18.57 14.16-17.23 27.34l12.87 125.34c2.18 21.51 10.85 39.27 26.49 54.29l32.59 31.26c3.48 3.34 5.2 7.3 5.25 12.12l.11 7.71h-2.8c-6.81 0-12.36 5.54-12.36 12.36v33.08c0 6.8 5.54 12.33 12.36 12.33h88.41c6.81 0 12.36-5.53 12.36-12.33v-33.08c0-6.81-5.54-12.35-12.35-12.35zm-69.74-7.93c-.11-9.05-3.63-17.16-10.17-23.44l-32.6-31.26c-12.78-12.27-19.87-26.78-21.65-44.37l-12.86-125.35c-.61-5.99 2.49-9.66 4.39-10.03 1.48-.28 4.71 2.23 7.05 10.22l18.7 63.83c-.08.08-.16.15-.24.23-7.32 7.22-9.24 20.59 1.26 32.16l44.73 49.29c2.97 3.27 8.02 3.51 11.29.55 3.27-2.97 3.51-8.02.55-11.29l-44.73-49.3c-3.91-4.3-3.71-8.22-1.87-10.03 2.06-2.03 5.34-.37 7.74 1.86 5.55 5.17 11.07 10.13 16.41 14.92 34.51 30.95 61.77 55.39 62.6 106.24v33.7h-50.49zm66.11 49.71h-81.16v-25.8h81.16zm116.87-12.42c0 4.42-3.58 7.99-7.99 7.99h-.82c-4.42 0-7.99-3.58-7.99-7.99s3.58-7.99 7.99-7.99h.82c4.41 0 7.99 3.58 7.99 7.99zm-124.5 0c0 4.42-3.58 7.99-7.99 7.99h-.82c-4.42 0-7.99-3.58-7.99-7.99s3.58-7.99 7.99-7.99h.82c4.41 0 7.99 3.58 7.99 7.99zm103.02-254.85 75.58-75.6c34.96-34.96 34.96-91.83 0-126.79-18.12-18.11-41.55-27.43-66.03-26.22-21.05 1.04-41.63 9.69-58.71 24.55-17.08-14.86-37.66-23.51-58.71-24.55-24.47-1.2-47.91 8.11-66.02 26.22-16.88 16.87-26.18 39.38-26.18 63.4s9.3 46.53 26.17 63.39l5.76 5.76c.22.25.45.48.7.7l102.6 102.63c4.32 4.3 9.99 6.45 15.67 6.45s11.36-2.15 15.69-6.46l33.38-33.39c.04-.03.07-.06.1-.09zm19.69-127.57c0-6.86 5.58-12.44 12.44-12.44s12.44 5.58 12.44 12.44-5.58 12.44-12.44 12.44c-6.85 0-12.44-5.58-12.44-12.44zm33.12 52.13-52.75 52.77c-1.51-13.65-2.22-24.06-1.9-26.43 3.29-20.3 17.58-35.04 33.98-35.04 7.56 0 14.71 3.05 20.67 8.7zm-236.89-63.55c0-19.74 7.63-38.24 21.49-52.09 14.47-14.47 32.43-21.66 50.76-21.66 19.89 0 40.23 8.46 57.02 25.26 3.12 3.12 8.18 3.12 11.3 0 32.27-32.27 77.59-33.78 107.78-3.6 28.72 28.72 28.72 75.46 0 104.18l-.16.16c-7.49-7.17-16.57-11.69-26.19-12.99 12.91-2.68 22.65-14.14 22.65-27.84 0-15.68-12.75-28.43-28.43-28.43s-28.43 12.75-28.43 28.43c0 13.7 9.74 25.16 22.66 27.84-21.76 2.94-39.8 22.24-43.98 48.09-.1.64-.17 1.46-.2 2.4-7.24-6.72-16.04-11.13-25.56-12.42 12.92-2.68 22.65-14.14 22.65-27.84 0-15.68-12.75-28.43-28.43-28.43s-28.43 12.75-28.43 28.43c0 13.7 9.74 25.16 22.65 27.84-9.53 1.29-18.34 5.71-25.59 12.45-.05-.96-.12-1.79-.22-2.44-4.16-25.84-22.19-45.14-43.95-48.08 12.92-2.68 22.65-14.14 22.65-27.84 0-15.68-12.75-28.43-28.43-28.43s-28.43 12.75-28.43 28.43c0 13.7 9.73 25.16 22.65 27.84-9.61 1.3-18.69 5.82-26.17 12.98l-.15-.15c-13.88-13.85-21.51-32.35-21.51-52.09zm122.48 49.49c0-6.86 5.58-12.44 12.44-12.44s12.44 5.58 12.44 12.44-5.58 12.44-12.44 12.44-12.44-5.58-12.44-12.44zm-81.33-38.07c0-6.86 5.58-12.44 12.44-12.44s12.44 5.58 12.44 12.44-5.58 12.44-12.44 12.44-12.44-5.58-12.44-12.44zm46.39 78.47c.36 2.41-.17 13.2-1.38 26.89l-53.23-53.24c5.96-5.64 13.11-8.69 20.66-8.69 16.41 0 30.69 14.73 33.95 35.04zm51.78 71.26c-2.42 2.41-6.37 2.41-8.78.01l-29.75-29.76c.16-1.55.36-3.5.58-5.72 3.95-19.12 17.77-32.77 33.55-32.77 16.4 0 30.69 14.74 33.98 35.04.14.89.44 1.72.84 2.48.01.09.02.17.03.26z" fill="url(#SVGID_1_)"/></svg>