<svg clip-rule="evenodd" fill-rule="evenodd" height="512" stroke-linejoin="round" stroke-miterlimit="2" viewBox="0 0 32 32" width="512" xmlns="http://www.w3.org/2000/svg" xmlns:xlink="http://www.w3.org/1999/xlink"><linearGradient id="_Linear1" gradientTransform="matrix(27.977 -27.858 27.858 27.977 50.025 77.999)" gradientUnits="userSpaceOnUse" x1="0" x2="1" y1="0" y2="0"><stop offset="0" stop-color="#cb01ff"/><stop offset="1" stop-color="#34cbff"/></linearGradient><g transform="translate(-48 -48)"><g id="Layer2"><path d="m63.882 60.63 4.083-4.083c-.188-.557-.29-1.153-.29-1.773 0-3.064 2.488-5.551 5.551-5.551.636 0 1.247.107 1.816.305.163.056.285.192.324.36.038.168-.012.344-.134.466 0 0-1.642 1.641-2.634 2.633-.212.212-.212.556 0 .768.497.497 1.15 1.15 1.647 1.647.212.212.556.212.768 0 .992-.992 2.633-2.634 2.633-2.634.122-.122.298-.172.466-.134.168.039.304.161.36.324.198.569.305 1.18.305 1.816 0 3.063-2.487 5.551-5.551 5.551-.62 0-1.216-.102-1.773-.29l-3.73 3.73c3.405 3.474 6.912 6.837 10.433 10.184.077.073.129.169.147.274.241 1.347.019 2.407-.539 3.131-.572.743-1.51 1.164-2.771 1.146-.02 0-.04-.002-.06-.005-.729-.098-1.162-.315-1.436-.601-.396-.413-.478-1.024-.497-1.883-.008-.35-.196-.636-.466-.93-.348-.38-.828-.755-1.355-1.198-2.346-1.969-3.855-3.619-6.54-7.034l-4.604 4.604c.188.557.29 1.153.29 1.773 0 3.064-2.488 5.551-5.551 5.551-.636 0-1.247-.107-1.816-.305-.163-.056-.285-.192-.324-.36-.038-.168.012-.344.134-.466 0 0 1.642-1.641 2.634-2.633.212-.212.212-.556 0-.768-.497-.497-1.15-1.15-1.647-1.647-.212-.212-.556-.212-.768 0-.992.992-2.633 2.634-2.633 2.634-.122.122-.298.172-.466.134-.168-.039-.304-.161-.36-.324-.198-.569-.305-1.18-.305-1.816 0-3.063 2.487-5.551 5.551-5.551.62 0 1.216.102 1.773.29l4.726-4.726c-.952-.947-1.905-1.851-2.602-2.459-.104-.091-.166-.22-.171-.358s.047-.272.144-.37l2.5-2.529c.097-.098.23-.152.368-.148.138.003.268.063.36.166.804.897 1.616 1.783 2.437 2.662zm-6.855 8.269 11.872-11.872c.142-.142.185-.356.11-.542-.215-.528-.334-1.106-.334-1.711 0-2.512 2.04-4.551 4.551-4.551.229 0 .453.017.673.05 0 0-2.008 2.007-2.008 2.007-.603.603-.603 1.58 0 2.183.497.496 1.15 1.149 1.646 1.646.603.603 1.58.603 2.183 0 0 0 2.007-2.008 2.007-2.008.033.22.05.444.05.673 0 2.511-2.039 4.551-4.551 4.551-.605 0-1.183-.119-1.711-.334-.186-.075-.4-.032-.542.11l-11.872 11.872c-.142.142-.185.356-.11.542.215.528.334 1.106.334 1.711 0 2.512-2.04 4.551-4.551 4.551-.229 0-.453-.017-.673-.05 0 0 2.008-2.007 2.008-2.007.603-.603.603-1.58 0-2.183-.497-.496-1.15-1.149-1.646-1.646-.603-.603-1.58-.603-2.183 0 0 0-2.007 2.008-2.007 2.008-.033-.22-.05-.444-.05-.673 0-2.511 2.039-4.551 4.551-4.551.605 0 1.183.119 1.711.334.186.075.4.032.542-.11zm8.366-2.708-.042-.054 1.665-1.665c3.373 3.441 6.843 6.772 10.329 10.086.14.931.021 1.675-.373 2.186-.397.515-1.062.763-1.931.756-.408-.056-.667-.136-.822-.297-.096-.1-.136-.23-.164-.383-.043-.235-.048-.511-.055-.831-.013-.586-.277-1.091-.729-1.584-.374-.407-.884-.813-1.45-1.288-2.304-1.934-3.78-3.557-6.428-6.926zm10.333 7.945-1.383-1.305c-.201-.189-.517-.18-.707.021-.189.201-.18.517.021.707l1.383 1.305c.2.189.517.18.707-.021.189-.201.18-.517-.021-.707zm-3.374-3.226-4.294-4.265c-.195-.194-.512-.193-.707.003-.194.195-.193.512.003.707l4.294 4.264c.195.195.512.194.707-.002.194-.196.193-.513-.003-.707zm-13.498-1.056 1.5-1.5c.195-.196.195-.512 0-.708-.196-.195-.512-.195-.708 0l-1.5 1.5c-.195.196-.195.512 0 .708.196.195.512.195.708 0zm4.057-4.058 3.135-3.135c.195-.195.195-.512 0-.707s-.512-.195-.707 0l-3.135 3.135c-.195.195-.195.512 0 .707s.512.195.707 0zm.691-4.886-1.623 1.622c-.799-.795-1.599-1.56-2.253-2.152l1.757-1.777c.7.776 1.406 1.545 2.119 2.307zm-13.046-3.19-.695.713c-.235.24-.365.563-.361.899s.141.656.381.89l1.91 1.866c.426.416 1.107.411 1.526-.012l.784-.79c.065-.066.12-.155.138-.257.017-.098.008-.148-.006-.225l-.001-.001c-.088-.335-.041-.642.162-.942.412-.607 1.233-1.026 2.028-.709.349.139.838.751.838.751.091.108.222.172.362.178.141.005.277-.048.375-.148l3.127-3.155c.099-.1.151-.236.144-.376-.006-.14-.071-.27-.178-.36 0 0-.493-.414-.839-1.005-.297-.506-.5-1.166.004-1.777 1.26-1.525 4.3-2.735 4.996-2.864.252-.047.428-.278.407-.534-.022-.257-.235-.454-.492-.458-6.129-.086-10.949.823-12.866 6.316-.034.098-.037.203-.009.302 0 0 .106.4-.137.794-.193.315-.592.599-1.331.762-.118.026-.211.086-.267.142zm.335 1.09 2.15 2.124s-.434.438-.434.438c-.032.032-.084.033-.117.001l-1.91-1.866c-.051-.049-.079-.116-.08-.186s.026-.138.076-.188zm17.072 1.934 1.634-1.634c.195-.195.195-.512 0-.707s-.512-.195-.707 0l-1.634 1.634c-.195.195-.195.512 0 .707s.512.195.707 0zm-5.469-10.302c-1.117.57-2.309 1.333-3.01 2.181-.674.816-.637 1.682-.338 2.429.228.57.62 1.061.914 1.379 0 0-2.413 2.434-2.413 2.434-.253-.246-.587-.536-.854-.642-1.259-.502-2.575.116-3.227 1.078-.106.157-.19.315-.251.476 0 0-1.46-1.484-1.46-1.484.593-.261.941-.612 1.151-.953.347-.564.324-1.136.283-1.416 1.499-4.126 4.876-5.266 9.209-5.483z" fill="url(#_Linear1)"/></g></g></svg>