<?xml version="1.0" encoding="UTF-8" standalone="no"?>
<!DOCTYPE svg PUBLIC "-//W3C//DTD SVG 1.1//EN"
 "http://www.w3.org/Graphics/SVG/1.1/DTD/svg11.dtd">
<!-- Generated by graphviz version 12.2.1 (20241206.2353)
 -->
<!-- Title: G Pages: 1 -->
<svg width="834pt" height="221pt"
 viewBox="0.00 0.00 834.25 221.00" xmlns="http://www.w3.org/2000/svg" xmlns:xlink="http://www.w3.org/1999/xlink">
<g id="graph0" class="graph" transform="scale(1 1) rotate(0) translate(4 217)">
<title>G</title>
<polygon fill="white" stroke="none" points="-4,4 -4,-217 830.25,-217 830.25,4 -4,4"/>
<!-- B1_3 -->
<g id="B1_3" class="node">
<title>B1_3</title>
<ellipse fill="green" stroke="black" cx="405.38" cy="-18" rx="127.61" ry="18"/>
<text text-anchor="middle" x="405.38" y="-12.95" font-family="Times,serif" font-size="14.00">ver: 1 idx: 3 key:0x03 ht:2 sz:4</text>
</g>
<!-- B1_1 -->
<g id="B1_1" class="node">
<title>B1_1</title>
<ellipse fill="green" stroke="black" cx="269.38" cy="-106.5" rx="127.61" ry="18"/>
<text text-anchor="middle" x="269.38" y="-101.45" font-family="Times,serif" font-size="14.00">ver: 1 idx: 1 key:0x02 ht:1 sz:2</text>
</g>
<!-- B1_3&#45;&gt;B1_1 -->
<g id="edge1" class="edge">
<title>B1_3&#45;&gt;B1_1</title>
<path fill="none" stroke="black" d="M378.83,-35.88C357.86,-49.22 328.39,-67.96 305.31,-82.64"/>
<polygon fill="black" stroke="black" points="303.69,-79.53 297.13,-87.85 307.45,-85.43 303.69,-79.53"/>
<text text-anchor="middle" x="351.43" y="-57.2" font-family="Times,serif" font-size="14.00">l</text>
</g>
<!-- B1_2 -->
<g id="B1_2" class="node">
<title>B1_2</title>
<ellipse fill="green" stroke="black" cx="542.38" cy="-106.5" rx="127.61" ry="18"/>
<text text-anchor="middle" x="542.38" y="-101.45" font-family="Times,serif" font-size="14.00">ver: 1 idx: 2 key:0x04 ht:1 sz:2</text>
</g>
<!-- B1_3&#45;&gt;B1_2 -->
<g id="edge4" class="edge">
<title>B1_3&#45;&gt;B1_2</title>
<path fill="none" stroke="black" d="M432.12,-35.88C453.24,-49.22 482.93,-67.96 506.18,-82.64"/>
<polygon fill="black" stroke="black" points="504.1,-85.47 514.42,-87.85 507.84,-79.55 504.1,-85.47"/>
<text text-anchor="middle" x="488.4" y="-57.2" font-family="Times,serif" font-size="14.00">r</text>
</g>
<!-- L1_1 -->
<g id="L1_1" class="node">
<title>L1_1</title>
<polygon fill="green" stroke="black" points="190.75,-213 0,-213 0,-177 190.75,-177 190.75,-213"/>
<text text-anchor="middle" x="95.38" y="-189.95" font-family="Times,serif" font-size="14.00">ver: 1 idx: 1 key:0x01 val:0x0A</text>
</g>
<!-- B1_1&#45;&gt;L1_1 -->
<g id="edge2" class="edge">
<title>B1_1&#45;&gt;L1_1</title>
<path fill="none" stroke="black" d="M235.83,-124.18C208.71,-137.66 170.27,-156.77 140.46,-171.59"/>
<polygon fill="black" stroke="black" points="139.06,-168.37 131.67,-175.96 142.18,-174.64 139.06,-168.37"/>
<text text-anchor="middle" x="199.83" y="-145.7" font-family="Times,serif" font-size="14.00">l</text>
</g>
<!-- L1_2 -->
<g id="L1_2" class="node">
<title>L1_2</title>
<polygon fill="green" stroke="black" points="396.25,-213 208.5,-213 208.5,-177 396.25,-177 396.25,-213"/>
<text text-anchor="middle" x="302.38" y="-189.95" font-family="Times,serif" font-size="14.00">ver: 1 idx: 2 key:0x02 val:0x14</text>
</g>
<!-- B1_1&#45;&gt;L1_2 -->
<g id="edge3" class="edge">
<title>B1_1&#45;&gt;L1_2</title>
<path fill="none" stroke="black" d="M275.89,-124.59C280.43,-136.48 286.58,-152.59 291.81,-166.3"/>
<polygon fill="black" stroke="black" points="288.38,-167.14 295.22,-175.24 294.92,-164.64 288.38,-167.14"/>
<text text-anchor="middle" x="291.08" y="-145.7" font-family="Times,serif" font-size="14.00">r</text>
</g>
<!-- L1_3 -->
<g id="L1_3" class="node">
<title>L1_3</title>
<polygon fill="green" stroke="black" points="620,-213 430.75,-213 430.75,-177 620,-177 620,-213"/>
<text text-anchor="middle" x="525.38" y="-189.95" font-family="Times,serif" font-size="14.00">ver: 1 idx: 3 key:0x03 val:0x1E</text>
</g>
<!-- B1_2&#45;&gt;L1_3 -->
<g id="edge5" class="edge">
<title>B1_2&#45;&gt;L1_3</title>
<path fill="none" stroke="black" d="M539.02,-124.59C536.73,-136.24 533.64,-151.95 530.98,-165.48"/>
<polygon fill="black" stroke="black" points="527.57,-164.68 529.08,-175.16 534.44,-166.03 527.57,-164.68"/>
<text text-anchor="middle" x="537.27" y="-145.7" font-family="Times,serif" font-size="14.00">l</text>
</g>
<!-- L1_4 -->
<g id="L1_4" class="node">
<title>L1_4</title>
<polygon fill="green" stroke="black" points="826.25,-213 638.5,-213 638.5,-177 826.25,-177 826.25,-213"/>
<text text-anchor="middle" x="732.38" y="-189.95" font-family="Times,serif" font-size="14.00">ver: 1 idx: 4 key:0x04 val:0x28</text>
</g>
<!-- B1_2&#45;&gt;L1_4 -->
<g id="edge6" class="edge">
<title>B1_2&#45;&gt;L1_4</title>
<path fill="none" stroke="black" d="M579.01,-124.18C608.88,-137.78 651.32,-157.1 683.99,-171.97"/>
<polygon fill="black" stroke="black" points="682.3,-175.05 692.85,-176 685.2,-168.68 682.3,-175.05"/>
<text text-anchor="middle" x="656.64" y="-145.7" font-family="Times,serif" font-size="14.00">r</text>
</g>
</g>
</svg>
