<?xml version="1.0" encoding="UTF-8" standalone="no"?>
<!DOCTYPE svg PUBLIC "-//W3C//DTD SVG 1.1//EN"
 "http://www.w3.org/Graphics/SVG/1.1/DTD/svg11.dtd">
<!-- Generated by graphviz version 12.2.1 (20241206.2353)
 -->
<!-- Title: G Pages: 1 -->
<svg width="420pt" height="304pt"
 viewBox="0.00 0.00 420.49 304.00" xmlns="http://www.w3.org/2000/svg" xmlns:xlink="http://www.w3.org/1999/xlink">
<g id="graph0" class="graph" transform="scale(1 1) rotate(0) translate(4 300)">
<title>G</title>
<polygon fill="white" stroke="none" points="-4,4 -4,-300 416.49,-300 416.49,4 -4,4"/>
<g id="clust1" class="cluster">
<title>cluster_branches</title>
<polygon fill="none" stroke="black" points="8,-8 8,-162 314.49,-162 314.49,-8 8,-8"/>
<text text-anchor="middle" x="161.24" y="-144.7" font-family="Times,serif" font-size="14.00">Branches</text>
</g>
<g id="clust2" class="cluster">
<title>cluster_B1</title>
<polygon fill="green" stroke="green" points="16,-16 16,-129 306.49,-129 306.49,-16 16,-16"/>
<text text-anchor="middle" x="161.24" y="-111.7" font-family="Times,serif" font-size="14.00">Version 1</text>
</g>
<g id="clust3" class="cluster">
<title>cluster_leaves</title>
<polygon fill="none" stroke="black" points="13.41,-170 13.41,-288 404.49,-288 404.49,-170 13.41,-170"/>
<text text-anchor="middle" x="208.95" y="-270.7" font-family="Times,serif" font-size="14.00">Leaves</text>
</g>
<g id="clust4" class="cluster">
<title>cluster_L1</title>
<polygon fill="green" stroke="green" points="21.41,-178 21.41,-255 396.49,-255 396.49,-178 21.41,-178"/>
<text text-anchor="middle" x="208.95" y="-237.7" font-family="Times,serif" font-size="14.00">Version 1</text>
</g>
<!-- B1_1 -->
<g id="B1_1" class="node">
<title>B1_1</title>
<ellipse fill="none" stroke="black" cx="56.41" cy="-60" rx="32.41" ry="18"/>
<text text-anchor="start" x="40.66" y="-54.95" font-family="Times,serif" font-size="14.00">idx: 1</text>
</g>
<!-- B1_2 -->
<g id="B1_2" class="node">
<title>B1_2</title>
<ellipse fill="none" stroke="black" cx="157.24" cy="-60" rx="32.41" ry="18"/>
<text text-anchor="start" x="141.49" y="-54.95" font-family="Times,serif" font-size="14.00">idx: 2</text>
</g>
<!-- B1_1&#45;&gt;B1_2 -->
<!-- B1_3 -->
<g id="B1_3" class="node">
<title>B1_3</title>
<ellipse fill="none" stroke="black" cx="262.07" cy="-60" rx="32.41" ry="32.41"/>
<ellipse fill="none" stroke="black" cx="262.07" cy="-60" rx="36.41" ry="36.41"/>
<text text-anchor="start" x="246.32" y="-54.95" font-family="Times,serif" font-size="14.00">idx: 3</text>
</g>
<!-- B1_2&#45;&gt;B1_3 -->
<!-- L1_1 -->
<g id="L1_1" class="node">
<title>L1_1</title>
<polygon fill="none" stroke="black" points="83.41,-222 29.41,-222 29.41,-186 83.41,-186 83.41,-222"/>
<text text-anchor="start" x="40.66" y="-198.95" font-family="Times,serif" font-size="14.00">idx: 1</text>
</g>
<!-- L1_2 -->
<g id="L1_2" class="node">
<title>L1_2</title>
<polygon fill="none" stroke="black" points="184.24,-222 130.24,-222 130.24,-186 184.24,-186 184.24,-222"/>
<text text-anchor="start" x="141.49" y="-198.95" font-family="Times,serif" font-size="14.00">idx: 2</text>
</g>
<!-- L1_1&#45;&gt;L1_2 -->
<!-- L1_3 -->
<g id="L1_3" class="node">
<title>L1_3</title>
<polygon fill="none" stroke="black" points="289.07,-222 235.07,-222 235.07,-186 289.07,-186 289.07,-222"/>
<text text-anchor="start" x="246.32" y="-198.95" font-family="Times,serif" font-size="14.00">idx: 3</text>
</g>
<!-- L1_2&#45;&gt;L1_3 -->
<!-- L1_4 -->
<g id="L1_4" class="node">
<title>L1_4</title>
<polygon fill="none" stroke="black" points="388.49,-222 334.49,-222 334.49,-186 388.49,-186 388.49,-222"/>
<text text-anchor="start" x="345.74" y="-198.95" font-family="Times,serif" font-size="14.00">idx: 4</text>
</g>
<!-- L1_3&#45;&gt;L1_4 -->
</g>
</svg>
