<?xml version="1.0" encoding="UTF-8" standalone="no"?>
<!DOCTYPE svg PUBLIC "-//W3C//DTD SVG 1.1//EN"
 "http://www.w3.org/Graphics/SVG/1.1/DTD/svg11.dtd">
<!-- Generated by graphviz version 12.2.1 (20241206.2353)
 -->
<!-- Title: G Pages: 1 -->
<svg width="963pt" height="310pt"
 viewBox="0.00 0.00 963.38 309.50" xmlns="http://www.w3.org/2000/svg" xmlns:xlink="http://www.w3.org/1999/xlink">
<g id="graph0" class="graph" transform="scale(1 1) rotate(0) translate(4 305.5)">
<title>G</title>
<polygon fill="white" stroke="none" points="-4,4 -4,-305.5 959.38,-305.5 959.38,4 -4,4"/>
<!-- B2_4 -->
<g id="B2_4" class="node">
<title>B2_4</title>
<ellipse fill="red" stroke="black" cx="405.38" cy="-18" rx="127.61" ry="18"/>
<text text-anchor="middle" x="405.38" y="-12.95" font-family="Times,serif" font-size="14.00" fill="white">ver: 2 idx: 4 key:0x04 ht:3 sz:5</text>
</g>
<!-- B2_1 -->
<g id="B2_1" class="node">
<title>B2_1</title>
<ellipse fill="red" stroke="black" cx="269.38" cy="-106.5" rx="127.61" ry="18"/>
<text text-anchor="middle" x="269.38" y="-101.45" font-family="Times,serif" font-size="14.00" fill="white">ver: 2 idx: 1 key:0x02 ht:1 sz:2</text>
</g>
<!-- B2_4&#45;&gt;B2_1 -->
<g id="edge1" class="edge">
<title>B2_4&#45;&gt;B2_1</title>
<path fill="none" stroke="black" d="M378.83,-35.88C357.86,-49.22 328.39,-67.96 305.31,-82.64"/>
<polygon fill="black" stroke="black" points="303.69,-79.53 297.13,-87.85 307.45,-85.43 303.69,-79.53"/>
<text text-anchor="middle" x="351.43" y="-57.2" font-family="Times,serif" font-size="14.00">l</text>
</g>
<!-- B2_3 -->
<g id="B2_3" class="node">
<title>B2_3</title>
<ellipse fill="red" stroke="black" cx="542.38" cy="-106.5" rx="127.61" ry="18"/>
<text text-anchor="middle" x="542.38" y="-101.45" font-family="Times,serif" font-size="14.00" fill="white">ver: 2 idx: 3 key:0x05 ht:2 sz:3</text>
</g>
<!-- B2_4&#45;&gt;B2_3 -->
<g id="edge4" class="edge">
<title>B2_4&#45;&gt;B2_3</title>
<path fill="none" stroke="black" d="M432.12,-35.88C453.24,-49.22 482.93,-67.96 506.18,-82.64"/>
<polygon fill="black" stroke="black" points="504.1,-85.47 514.42,-87.85 507.84,-79.55 504.1,-85.47"/>
<text text-anchor="middle" x="488.4" y="-57.2" font-family="Times,serif" font-size="14.00">r</text>
</g>
<!-- L1_1 -->
<g id="L1_1" class="node">
<title>L1_1</title>
<polygon fill="green" stroke="black" points="190.75,-213 0,-213 0,-177 190.75,-177 190.75,-213"/>
<text text-anchor="middle" x="95.38" y="-189.95" font-family="Times,serif" font-size="14.00">ver: 1 idx: 1 key:0x01 val:0x0A</text>
</g>
<!-- B2_1&#45;&gt;L1_1 -->
<g id="edge2" class="edge">
<title>B2_1&#45;&gt;L1_1</title>
<path fill="none" stroke="black" d="M235.83,-124.18C208.71,-137.66 170.27,-156.77 140.46,-171.59"/>
<polygon fill="black" stroke="black" points="139.06,-168.37 131.67,-175.96 142.18,-174.64 139.06,-168.37"/>
<text text-anchor="middle" x="199.83" y="-145.7" font-family="Times,serif" font-size="14.00">l</text>
</g>
<!-- L2_1 -->
<g id="L2_1" class="node">
<title>L2_1</title>
<polygon fill="red" stroke="black" points="396.25,-213 208.5,-213 208.5,-177 396.25,-177 396.25,-213"/>
<text text-anchor="middle" x="302.38" y="-189.95" font-family="Times,serif" font-size="14.00" fill="white">ver: 2 idx: 1 key:0x02 val:0x19</text>
</g>
<!-- B2_1&#45;&gt;L2_1 -->
<g id="edge3" class="edge">
<title>B2_1&#45;&gt;L2_1</title>
<path fill="none" stroke="black" d="M275.89,-124.59C280.43,-136.48 286.58,-152.59 291.81,-166.3"/>
<polygon fill="black" stroke="black" points="288.38,-167.14 295.22,-175.24 294.92,-164.64 288.38,-167.14"/>
<text text-anchor="middle" x="291.08" y="-145.7" font-family="Times,serif" font-size="14.00">r</text>
</g>
<!-- L1_4 -->
<g id="L1_4" class="node">
<title>L1_4</title>
<polygon fill="green" stroke="black" points="612.25,-213 424.5,-213 424.5,-177 612.25,-177 612.25,-213"/>
<text text-anchor="middle" x="518.38" y="-189.95" font-family="Times,serif" font-size="14.00">ver: 1 idx: 4 key:0x04 val:0x28</text>
</g>
<!-- B2_3&#45;&gt;L1_4 -->
<g id="edge5" class="edge">
<title>B2_3&#45;&gt;L1_4</title>
<path fill="none" stroke="black" d="M537.63,-124.59C534.37,-136.36 529.95,-152.27 526.17,-165.89"/>
<polygon fill="black" stroke="black" points="522.89,-164.62 523.59,-175.19 529.64,-166.49 522.89,-164.62"/>
<text text-anchor="middle" x="534.4" y="-145.7" font-family="Times,serif" font-size="14.00">l</text>
</g>
<!-- B2_2 -->
<g id="B2_2" class="node">
<title>B2_2</title>
<ellipse fill="red" stroke="black" cx="757.38" cy="-195" rx="127.61" ry="18"/>
<text text-anchor="middle" x="757.38" y="-189.95" font-family="Times,serif" font-size="14.00" fill="white">ver: 2 idx: 2 key:0x06 ht:1 sz:2</text>
</g>
<!-- B2_3&#45;&gt;B2_2 -->
<g id="edge6" class="edge">
<title>B2_3&#45;&gt;B2_2</title>
<path fill="none" stroke="black" d="M583.32,-123.97C618.29,-138.04 668.75,-158.34 706.34,-173.47"/>
<polygon fill="black" stroke="black" points="704.59,-176.54 715.18,-177.02 707.21,-170.04 704.59,-176.54"/>
<text text-anchor="middle" x="671.38" y="-145.7" font-family="Times,serif" font-size="14.00">r</text>
</g>
<!-- L2_2 -->
<g id="L2_2" class="node">
<title>L2_2</title>
<polygon fill="red" stroke="black" points="747.25,-301.5 559.5,-301.5 559.5,-265.5 747.25,-265.5 747.25,-301.5"/>
<text text-anchor="middle" x="653.38" y="-278.45" font-family="Times,serif" font-size="14.00" fill="white">ver: 2 idx: 2 key:0x05 val:0x32</text>
</g>
<!-- B2_2&#45;&gt;L2_2 -->
<g id="edge7" class="edge">
<title>B2_2&#45;&gt;L2_2</title>
<path fill="none" stroke="black" d="M736.83,-213.09C721.4,-225.92 700.06,-243.67 682.82,-258.01"/>
<polygon fill="black" stroke="black" points="680.85,-255.1 675.4,-264.18 685.33,-260.48 680.85,-255.1"/>
<text text-anchor="middle" x="716.57" y="-234.2" font-family="Times,serif" font-size="14.00">l</text>
</g>
<!-- L2_3 -->
<g id="L2_3" class="node">
<title>L2_3</title>
<polygon fill="red" stroke="black" points="955.38,-301.5 765.38,-301.5 765.38,-265.5 955.38,-265.5 955.38,-301.5"/>
<text text-anchor="middle" x="860.38" y="-278.45" font-family="Times,serif" font-size="14.00" fill="white">ver: 2 idx: 3 key:0x06 val:0x3C</text>
</g>
<!-- B2_2&#45;&gt;L2_3 -->
<g id="edge8" class="edge">
<title>B2_2&#45;&gt;L2_3</title>
<path fill="none" stroke="black" d="M777.72,-213.09C793,-225.92 814.14,-243.67 831.21,-258.01"/>
<polygon fill="black" stroke="black" points="828.65,-260.43 838.56,-264.18 833.15,-255.07 828.65,-260.43"/>
<text text-anchor="middle" x="820.35" y="-234.2" font-family="Times,serif" font-size="14.00">r</text>
</g>
</g>
</svg>
