<?xml version="1.0" encoding="UTF-8" standalone="no"?>
<!DOCTYPE svg PUBLIC "-//W3C//DTD SVG 1.1//EN"
 "http://www.w3.org/Graphics/SVG/1.1/DTD/svg11.dtd">
<!-- Generated by graphviz version 12.2.1 (20241206.2353)
 -->
<!-- Title: G Pages: 1 -->
<svg width="889pt" height="353pt"
 viewBox="0.00 0.00 888.85 353.00" xmlns="http://www.w3.org/2000/svg" xmlns:xlink="http://www.w3.org/1999/xlink">
<g id="graph0" class="graph" transform="scale(1 1) rotate(0) translate(4 349)">
<title>G</title>
<polygon fill="white" stroke="none" points="-4,4 -4,-349 884.85,-349 884.85,4 -4,4"/>
<g id="clust1" class="cluster">
<title>cluster_branches</title>
<polygon fill="none" stroke="black" points="8,-8 8,-211 872.85,-211 872.85,-8 8,-8"/>
<text text-anchor="middle" x="440.42" y="-193.7" font-family="Times,serif" font-size="14.00">Branches</text>
</g>
<g id="clust2" class="cluster">
<title>cluster_B1</title>
<polygon fill="green" stroke="green" points="16,-16 16,-178 453.53,-178 453.53,-16 16,-16"/>
<text text-anchor="middle" x="234.77" y="-160.7" font-family="Times,serif" font-size="14.00">Version 1</text>
</g>
<g id="clust3" class="cluster">
<title>cluster_B2</title>
<polygon fill="red" stroke="red" points="473.53,-41 473.53,-154 864.85,-154 864.85,-41 473.53,-41"/>
<text text-anchor="middle" x="669.19" y="-136.7" font-family="Times,serif" font-size="14.00" fill="white">Version 2</text>
</g>
<g id="clust4" class="cluster">
<title>cluster_leaves</title>
<polygon fill="none" stroke="black" points="37.92,-219 37.92,-337 863.43,-337 863.43,-219 37.92,-219"/>
<text text-anchor="middle" x="450.68" y="-319.7" font-family="Times,serif" font-size="14.00">Leaves</text>
</g>
<g id="clust5" class="cluster">
<title>cluster_L1</title>
<polygon fill="green" stroke="green" points="45.92,-227 45.92,-304 548.95,-304 548.95,-227 45.92,-227"/>
<text text-anchor="middle" x="297.43" y="-286.7" font-family="Times,serif" font-size="14.00">Version 1</text>
</g>
<g id="clust6" class="cluster">
<title>cluster_L2</title>
<polygon fill="red" stroke="red" points="579.78,-227 579.78,-304 855.43,-304 855.43,-227 579.78,-227"/>
<text text-anchor="middle" x="717.61" y="-286.7" font-family="Times,serif" font-size="14.00" fill="white">Version 2</text>
</g>
<!-- B1_1 -->
<g id="B1_1" class="node">
<title>B1_1</title>
<ellipse fill="none" stroke="black" stroke-dasharray="5,2" cx="80.92" cy="-85" rx="56.92" ry="25.46"/>
<text text-anchor="start" x="65.17" y="-86.7" font-family="Times,serif" font-size="14.00">idx: 1</text>
<text text-anchor="start" x="48.67" y="-72.7" font-family="Times,serif" font-size="14.00">orphaned: </text>
<text text-anchor="start" x="106.42" y="-72.7" font-family="Times,serif" font-weight="bold" font-size="14.00">2</text>
</g>
<!-- B1_2 -->
<g id="B1_2" class="node">
<title>B1_2</title>
<ellipse fill="none" stroke="black" stroke-dasharray="5,2" cx="230.77" cy="-85" rx="56.92" ry="25.46"/>
<text text-anchor="start" x="215.02" y="-86.7" font-family="Times,serif" font-size="14.00">idx: 2</text>
<text text-anchor="start" x="198.52" y="-72.7" font-family="Times,serif" font-size="14.00">orphaned: </text>
<text text-anchor="start" x="256.27" y="-72.7" font-family="Times,serif" font-weight="bold" font-size="14.00">2</text>
</g>
<!-- B1_1&#45;&gt;B1_2 -->
<!-- B1_3 -->
<g id="B1_3" class="node">
<title>B1_3</title>
<ellipse fill="none" stroke="black" stroke-dasharray="5,2" cx="384.61" cy="-85" rx="56.92" ry="56.92"/>
<ellipse fill="none" stroke="black" stroke-dasharray="5,2" cx="384.61" cy="-85" rx="60.92" ry="60.92"/>
<text text-anchor="start" x="368.86" y="-86.7" font-family="Times,serif" font-size="14.00">idx: 3</text>
<text text-anchor="start" x="352.36" y="-72.7" font-family="Times,serif" font-size="14.00">orphaned: </text>
<text text-anchor="start" x="410.11" y="-72.7" font-family="Times,serif" font-weight="bold" font-size="14.00">2</text>
</g>
<!-- B1_2&#45;&gt;B1_3 -->
<!-- B2_1 -->
<g id="B2_1" class="node">
<title>B2_1</title>
<ellipse fill="none" stroke="black" cx="513.95" cy="-85" rx="32.41" ry="18"/>
<text text-anchor="start" x="498.2" y="-79.95" font-family="Times,serif" font-size="14.00" fill="white">idx: 1</text>
</g>
<!-- B1_3&#45;&gt;B2_1 -->
<!-- B2_2 -->
<g id="B2_2" class="node">
<title>B2_2</title>
<ellipse fill="none" stroke="black" cx="614.78" cy="-85" rx="32.41" ry="18"/>
<text text-anchor="start" x="599.03" y="-79.95" font-family="Times,serif" font-size="14.00" fill="white">idx: 2</text>
</g>
<!-- B2_1&#45;&gt;B2_2 -->
<!-- B2_3 -->
<g id="B2_3" class="node">
<title>B2_3</title>
<ellipse fill="none" stroke="black" cx="715.61" cy="-85" rx="32.41" ry="18"/>
<text text-anchor="start" x="699.86" y="-79.95" font-family="Times,serif" font-size="14.00" fill="white">idx: 3</text>
</g>
<!-- B2_2&#45;&gt;B2_3 -->
<!-- B2_4 -->
<g id="B2_4" class="node">
<title>B2_4</title>
<ellipse fill="none" stroke="black" cx="820.43" cy="-85" rx="32.41" ry="32.41"/>
<ellipse fill="none" stroke="black" cx="820.43" cy="-85" rx="36.41" ry="36.41"/>
<text text-anchor="start" x="804.68" y="-79.95" font-family="Times,serif" font-size="14.00" fill="white">idx: 4</text>
</g>
<!-- B2_3&#45;&gt;B2_4 -->
<!-- L1_1 -->
<g id="L1_1" class="node">
<title>L1_1</title>
<polygon fill="none" stroke="black" points="107.92,-271 53.92,-271 53.92,-235 107.92,-235 107.92,-271"/>
<text text-anchor="start" x="65.17" y="-247.95" font-family="Times,serif" font-size="14.00">idx: 1</text>
</g>
<!-- L1_2 -->
<g id="L1_2" class="node">
<title>L1_2</title>
<polygon fill="none" stroke="black" stroke-dasharray="5,2" points="271.02,-271 190.52,-271 190.52,-235 271.02,-235 271.02,-271"/>
<text text-anchor="start" x="215.02" y="-254.7" font-family="Times,serif" font-size="14.00">idx: 2</text>
<text text-anchor="start" x="198.52" y="-240.7" font-family="Times,serif" font-size="14.00">orphaned: </text>
<text text-anchor="start" x="256.27" y="-240.7" font-family="Times,serif" font-weight="bold" font-size="14.00">2</text>
</g>
<!-- L1_1&#45;&gt;L1_2 -->
<!-- L1_3 -->
<g id="L1_3" class="node">
<title>L1_3</title>
<polygon fill="none" stroke="black" stroke-dasharray="5,2" points="424.86,-271 344.36,-271 344.36,-235 424.86,-235 424.86,-271"/>
<text text-anchor="start" x="368.86" y="-254.7" font-family="Times,serif" font-size="14.00">idx: 3</text>
<text text-anchor="start" x="352.36" y="-240.7" font-family="Times,serif" font-size="14.00">orphaned: </text>
<text text-anchor="start" x="410.11" y="-240.7" font-family="Times,serif" font-weight="bold" font-size="14.00">2</text>
</g>
<!-- L1_2&#45;&gt;L1_3 -->
<!-- L1_4 -->
<g id="L1_4" class="node">
<title>L1_4</title>
<polygon fill="none" stroke="black" points="540.95,-271 486.95,-271 486.95,-235 540.95,-235 540.95,-271"/>
<text text-anchor="start" x="498.2" y="-247.95" font-family="Times,serif" font-size="14.00">idx: 4</text>
</g>
<!-- L1_3&#45;&gt;L1_4 -->
<!-- L2_1 -->
<g id="L2_1" class="node">
<title>L2_1</title>
<polygon fill="none" stroke="black" points="641.78,-271 587.78,-271 587.78,-235 641.78,-235 641.78,-271"/>
<text text-anchor="start" x="599.03" y="-247.95" font-family="Times,serif" font-size="14.00" fill="white">idx: 1</text>
</g>
<!-- L1_4&#45;&gt;L2_1 -->
<!-- L2_2 -->
<g id="L2_2" class="node">
<title>L2_2</title>
<polygon fill="none" stroke="black" points="742.61,-271 688.61,-271 688.61,-235 742.61,-235 742.61,-271"/>
<text text-anchor="start" x="699.86" y="-247.95" font-family="Times,serif" font-size="14.00" fill="white">idx: 2</text>
</g>
<!-- L2_1&#45;&gt;L2_2 -->
<!-- L2_3 -->
<g id="L2_3" class="node">
<title>L2_3</title>
<polygon fill="none" stroke="black" points="847.43,-271 793.43,-271 793.43,-235 847.43,-235 847.43,-271"/>
<text text-anchor="start" x="804.68" y="-247.95" font-family="Times,serif" font-size="14.00" fill="white">idx: 3</text>
</g>
<!-- L2_2&#45;&gt;L2_3 -->
</g>
</svg>
