<?xml version="1.0" encoding="UTF-8" standalone="no"?>
<!DOCTYPE svg PUBLIC "-//W3C//DTD SVG 1.1//EN"
 "http://www.w3.org/Graphics/SVG/1.1/DTD/svg11.dtd">
<!-- Generated by graphviz version 12.2.1 (20241206.2353)
 -->
<!-- Title: G Pages: 1 -->
<svg width="1105pt" height="310pt"
 viewBox="0.00 0.00 1105.12 309.50" xmlns="http://www.w3.org/2000/svg" xmlns:xlink="http://www.w3.org/1999/xlink">
<g id="graph0" class="graph" transform="scale(1 1) rotate(0) translate(4 305.5)">
<title>G</title>
<polygon fill="white" stroke="none" points="-4,4 -4,-305.5 1101.12,-305.5 1101.12,4 -4,4"/>
<!-- B3_5 -->
<g id="B3_5" class="node">
<title>B3_5</title>
<ellipse fill="blue" stroke="black" cx="427.25" cy="-18" rx="127.61" ry="18"/>
<text text-anchor="middle" x="427.25" y="-12.95" font-family="Times,serif" font-size="14.00" fill="white">ver: 3 idx: 5 key:0x05 ht:3 sz:6</text>
</g>
<!-- B3_1 -->
<g id="B3_1" class="node">
<title>B3_1</title>
<ellipse fill="blue" stroke="black" cx="291.25" cy="-106.5" rx="127.61" ry="18"/>
<text text-anchor="middle" x="291.25" y="-101.45" font-family="Times,serif" font-size="14.00" fill="white">ver: 3 idx: 1 key:0x02 ht:1 sz:2</text>
</g>
<!-- B3_5&#45;&gt;B3_1 -->
<g id="edge1" class="edge">
<title>B3_5&#45;&gt;B3_1</title>
<path fill="none" stroke="black" d="M400.7,-35.88C379.74,-49.22 350.26,-67.96 327.18,-82.64"/>
<polygon fill="black" stroke="black" points="325.56,-79.53 319.01,-87.85 329.32,-85.43 325.56,-79.53"/>
<text text-anchor="middle" x="373.31" y="-57.2" font-family="Times,serif" font-size="14.00">l</text>
</g>
<!-- B3_4 -->
<g id="B3_4" class="node">
<title>B3_4</title>
<ellipse fill="blue" stroke="black" cx="564.25" cy="-106.5" rx="127.61" ry="18"/>
<text text-anchor="middle" x="564.25" y="-101.45" font-family="Times,serif" font-size="14.00" fill="white">ver: 3 idx: 4 key:0x07 ht:2 sz:4</text>
</g>
<!-- B3_5&#45;&gt;B3_4 -->
<g id="edge4" class="edge">
<title>B3_5&#45;&gt;B3_4</title>
<path fill="none" stroke="black" d="M453.99,-35.88C475.11,-49.22 504.8,-67.96 528.05,-82.64"/>
<polygon fill="black" stroke="black" points="525.97,-85.47 536.3,-87.85 529.71,-79.55 525.97,-85.47"/>
<text text-anchor="middle" x="510.27" y="-57.2" font-family="Times,serif" font-size="14.00">r</text>
</g>
<!-- L3_1 -->
<g id="L3_1" class="node">
<title>L3_1</title>
<polygon fill="blue" stroke="black" points="188.5,-213 0,-213 0,-177 188.5,-177 188.5,-213"/>
<text text-anchor="middle" x="94.25" y="-189.95" font-family="Times,serif" font-size="14.00" fill="white">ver: 3 idx: 1 key:0x01 val:0x0F</text>
</g>
<!-- B3_1&#45;&gt;L3_1 -->
<g id="edge2" class="edge">
<title>B3_1&#45;&gt;L3_1</title>
<path fill="none" stroke="black" d="M253.73,-123.97C222.67,-137.61 178.28,-157.1 144.21,-172.06"/>
<polygon fill="black" stroke="black" points="143.13,-168.72 135.38,-175.94 145.94,-175.12 143.13,-168.72"/>
<text text-anchor="middle" x="212.27" y="-145.7" font-family="Times,serif" font-size="14.00">l</text>
</g>
<!-- L2_1 -->
<g id="L2_1" class="node">
<title>L2_1</title>
<polygon fill="red" stroke="black" points="394.12,-213 206.38,-213 206.38,-177 394.12,-177 394.12,-213"/>
<text text-anchor="middle" x="300.25" y="-189.95" font-family="Times,serif" font-size="14.00" fill="white">ver: 2 idx: 1 key:0x02 val:0x19</text>
</g>
<!-- B3_1&#45;&gt;L2_1 -->
<g id="edge3" class="edge">
<title>B3_1&#45;&gt;L2_1</title>
<path fill="none" stroke="black" d="M293.03,-124.59C294.24,-136.24 295.88,-151.95 297.28,-165.48"/>
<polygon fill="black" stroke="black" points="293.77,-165.56 298.29,-175.14 300.73,-164.84 293.77,-165.56"/>
<text text-anchor="middle" x="298.81" y="-145.7" font-family="Times,serif" font-size="14.00">r</text>
</g>
<!-- B3_2 -->
<g id="B3_2" class="node">
<title>B3_2</title>
<ellipse fill="blue" stroke="black" cx="541.25" cy="-195" rx="127.61" ry="18"/>
<text text-anchor="middle" x="541.25" y="-189.95" font-family="Times,serif" font-size="14.00" fill="white">ver: 3 idx: 2 key:0x06 ht:1 sz:2</text>
</g>
<!-- B3_4&#45;&gt;B3_2 -->
<g id="edge5" class="edge">
<title>B3_4&#45;&gt;B3_2</title>
<path fill="none" stroke="black" d="M559.71,-124.59C556.58,-136.36 552.35,-152.27 548.72,-165.89"/>
<polygon fill="black" stroke="black" points="545.44,-164.62 546.25,-175.19 552.2,-166.42 545.44,-164.62"/>
<text text-anchor="middle" x="556.69" y="-145.7" font-family="Times,serif" font-size="14.00">l</text>
</g>
<!-- B3_3 -->
<g id="B3_3" class="node">
<title>B3_3</title>
<ellipse fill="blue" stroke="black" cx="814.25" cy="-195" rx="127.61" ry="18"/>
<text text-anchor="middle" x="814.25" y="-189.95" font-family="Times,serif" font-size="14.00" fill="white">ver: 3 idx: 3 key:0x08 ht:1 sz:2</text>
</g>
<!-- B3_4&#45;&gt;B3_3 -->
<g id="edge8" class="edge">
<title>B3_4&#45;&gt;B3_3</title>
<path fill="none" stroke="black" d="M610.98,-123.67C652.28,-137.96 712.66,-158.85 756.88,-174.15"/>
<polygon fill="black" stroke="black" points="755.72,-177.45 766.32,-177.42 758.01,-170.84 755.72,-177.45"/>
<text text-anchor="middle" x="713.89" y="-145.7" font-family="Times,serif" font-size="14.00">r</text>
</g>
<!-- L2_2 -->
<g id="L2_2" class="node">
<title>L2_2</title>
<polygon fill="red" stroke="black" points="444.12,-301.5 256.38,-301.5 256.38,-265.5 444.12,-265.5 444.12,-301.5"/>
<text text-anchor="middle" x="350.25" y="-278.45" font-family="Times,serif" font-size="14.00" fill="white">ver: 2 idx: 2 key:0x05 val:0x32</text>
</g>
<!-- B3_2&#45;&gt;L2_2 -->
<g id="edge6" class="edge">
<title>B3_2&#45;&gt;L2_2</title>
<path fill="none" stroke="black" d="M504.42,-212.68C474.39,-226.28 431.73,-245.6 398.89,-260.47"/>
<polygon fill="black" stroke="black" points="397.64,-257.19 389.98,-264.51 400.53,-263.57 397.64,-257.19"/>
<text text-anchor="middle" x="464.73" y="-234.2" font-family="Times,serif" font-size="14.00">l</text>
</g>
<!-- L2_3 -->
<g id="L2_3" class="node">
<title>L2_3</title>
<polygon fill="red" stroke="black" points="652.25,-301.5 462.25,-301.5 462.25,-265.5 652.25,-265.5 652.25,-301.5"/>
<text text-anchor="middle" x="557.25" y="-278.45" font-family="Times,serif" font-size="14.00" fill="white">ver: 2 idx: 3 key:0x06 val:0x3C</text>
</g>
<!-- B3_2&#45;&gt;L2_3 -->
<g id="edge7" class="edge">
<title>B3_2&#45;&gt;L2_3</title>
<path fill="none" stroke="black" d="M544.41,-213.09C546.57,-224.74 549.47,-240.45 551.97,-253.98"/>
<polygon fill="black" stroke="black" points="548.5,-254.46 553.77,-263.66 555.39,-253.19 548.5,-254.46"/>
<text text-anchor="middle" x="552.93" y="-234.2" font-family="Times,serif" font-size="14.00">r</text>
</g>
<!-- L3_2 -->
<g id="L3_2" class="node">
<title>L3_2</title>
<polygon fill="blue" stroke="black" points="891.12,-301.5 703.38,-301.5 703.38,-265.5 891.12,-265.5 891.12,-301.5"/>
<text text-anchor="middle" x="797.25" y="-278.45" font-family="Times,serif" font-size="14.00" fill="white">ver: 3 idx: 2 key:0x07 val:0x46</text>
</g>
<!-- B3_3&#45;&gt;L3_2 -->
<g id="edge9" class="edge">
<title>B3_3&#45;&gt;L3_2</title>
<path fill="none" stroke="black" d="M810.89,-213.09C808.6,-224.74 805.51,-240.45 802.85,-253.98"/>
<polygon fill="black" stroke="black" points="799.45,-253.18 800.95,-263.66 806.31,-254.53 799.45,-253.18"/>
<text text-anchor="middle" x="809.15" y="-234.2" font-family="Times,serif" font-size="14.00">l</text>
</g>
<!-- L3_3 -->
<g id="L3_3" class="node">
<title>L3_3</title>
<polygon fill="blue" stroke="black" points="1097.12,-301.5 909.38,-301.5 909.38,-265.5 1097.12,-265.5 1097.12,-301.5"/>
<text text-anchor="middle" x="1003.25" y="-278.45" font-family="Times,serif" font-size="14.00" fill="white">ver: 3 idx: 3 key:0x08 val:0x50</text>
</g>
<!-- B3_3&#45;&gt;L3_3 -->
<g id="edge10" class="edge">
<title>B3_3&#45;&gt;L3_3</title>
<path fill="none" stroke="black" d="M850.69,-212.68C880.41,-226.28 922.63,-245.6 955.12,-260.47"/>
<polygon fill="black" stroke="black" points="953.38,-263.52 963.93,-264.5 956.29,-257.16 953.38,-263.52"/>
<text text-anchor="middle" x="927.93" y="-234.2" font-family="Times,serif" font-size="14.00">r</text>
</g>
</g>
</svg>
