<?xml version="1.0" encoding="UTF-8" standalone="no"?>
<!DOCTYPE svg PUBLIC "-//W3C//DTD SVG 1.1//EN"
 "http://www.w3.org/Graphics/SVG/1.1/DTD/svg11.dtd">
<!-- Generated by graphviz version 12.2.1 (20241206.2353)
 -->
<!-- Title: G Pages: 1 -->
<svg width="1641pt" height="310pt"
 viewBox="0.00 0.00 1641.38 309.50" xmlns="http://www.w3.org/2000/svg" xmlns:xlink="http://www.w3.org/1999/xlink">
<g id="graph0" class="graph" transform="scale(1 1) rotate(0) translate(4 305.5)">
<title>G</title>
<polygon fill="white" stroke="none" points="-4,4 -4,-305.5 1637.38,-305.5 1637.38,4 -4,4"/>
<!-- B4_6 -->
<g id="B4_6" class="node">
<title>B4_6</title>
<ellipse fill="yellow" stroke="black" cx="782.88" cy="-18" rx="127.61" ry="18"/>
<text text-anchor="middle" x="782.88" y="-12.95" font-family="Times,serif" font-size="14.00">ver: 4 idx: 6 key:0x07 ht:3 sz:8</text>
</g>
<!-- B4_2 -->
<g id="B4_2" class="node">
<title>B4_2</title>
<ellipse fill="yellow" stroke="black" cx="609.88" cy="-106.5" rx="127.61" ry="18"/>
<text text-anchor="middle" x="609.88" y="-101.45" font-family="Times,serif" font-size="14.00">ver: 4 idx: 2 key:0x05 ht:2 sz:4</text>
</g>
<!-- B4_6&#45;&gt;B4_2 -->
<g id="edge1" class="edge">
<title>B4_6&#45;&gt;B4_2</title>
<path fill="none" stroke="black" d="M749.52,-35.68C722.2,-49.34 683.34,-68.77 653.55,-83.66"/>
<polygon fill="black" stroke="black" points="652.16,-80.45 644.78,-88.05 655.29,-86.71 652.16,-80.45"/>
<text text-anchor="middle" x="713.75" y="-57.2" font-family="Times,serif" font-size="14.00">l</text>
</g>
<!-- B4_5 -->
<g id="B4_5" class="node">
<title>B4_5</title>
<ellipse fill="yellow" stroke="black" cx="989.88" cy="-106.5" rx="127.61" ry="18"/>
<text text-anchor="middle" x="989.88" y="-101.45" font-family="Times,serif" font-size="14.00">ver: 4 idx: 5 key:0x09 ht:2 sz:4</text>
</g>
<!-- B4_6&#45;&gt;B4_5 -->
<g id="edge8" class="edge">
<title>B4_6&#45;&gt;B4_5</title>
<path fill="none" stroke="black" d="M822.3,-35.47C855.71,-49.44 903.82,-69.54 939.93,-84.63"/>
<polygon fill="black" stroke="black" points="938.27,-87.73 948.85,-88.36 940.97,-81.27 938.27,-87.73"/>
<text text-anchor="middle" x="907.17" y="-57.2" font-family="Times,serif" font-size="14.00">r</text>
</g>
<!-- B4_1 -->
<g id="B4_1" class="node">
<title>B4_1</title>
<ellipse fill="yellow" stroke="black" cx="299.88" cy="-195" rx="127.61" ry="18"/>
<text text-anchor="middle" x="299.88" y="-189.95" font-family="Times,serif" font-size="14.00">ver: 4 idx: 1 key:0x01 ht:1 sz:2</text>
</g>
<!-- B4_2&#45;&gt;B4_1 -->
<g id="edge2" class="edge">
<title>B4_2&#45;&gt;B4_1</title>
<path fill="none" stroke="black" d="M554.1,-123.06C501.47,-137.75 422.53,-159.78 366.59,-175.38"/>
<polygon fill="black" stroke="black" points="365.88,-171.95 357.19,-178.01 367.76,-178.69 365.88,-171.95"/>
<text text-anchor="middle" x="484.52" y="-145.7" font-family="Times,serif" font-size="14.00">l</text>
</g>
<!-- B3_2 -->
<g id="B3_2" class="node">
<title>B3_2</title>
<ellipse fill="blue" stroke="black" cx="609.88" cy="-195" rx="127.61" ry="18"/>
<text text-anchor="middle" x="609.88" y="-189.95" font-family="Times,serif" font-size="14.00" fill="white">ver: 3 idx: 2 key:0x06 ht:1 sz:2</text>
</g>
<!-- B4_2&#45;&gt;B3_2 -->
<g id="edge5" class="edge">
<title>B4_2&#45;&gt;B3_2</title>
<path fill="none" stroke="black" d="M609.88,-124.59C609.88,-136.24 609.88,-151.95 609.88,-165.48"/>
<polygon fill="black" stroke="black" points="606.38,-165.14 609.88,-175.14 613.38,-165.14 606.38,-165.14"/>
<text text-anchor="middle" x="612.12" y="-145.7" font-family="Times,serif" font-size="14.00">r</text>
</g>
<!-- L4_1 -->
<g id="L4_1" class="node">
<title>L4_1</title>
<polygon fill="yellow" stroke="black" points="187.75,-301.5 0,-301.5 0,-265.5 187.75,-265.5 187.75,-301.5"/>
<text text-anchor="middle" x="93.88" y="-278.45" font-family="Times,serif" font-size="14.00">ver: 4 idx: 1 key:0x00 val:0x05</text>
</g>
<!-- B4_1&#45;&gt;L4_1 -->
<g id="edge3" class="edge">
<title>B4_1&#45;&gt;L4_1</title>
<path fill="none" stroke="black" d="M260.64,-212.47C228.02,-226.17 181.34,-245.77 145.66,-260.76"/>
<polygon fill="black" stroke="black" points="144.7,-257.36 136.83,-264.46 147.41,-263.82 144.7,-257.36"/>
<text text-anchor="middle" x="217.2" y="-234.2" font-family="Times,serif" font-size="14.00">l</text>
</g>
<!-- L3_1 -->
<g id="L3_1" class="node">
<title>L3_1</title>
<polygon fill="blue" stroke="black" points="394.12,-301.5 205.62,-301.5 205.62,-265.5 394.12,-265.5 394.12,-301.5"/>
<text text-anchor="middle" x="299.88" y="-278.45" font-family="Times,serif" font-size="14.00" fill="white">ver: 3 idx: 1 key:0x01 val:0x0F</text>
</g>
<!-- B4_1&#45;&gt;L3_1 -->
<g id="edge4" class="edge">
<title>B4_1&#45;&gt;L3_1</title>
<path fill="none" stroke="black" d="M299.88,-213.09C299.88,-224.74 299.88,-240.45 299.88,-253.98"/>
<polygon fill="black" stroke="black" points="296.38,-253.64 299.88,-263.64 303.38,-253.64 296.38,-253.64"/>
<text text-anchor="middle" x="302.12" y="-234.2" font-family="Times,serif" font-size="14.00">r</text>
</g>
<!-- L2_2 -->
<g id="L2_2" class="node">
<title>L2_2</title>
<polygon fill="red" stroke="black" points="599.75,-301.5 412,-301.5 412,-265.5 599.75,-265.5 599.75,-301.5"/>
<text text-anchor="middle" x="505.88" y="-278.45" font-family="Times,serif" font-size="14.00" fill="white">ver: 2 idx: 2 key:0x05 val:0x32</text>
</g>
<!-- B3_2&#45;&gt;L2_2 -->
<g id="edge6" class="edge">
<title>B3_2&#45;&gt;L2_2</title>
<path fill="none" stroke="black" d="M589.33,-213.09C573.9,-225.92 552.56,-243.67 535.32,-258.01"/>
<polygon fill="black" stroke="black" points="533.35,-255.1 527.9,-264.18 537.83,-260.48 533.35,-255.1"/>
<text text-anchor="middle" x="569.07" y="-234.2" font-family="Times,serif" font-size="14.00">l</text>
</g>
<!-- L2_3 -->
<g id="L2_3" class="node">
<title>L2_3</title>
<polygon fill="red" stroke="black" points="807.88,-301.5 617.88,-301.5 617.88,-265.5 807.88,-265.5 807.88,-301.5"/>
<text text-anchor="middle" x="712.88" y="-278.45" font-family="Times,serif" font-size="14.00" fill="white">ver: 2 idx: 3 key:0x06 val:0x3C</text>
</g>
<!-- B3_2&#45;&gt;L2_3 -->
<g id="edge7" class="edge">
<title>B3_2&#45;&gt;L2_3</title>
<path fill="none" stroke="black" d="M630.22,-213.09C645.5,-225.92 666.64,-243.67 683.71,-258.01"/>
<polygon fill="black" stroke="black" points="681.15,-260.43 691.06,-264.18 685.65,-255.07 681.15,-260.43"/>
<text text-anchor="middle" x="672.85" y="-234.2" font-family="Times,serif" font-size="14.00">r</text>
</g>
<!-- B4_3 -->
<g id="B4_3" class="node">
<title>B4_3</title>
<ellipse fill="yellow" stroke="black" cx="989.88" cy="-195" rx="127.61" ry="18"/>
<text text-anchor="middle" x="989.88" y="-189.95" font-family="Times,serif" font-size="14.00">ver: 4 idx: 3 key:0x08 ht:1 sz:2</text>
</g>
<!-- B4_5&#45;&gt;B4_3 -->
<g id="edge9" class="edge">
<title>B4_5&#45;&gt;B4_3</title>
<path fill="none" stroke="black" d="M989.88,-124.59C989.88,-136.24 989.88,-151.95 989.88,-165.48"/>
<polygon fill="black" stroke="black" points="986.38,-165.14 989.88,-175.14 993.38,-165.14 986.38,-165.14"/>
<text text-anchor="middle" x="991.75" y="-145.7" font-family="Times,serif" font-size="14.00">l</text>
</g>
<!-- B4_4 -->
<g id="B4_4" class="node">
<title>B4_4</title>
<ellipse fill="yellow" stroke="black" cx="1332.88" cy="-195" rx="127.1" ry="18"/>
<text text-anchor="middle" x="1332.88" y="-189.95" font-family="Times,serif" font-size="14.00">ver: 4 idx: 4 key:0x0a ht:1 sz:2</text>
</g>
<!-- B4_5&#45;&gt;B4_4 -->
<g id="edge12" class="edge">
<title>B4_5&#45;&gt;B4_4</title>
<path fill="none" stroke="black" d="M1050.41,-122.77C1109.37,-137.64 1199,-160.24 1261.43,-175.98"/>
<polygon fill="black" stroke="black" points="1260.35,-179.32 1270.9,-178.37 1262.06,-172.53 1260.35,-179.32"/>
<text text-anchor="middle" x="1194.35" y="-145.7" font-family="Times,serif" font-size="14.00">r</text>
</g>
<!-- L3_2 -->
<g id="L3_2" class="node">
<title>L3_2</title>
<polygon fill="blue" stroke="black" points="1013.75,-301.5 826,-301.5 826,-265.5 1013.75,-265.5 1013.75,-301.5"/>
<text text-anchor="middle" x="919.88" y="-278.45" font-family="Times,serif" font-size="14.00" fill="white">ver: 3 idx: 2 key:0x07 val:0x46</text>
</g>
<!-- B4_3&#45;&gt;L3_2 -->
<g id="edge10" class="edge">
<title>B4_3&#45;&gt;L3_2</title>
<path fill="none" stroke="black" d="M976.05,-213.09C966.04,-225.45 952.35,-242.37 940.98,-256.42"/>
<polygon fill="black" stroke="black" points="938.44,-254 934.87,-263.97 943.88,-258.4 938.44,-254"/>
<text text-anchor="middle" x="963.02" y="-234.2" font-family="Times,serif" font-size="14.00">l</text>
</g>
<!-- L3_3 -->
<g id="L3_3" class="node">
<title>L3_3</title>
<polygon fill="blue" stroke="black" points="1219.75,-301.5 1032,-301.5 1032,-265.5 1219.75,-265.5 1219.75,-301.5"/>
<text text-anchor="middle" x="1125.88" y="-278.45" font-family="Times,serif" font-size="14.00" fill="white">ver: 3 idx: 3 key:0x08 val:0x50</text>
</g>
<!-- B4_3&#45;&gt;L3_3 -->
<g id="edge11" class="edge">
<title>B4_3&#45;&gt;L3_3</title>
<path fill="none" stroke="black" d="M1016.42,-212.88C1037.12,-226.05 1066.1,-244.48 1089.04,-259.07"/>
<polygon fill="black" stroke="black" points="1086.87,-261.84 1097.19,-264.25 1090.63,-255.93 1086.87,-261.84"/>
<text text-anchor="middle" x="1072.31" y="-234.2" font-family="Times,serif" font-size="14.00">r</text>
</g>
<!-- L4_2 -->
<g id="L4_2" class="node">
<title>L4_2</title>
<polygon fill="yellow" stroke="black" points="1428.25,-301.5 1237.5,-301.5 1237.5,-265.5 1428.25,-265.5 1428.25,-301.5"/>
<text text-anchor="middle" x="1332.88" y="-278.45" font-family="Times,serif" font-size="14.00">ver: 4 idx: 2 key:0x09 val:0x5A</text>
</g>
<!-- B4_4&#45;&gt;L4_2 -->
<g id="edge13" class="edge">
<title>B4_4&#45;&gt;L4_2</title>
<path fill="none" stroke="black" d="M1332.88,-213.09C1332.88,-224.74 1332.88,-240.45 1332.88,-253.98"/>
<polygon fill="black" stroke="black" points="1329.38,-253.64 1332.88,-263.64 1336.38,-253.64 1329.38,-253.64"/>
<text text-anchor="middle" x="1334.75" y="-234.2" font-family="Times,serif" font-size="14.00">l</text>
</g>
<!-- L4_3 -->
<g id="L4_3" class="node">
<title>L4_3</title>
<polygon fill="yellow" stroke="black" points="1633.38,-301.5 1446.38,-301.5 1446.38,-265.5 1633.38,-265.5 1633.38,-301.5"/>
<text text-anchor="middle" x="1539.88" y="-278.45" font-family="Times,serif" font-size="14.00">ver: 4 idx: 3 key:0x0a val:0x64</text>
</g>
<!-- B4_4&#45;&gt;L4_3 -->
<g id="edge14" class="edge">
<title>B4_4&#45;&gt;L4_3</title>
<path fill="none" stroke="black" d="M1372.3,-212.47C1405.07,-226.17 1451.99,-245.77 1487.84,-260.76"/>
<polygon fill="black" stroke="black" points="1486.14,-263.84 1496.72,-264.47 1488.84,-257.38 1486.14,-263.84"/>
<text text-anchor="middle" x="1457.17" y="-234.2" font-family="Times,serif" font-size="14.00">r</text>
</g>
</g>
</svg>
