<?xml version="1.0" encoding="UTF-8" standalone="no"?>
<!DOCTYPE svg PUBLIC "-//W3C//DTD SVG 1.1//EN"
 "http://www.w3.org/Graphics/SVG/1.1/DTD/svg11.dtd">
<!-- Generated by graphviz version 12.2.1 (20241206.2353)
 -->
<!-- Title: G Pages: 1 -->
<svg width="2406pt" height="353pt"
 viewBox="0.00 0.00 2406.09 353.00" xmlns="http://www.w3.org/2000/svg" xmlns:xlink="http://www.w3.org/1999/xlink">
<g id="graph0" class="graph" transform="scale(1 1) rotate(0) translate(4 349)">
<title>G</title>
<polygon fill="white" stroke="none" points="-4,4 -4,-349 2402.09,-349 2402.09,4 -4,4"/>
<g id="clust1" class="cluster">
<title>cluster_branches</title>
<polygon fill="none" stroke="black" points="8,-8 8,-211 2390.09,-211 2390.09,-8 8,-8"/>
<text text-anchor="middle" x="1199.04" y="-193.7" font-family="Times,serif" font-size="14.00">Branches</text>
</g>
<g id="clust2" class="cluster">
<title>cluster_B1</title>
<polygon fill="green" stroke="green" points="16,-16 16,-178 453.53,-178 453.53,-16 16,-16"/>
<text text-anchor="middle" x="234.77" y="-160.7" font-family="Times,serif" font-size="14.00">Version 1</text>
</g>
<g id="clust3" class="cluster">
<title>cluster_B2</title>
<polygon fill="red" stroke="red" points="473.53,-16 473.53,-178 1060.91,-178 1060.91,-16 473.53,-16"/>
<text text-anchor="middle" x="767.22" y="-160.7" font-family="Times,serif" font-size="14.00" fill="white">Version 2</text>
</g>
<g id="clust4" class="cluster">
<title>cluster_B3</title>
<polygon fill="blue" stroke="blue" points="1080.91,-16 1080.91,-178 1769.12,-178 1769.12,-16 1080.91,-16"/>
<text text-anchor="middle" x="1425.01" y="-160.7" font-family="Times,serif" font-size="14.00" fill="white">Version 3</text>
</g>
<g id="clust5" class="cluster">
<title>cluster_B4</title>
<polygon fill="yellow" stroke="yellow" points="1789.12,-41 1789.12,-154 2382.09,-154 2382.09,-41 1789.12,-41"/>
<text text-anchor="middle" x="2085.6" y="-136.7" font-family="Times,serif" font-size="14.00">Version 4</text>
</g>
<g id="clust6" class="cluster">
<title>cluster_leaves</title>
<polygon fill="none" stroke="black" points="24.67,-219 24.67,-337 1872.53,-337 1872.53,-219 24.67,-219"/>
<text text-anchor="middle" x="948.6" y="-319.7" font-family="Times,serif" font-size="14.00">Leaves</text>
</g>
<g id="clust7" class="cluster">
<title>cluster_L1</title>
<polygon fill="green" stroke="green" points="32.67,-227 32.67,-304 586.7,-304 586.7,-227 32.67,-227"/>
<text text-anchor="middle" x="309.69" y="-286.7" font-family="Times,serif" font-size="14.00">Version 1</text>
</g>
<g id="clust8" class="cluster">
<title>cluster_L2</title>
<polygon fill="red" stroke="red" points="640.05,-227 640.05,-304 1026.99,-304 1026.99,-227 640.05,-227"/>
<text text-anchor="middle" x="833.52" y="-286.7" font-family="Times,serif" font-size="14.00" fill="white">Version 2</text>
</g>
<g id="clust9" class="cluster">
<title>cluster_L3</title>
<polygon fill="blue" stroke="blue" points="1110.83,-227 1110.83,-304 1431.5,-304 1431.5,-227 1110.83,-227"/>
<text text-anchor="middle" x="1271.17" y="-286.7" font-family="Times,serif" font-size="14.00" fill="white">Version 3</text>
</g>
<g id="clust10" class="cluster">
<title>cluster_L4</title>
<polygon fill="yellow" stroke="yellow" points="1511.35,-227 1511.35,-304 1864.53,-304 1864.53,-227 1511.35,-227"/>
<text text-anchor="middle" x="1687.94" y="-286.7" font-family="Times,serif" font-size="14.00">Version 4</text>
</g>
<!-- B1_1 -->
<g id="B1_1" class="node">
<title>B1_1</title>
<ellipse fill="none" stroke="black" stroke-dasharray="5,2" cx="80.92" cy="-85" rx="56.92" ry="25.46"/>
<text text-anchor="start" x="65.17" y="-86.7" font-family="Times,serif" font-size="14.00">idx: 1</text>
<text text-anchor="start" x="48.67" y="-72.7" font-family="Times,serif" font-size="14.00">orphaned: </text>
<text text-anchor="start" x="106.42" y="-72.7" font-family="Times,serif" font-weight="bold" font-size="14.00">2</text>
</g>
<!-- B1_2 -->
<g id="B1_2" class="node">
<title>B1_2</title>
<ellipse fill="none" stroke="black" stroke-dasharray="5,2" cx="230.77" cy="-85" rx="56.92" ry="25.46"/>
<text text-anchor="start" x="215.02" y="-86.7" font-family="Times,serif" font-size="14.00">idx: 2</text>
<text text-anchor="start" x="198.52" y="-72.7" font-family="Times,serif" font-size="14.00">orphaned: </text>
<text text-anchor="start" x="256.27" y="-72.7" font-family="Times,serif" font-weight="bold" font-size="14.00">2</text>
</g>
<!-- B1_1&#45;&gt;B1_2 -->
<!-- B1_3 -->
<g id="B1_3" class="node">
<title>B1_3</title>
<ellipse fill="none" stroke="black" stroke-dasharray="5,2" cx="384.61" cy="-85" rx="56.92" ry="56.92"/>
<ellipse fill="none" stroke="black" stroke-dasharray="5,2" cx="384.61" cy="-85" rx="60.92" ry="60.92"/>
<text text-anchor="start" x="368.86" y="-86.7" font-family="Times,serif" font-size="14.00">idx: 3</text>
<text text-anchor="start" x="352.36" y="-72.7" font-family="Times,serif" font-size="14.00">orphaned: </text>
<text text-anchor="start" x="410.11" y="-72.7" font-family="Times,serif" font-weight="bold" font-size="14.00">2</text>
</g>
<!-- B1_2&#45;&gt;B1_3 -->
<!-- B2_1 -->
<g id="B2_1" class="node">
<title>B2_1</title>
<ellipse fill="none" stroke="black" stroke-dasharray="5,2" cx="538.45" cy="-85" rx="56.92" ry="25.46"/>
<text text-anchor="start" x="522.7" y="-86.7" font-family="Times,serif" font-size="14.00" fill="white">idx: 1</text>
<text text-anchor="start" x="506.2" y="-72.7" font-family="Times,serif" font-size="14.00" fill="white">orphaned: </text>
<text text-anchor="start" x="563.95" y="-72.7" font-family="Times,serif" font-weight="bold" font-size="14.00" fill="white">3</text>
</g>
<!-- B1_3&#45;&gt;B2_1 -->
<!-- B2_2 -->
<g id="B2_2" class="node">
<title>B2_2</title>
<ellipse fill="none" stroke="black" stroke-dasharray="5,2" cx="688.3" cy="-85" rx="56.92" ry="25.46"/>
<text text-anchor="start" x="672.55" y="-86.7" font-family="Times,serif" font-size="14.00" fill="white">idx: 2</text>
<text text-anchor="start" x="656.05" y="-72.7" font-family="Times,serif" font-size="14.00" fill="white">orphaned: </text>
<text text-anchor="start" x="713.8" y="-72.7" font-family="Times,serif" font-weight="bold" font-size="14.00" fill="white">3</text>
</g>
<!-- B2_1&#45;&gt;B2_2 -->
<!-- B2_3 -->
<g id="B2_3" class="node">
<title>B2_3</title>
<ellipse fill="none" stroke="black" stroke-dasharray="5,2" cx="838.14" cy="-85" rx="56.92" ry="25.46"/>
<text text-anchor="start" x="822.39" y="-86.7" font-family="Times,serif" font-size="14.00" fill="white">idx: 3</text>
<text text-anchor="start" x="805.89" y="-72.7" font-family="Times,serif" font-size="14.00" fill="white">orphaned: </text>
<text text-anchor="start" x="863.64" y="-72.7" font-family="Times,serif" font-weight="bold" font-size="14.00" fill="white">3</text>
</g>
<!-- B2_2&#45;&gt;B2_3 -->
<!-- B2_4 -->
<g id="B2_4" class="node">
<title>B2_4</title>
<ellipse fill="none" stroke="black" stroke-dasharray="5,2" cx="991.99" cy="-85" rx="56.92" ry="56.92"/>
<ellipse fill="none" stroke="black" stroke-dasharray="5,2" cx="991.99" cy="-85" rx="60.92" ry="60.92"/>
<text text-anchor="start" x="976.24" y="-86.7" font-family="Times,serif" font-size="14.00" fill="white">idx: 4</text>
<text text-anchor="start" x="959.74" y="-72.7" font-family="Times,serif" font-size="14.00" fill="white">orphaned: </text>
<text text-anchor="start" x="1017.49" y="-72.7" font-family="Times,serif" font-weight="bold" font-size="14.00" fill="white">3</text>
</g>
<!-- B2_3&#45;&gt;B2_4 -->
<!-- B3_1 -->
<g id="B3_1" class="node">
<title>B3_1</title>
<ellipse fill="none" stroke="black" stroke-dasharray="5,2" cx="1145.83" cy="-85" rx="56.92" ry="25.46"/>
<text text-anchor="start" x="1130.08" y="-86.7" font-family="Times,serif" font-size="14.00" fill="white">idx: 1</text>
<text text-anchor="start" x="1113.58" y="-72.7" font-family="Times,serif" font-size="14.00" fill="white">orphaned: </text>
<text text-anchor="start" x="1171.33" y="-72.7" font-family="Times,serif" font-weight="bold" font-size="14.00" fill="white">4</text>
</g>
<!-- B2_4&#45;&gt;B3_1 -->
<!-- B3_2 -->
<g id="B3_2" class="node">
<title>B3_2</title>
<ellipse fill="none" stroke="black" cx="1271.17" cy="-85" rx="32.41" ry="18"/>
<text text-anchor="start" x="1255.42" y="-79.95" font-family="Times,serif" font-size="14.00" fill="white">idx: 2</text>
</g>
<!-- B3_1&#45;&gt;B3_2 -->
<!-- B3_3 -->
<g id="B3_3" class="node">
<title>B3_3</title>
<ellipse fill="none" stroke="black" stroke-dasharray="5,2" cx="1396.5" cy="-85" rx="56.92" ry="25.46"/>
<text text-anchor="start" x="1380.75" y="-86.7" font-family="Times,serif" font-size="14.00" fill="white">idx: 3</text>
<text text-anchor="start" x="1364.25" y="-72.7" font-family="Times,serif" font-size="14.00" fill="white">orphaned: </text>
<text text-anchor="start" x="1422" y="-72.7" font-family="Times,serif" font-weight="bold" font-size="14.00" fill="white">4</text>
</g>
<!-- B3_2&#45;&gt;B3_3 -->
<!-- B3_4 -->
<g id="B3_4" class="node">
<title>B3_4</title>
<ellipse fill="none" stroke="black" stroke-dasharray="5,2" cx="1546.35" cy="-85" rx="56.92" ry="25.46"/>
<text text-anchor="start" x="1530.6" y="-86.7" font-family="Times,serif" font-size="14.00" fill="white">idx: 4</text>
<text text-anchor="start" x="1514.1" y="-72.7" font-family="Times,serif" font-size="14.00" fill="white">orphaned: </text>
<text text-anchor="start" x="1571.85" y="-72.7" font-family="Times,serif" font-weight="bold" font-size="14.00" fill="white">4</text>
</g>
<!-- B3_3&#45;&gt;B3_4 -->
<!-- B3_5 -->
<g id="B3_5" class="node">
<title>B3_5</title>
<ellipse fill="none" stroke="black" stroke-dasharray="5,2" cx="1700.19" cy="-85" rx="56.92" ry="56.92"/>
<ellipse fill="none" stroke="black" stroke-dasharray="5,2" cx="1700.19" cy="-85" rx="60.92" ry="60.92"/>
<text text-anchor="start" x="1684.44" y="-86.7" font-family="Times,serif" font-size="14.00" fill="white">idx: 5</text>
<text text-anchor="start" x="1667.94" y="-72.7" font-family="Times,serif" font-size="14.00" fill="white">orphaned: </text>
<text text-anchor="start" x="1725.69" y="-72.7" font-family="Times,serif" font-weight="bold" font-size="14.00" fill="white">4</text>
</g>
<!-- B3_4&#45;&gt;B3_5 -->
<!-- B4_1 -->
<g id="B4_1" class="node">
<title>B4_1</title>
<ellipse fill="none" stroke="black" cx="1829.53" cy="-85" rx="32.41" ry="18"/>
<text text-anchor="start" x="1813.78" y="-79.95" font-family="Times,serif" font-size="14.00">idx: 1</text>
</g>
<!-- B3_5&#45;&gt;B4_1 -->
<!-- B4_2 -->
<g id="B4_2" class="node">
<title>B4_2</title>
<ellipse fill="none" stroke="black" cx="1930.36" cy="-85" rx="32.41" ry="18"/>
<text text-anchor="start" x="1914.61" y="-79.95" font-family="Times,serif" font-size="14.00">idx: 2</text>
</g>
<!-- B4_1&#45;&gt;B4_2 -->
<!-- B4_3 -->
<g id="B4_3" class="node">
<title>B4_3</title>
<ellipse fill="none" stroke="black" cx="2031.19" cy="-85" rx="32.41" ry="18"/>
<text text-anchor="start" x="2015.44" y="-79.95" font-family="Times,serif" font-size="14.00">idx: 3</text>
</g>
<!-- B4_2&#45;&gt;B4_3 -->
<!-- B4_4 -->
<g id="B4_4" class="node">
<title>B4_4</title>
<ellipse fill="none" stroke="black" cx="2132.02" cy="-85" rx="32.41" ry="18"/>
<text text-anchor="start" x="2116.27" y="-79.95" font-family="Times,serif" font-size="14.00">idx: 4</text>
</g>
<!-- B4_3&#45;&gt;B4_4 -->
<!-- B4_5 -->
<g id="B4_5" class="node">
<title>B4_5</title>
<ellipse fill="none" stroke="black" cx="2232.85" cy="-85" rx="32.41" ry="18"/>
<text text-anchor="start" x="2217.1" y="-79.95" font-family="Times,serif" font-size="14.00">idx: 5</text>
</g>
<!-- B4_4&#45;&gt;B4_5 -->
<!-- B4_6 -->
<g id="B4_6" class="node">
<title>B4_6</title>
<ellipse fill="none" stroke="black" cx="2337.67" cy="-85" rx="32.41" ry="32.41"/>
<ellipse fill="none" stroke="black" cx="2337.67" cy="-85" rx="36.41" ry="36.41"/>
<text text-anchor="start" x="2321.92" y="-79.95" font-family="Times,serif" font-size="14.00">idx: 6</text>
</g>
<!-- B4_5&#45;&gt;B4_6 -->
<!-- L1_1 -->
<g id="L1_1" class="node">
<title>L1_1</title>
<polygon fill="none" stroke="black" stroke-dasharray="5,2" points="121.17,-271 40.67,-271 40.67,-235 121.17,-235 121.17,-271"/>
<text text-anchor="start" x="65.17" y="-254.7" font-family="Times,serif" font-size="14.00">idx: 1</text>
<text text-anchor="start" x="48.67" y="-240.7" font-family="Times,serif" font-size="14.00">orphaned: </text>
<text text-anchor="start" x="106.42" y="-240.7" font-family="Times,serif" font-weight="bold" font-size="14.00">3</text>
</g>
<!-- L1_2 -->
<g id="L1_2" class="node">
<title>L1_2</title>
<polygon fill="none" stroke="black" stroke-dasharray="5,2" points="271.02,-271 190.52,-271 190.52,-235 271.02,-235 271.02,-271"/>
<text text-anchor="start" x="215.02" y="-254.7" font-family="Times,serif" font-size="14.00">idx: 2</text>
<text text-anchor="start" x="198.52" y="-240.7" font-family="Times,serif" font-size="14.00">orphaned: </text>
<text text-anchor="start" x="256.27" y="-240.7" font-family="Times,serif" font-weight="bold" font-size="14.00">2</text>
</g>
<!-- L1_1&#45;&gt;L1_2 -->
<!-- L1_3 -->
<g id="L1_3" class="node">
<title>L1_3</title>
<polygon fill="none" stroke="black" stroke-dasharray="5,2" points="424.86,-271 344.36,-271 344.36,-235 424.86,-235 424.86,-271"/>
<text text-anchor="start" x="368.86" y="-254.7" font-family="Times,serif" font-size="14.00">idx: 3</text>
<text text-anchor="start" x="352.36" y="-240.7" font-family="Times,serif" font-size="14.00">orphaned: </text>
<text text-anchor="start" x="410.11" y="-240.7" font-family="Times,serif" font-weight="bold" font-size="14.00">2</text>
</g>
<!-- L1_2&#45;&gt;L1_3 -->
<!-- L1_4 -->
<g id="L1_4" class="node">
<title>L1_4</title>
<polygon fill="none" stroke="black" stroke-dasharray="5,2" points="578.7,-271 498.2,-271 498.2,-235 578.7,-235 578.7,-271"/>
<text text-anchor="start" x="522.7" y="-254.7" font-family="Times,serif" font-size="14.00">idx: 4</text>
<text text-anchor="start" x="506.2" y="-240.7" font-family="Times,serif" font-size="14.00">orphaned: </text>
<text text-anchor="start" x="563.95" y="-240.7" font-family="Times,serif" font-weight="bold" font-size="14.00">3</text>
</g>
<!-- L1_3&#45;&gt;L1_4 -->
<!-- L2_1 -->
<g id="L2_1" class="node">
<title>L2_1</title>
<polygon fill="none" stroke="black" stroke-dasharray="5,2" points="728.55,-271 648.05,-271 648.05,-235 728.55,-235 728.55,-271"/>
<text text-anchor="start" x="672.55" y="-254.7" font-family="Times,serif" font-size="14.00" fill="white">idx: 1</text>
<text text-anchor="start" x="656.05" y="-240.7" font-family="Times,serif" font-size="14.00" fill="white">orphaned: </text>
<text text-anchor="start" x="713.8" y="-240.7" font-family="Times,serif" font-weight="bold" font-size="14.00" fill="white">4</text>
</g>
<!-- L1_4&#45;&gt;L2_1 -->
<!-- L2_2 -->
<g id="L2_2" class="node">
<title>L2_2</title>
<polygon fill="none" stroke="black" points="865.14,-271 811.14,-271 811.14,-235 865.14,-235 865.14,-271"/>
<text text-anchor="start" x="822.39" y="-247.95" font-family="Times,serif" font-size="14.00" fill="white">idx: 2</text>
</g>
<!-- L2_1&#45;&gt;L2_2 -->
<!-- L2_3 -->
<g id="L2_3" class="node">
<title>L2_3</title>
<polygon fill="none" stroke="black" points="1018.99,-271 964.99,-271 964.99,-235 1018.99,-235 1018.99,-271"/>
<text text-anchor="start" x="976.24" y="-247.95" font-family="Times,serif" font-size="14.00" fill="white">idx: 3</text>
</g>
<!-- L2_2&#45;&gt;L2_3 -->
<!-- L3_1 -->
<g id="L3_1" class="node">
<title>L3_1</title>
<polygon fill="none" stroke="black" points="1172.83,-271 1118.83,-271 1118.83,-235 1172.83,-235 1172.83,-271"/>
<text text-anchor="start" x="1130.08" y="-247.95" font-family="Times,serif" font-size="14.00" fill="white">idx: 1</text>
</g>
<!-- L2_3&#45;&gt;L3_1 -->
<!-- L3_2 -->
<g id="L3_2" class="node">
<title>L3_2</title>
<polygon fill="none" stroke="black" points="1298.17,-271 1244.17,-271 1244.17,-235 1298.17,-235 1298.17,-271"/>
<text text-anchor="start" x="1255.42" y="-247.95" font-family="Times,serif" font-size="14.00" fill="white">idx: 2</text>
</g>
<!-- L3_1&#45;&gt;L3_2 -->
<!-- L3_3 -->
<g id="L3_3" class="node">
<title>L3_3</title>
<polygon fill="none" stroke="black" points="1423.5,-271 1369.5,-271 1369.5,-235 1423.5,-235 1423.5,-271"/>
<text text-anchor="start" x="1380.75" y="-247.95" font-family="Times,serif" font-size="14.00" fill="white">idx: 3</text>
</g>
<!-- L3_2&#45;&gt;L3_3 -->
<!-- L4_1 -->
<g id="L4_1" class="node">
<title>L4_1</title>
<polygon fill="none" stroke="black" points="1573.35,-271 1519.35,-271 1519.35,-235 1573.35,-235 1573.35,-271"/>
<text text-anchor="start" x="1530.6" y="-247.95" font-family="Times,serif" font-size="14.00">idx: 1</text>
</g>
<!-- L3_3&#45;&gt;L4_1 -->
<!-- L4_2 -->
<g id="L4_2" class="node">
<title>L4_2</title>
<polygon fill="none" stroke="black" points="1727.19,-271 1673.19,-271 1673.19,-235 1727.19,-235 1727.19,-271"/>
<text text-anchor="start" x="1684.44" y="-247.95" font-family="Times,serif" font-size="14.00">idx: 2</text>
</g>
<!-- L4_1&#45;&gt;L4_2 -->
<!-- L4_3 -->
<g id="L4_3" class="node">
<title>L4_3</title>
<polygon fill="none" stroke="black" points="1856.53,-271 1802.53,-271 1802.53,-235 1856.53,-235 1856.53,-271"/>
<text text-anchor="start" x="1813.78" y="-247.95" font-family="Times,serif" font-size="14.00">idx: 3</text>
</g>
<!-- L4_2&#45;&gt;L4_3 -->
</g>
</svg>
