<?xml version="1.0" encoding="UTF-8" standalone="no"?>
<!DOCTYPE svg PUBLIC "-//W3C//DTD SVG 1.1//EN"
 "http://www.w3.org/Graphics/SVG/1.1/DTD/svg11.dtd">
<!-- Generated by graphviz version 12.2.1 (20241206.2353)
 -->
<!-- Title: G Pages: 1 -->
<svg width="1993pt" height="398pt"
 viewBox="0.00 0.00 1993.38 398.00" xmlns="http://www.w3.org/2000/svg" xmlns:xlink="http://www.w3.org/1999/xlink">
<g id="graph0" class="graph" transform="scale(1 1) rotate(0) translate(4 394)">
<title>G</title>
<polygon fill="white" stroke="none" points="-4,4 -4,-394 1989.38,-394 1989.38,4 -4,4"/>
<!-- B5_8 -->
<g id="B5_8" class="node">
<title>B5_8</title>
<ellipse fill="purple" stroke="black" cx="838.88" cy="-18" rx="132.22" ry="18"/>
<text text-anchor="middle" x="838.88" y="-12.95" font-family="Times,serif" font-size="14.00" fill="white">ver: 5 idx: 8 key:0x07 ht:4 sz:11</text>
</g>
<!-- B5_3 -->
<g id="B5_3" class="node">
<title>B5_3</title>
<ellipse fill="purple" stroke="black" cx="649.88" cy="-106.5" rx="127.61" ry="18"/>
<text text-anchor="middle" x="649.88" y="-101.45" font-family="Times,serif" font-size="14.00" fill="white">ver: 5 idx: 3 key:0x05 ht:3 sz:5</text>
</g>
<!-- B5_8&#45;&gt;B5_3 -->
<g id="edge1" class="edge">
<title>B5_8&#45;&gt;B5_3</title>
<path fill="none" stroke="black" d="M802.43,-35.68C772.23,-49.5 729.12,-69.23 696.42,-84.2"/>
<polygon fill="black" stroke="black" points="695.22,-80.9 687.58,-88.24 698.13,-87.26 695.22,-80.9"/>
<text text-anchor="middle" x="763.18" y="-57.2" font-family="Times,serif" font-size="14.00">l</text>
</g>
<!-- B5_7 -->
<g id="B5_7" class="node">
<title>B5_7</title>
<ellipse fill="purple" stroke="black" cx="1071.88" cy="-106.5" rx="127.61" ry="18"/>
<text text-anchor="middle" x="1071.88" y="-101.45" font-family="Times,serif" font-size="14.00" fill="white">ver: 5 idx: 7 key:0x09 ht:3 sz:6</text>
</g>
<!-- B5_8&#45;&gt;B5_7 -->
<g id="edge10" class="edge">
<title>B5_8&#45;&gt;B5_7</title>
<path fill="none" stroke="black" d="M882.97,-35.37C921.12,-49.53 976.43,-70.07 1017.35,-85.26"/>
<polygon fill="black" stroke="black" points="1015.94,-88.47 1026.54,-88.67 1018.38,-81.91 1015.94,-88.47"/>
<text text-anchor="middle" x="978.49" y="-57.2" font-family="Times,serif" font-size="14.00">r</text>
</g>
<!-- B5_2 -->
<g id="B5_2" class="node">
<title>B5_2</title>
<ellipse fill="purple" stroke="black" cx="332.88" cy="-195" rx="127.61" ry="18"/>
<text text-anchor="middle" x="332.88" y="-189.95" font-family="Times,serif" font-size="14.00" fill="white">ver: 5 idx: 2 key:0x03 ht:2 sz:3</text>
</g>
<!-- B5_3&#45;&gt;B5_2 -->
<g id="edge2" class="edge">
<title>B5_3&#45;&gt;B5_2</title>
<path fill="none" stroke="black" d="M592.84,-123.06C538.83,-137.8 457.71,-159.94 400.48,-175.55"/>
<polygon fill="black" stroke="black" points="399.91,-172.08 391.18,-178.09 401.75,-178.83 399.91,-172.08"/>
<text text-anchor="middle" x="521.64" y="-145.7" font-family="Times,serif" font-size="14.00">l</text>
</g>
<!-- B3_2 -->
<g id="B3_2" class="node">
<title>B3_2</title>
<ellipse fill="blue" stroke="black" cx="649.88" cy="-195" rx="127.61" ry="18"/>
<text text-anchor="middle" x="649.88" y="-189.95" font-family="Times,serif" font-size="14.00" fill="white">ver: 3 idx: 2 key:0x06 ht:1 sz:2</text>
</g>
<!-- B5_3&#45;&gt;B3_2 -->
<g id="edge7" class="edge">
<title>B5_3&#45;&gt;B3_2</title>
<path fill="none" stroke="black" d="M649.88,-124.59C649.88,-136.24 649.88,-151.95 649.88,-165.48"/>
<polygon fill="black" stroke="black" points="646.38,-165.14 649.88,-175.14 653.38,-165.14 646.38,-165.14"/>
<text text-anchor="middle" x="652.12" y="-145.7" font-family="Times,serif" font-size="14.00">r</text>
</g>
<!-- L4_1 -->
<g id="L4_1" class="node">
<title>L4_1</title>
<polygon fill="yellow" stroke="black" points="187.75,-301.5 0,-301.5 0,-265.5 187.75,-265.5 187.75,-301.5"/>
<text text-anchor="middle" x="93.88" y="-278.45" font-family="Times,serif" font-size="14.00">ver: 4 idx: 1 key:0x00 val:0x05</text>
</g>
<!-- B5_2&#45;&gt;L4_1 -->
<g id="edge3" class="edge">
<title>B5_2&#45;&gt;L4_1</title>
<path fill="none" stroke="black" d="M287.92,-212.27C249.61,-226.14 194.27,-246.16 152.49,-261.29"/>
<polygon fill="black" stroke="black" points="151.54,-257.91 143.33,-264.6 153.93,-264.49 151.54,-257.91"/>
<text text-anchor="middle" x="236.66" y="-234.2" font-family="Times,serif" font-size="14.00">l</text>
</g>
<!-- B5_1 -->
<g id="B5_1" class="node">
<title>B5_1</title>
<ellipse fill="purple" stroke="black" cx="332.88" cy="-283.5" rx="127.61" ry="18"/>
<text text-anchor="middle" x="332.88" y="-278.45" font-family="Times,serif" font-size="14.00" fill="white">ver: 5 idx: 1 key:0x04 ht:1 sz:2</text>
</g>
<!-- B5_2&#45;&gt;B5_1 -->
<g id="edge4" class="edge">
<title>B5_2&#45;&gt;B5_1</title>
<path fill="none" stroke="black" d="M332.88,-213.09C332.88,-224.74 332.88,-240.45 332.88,-253.98"/>
<polygon fill="black" stroke="black" points="329.38,-253.64 332.88,-263.64 336.38,-253.64 329.38,-253.64"/>
<text text-anchor="middle" x="335.12" y="-234.2" font-family="Times,serif" font-size="14.00">r</text>
</g>
<!-- L5_1 -->
<g id="L5_1" class="node">
<title>L5_1</title>
<polygon fill="purple" stroke="black" points="322.75,-390 135,-390 135,-354 322.75,-354 322.75,-390"/>
<text text-anchor="middle" x="228.88" y="-366.95" font-family="Times,serif" font-size="14.00" fill="white">ver: 5 idx: 1 key:0x03 val:0x23</text>
</g>
<!-- B5_1&#45;&gt;L5_1 -->
<g id="edge5" class="edge">
<title>B5_1&#45;&gt;L5_1</title>
<path fill="none" stroke="black" d="M312.33,-301.59C296.9,-314.42 275.56,-332.17 258.32,-346.51"/>
<polygon fill="black" stroke="black" points="256.35,-343.6 250.9,-352.68 260.83,-348.98 256.35,-343.6"/>
<text text-anchor="middle" x="292.07" y="-322.7" font-family="Times,serif" font-size="14.00">l</text>
</g>
<!-- L5_2 -->
<g id="L5_2" class="node">
<title>L5_2</title>
<polygon fill="purple" stroke="black" points="531.25,-390 340.5,-390 340.5,-354 531.25,-354 531.25,-390"/>
<text text-anchor="middle" x="435.88" y="-366.95" font-family="Times,serif" font-size="14.00" fill="white">ver: 5 idx: 2 key:0x04 val:0x2D</text>
</g>
<!-- B5_1&#45;&gt;L5_2 -->
<g id="edge6" class="edge">
<title>B5_1&#45;&gt;L5_2</title>
<path fill="none" stroke="black" d="M353.22,-301.59C368.5,-314.42 389.64,-332.17 406.71,-346.51"/>
<polygon fill="black" stroke="black" points="404.15,-348.93 414.06,-352.68 408.65,-343.57 404.15,-348.93"/>
<text text-anchor="middle" x="395.85" y="-322.7" font-family="Times,serif" font-size="14.00">r</text>
</g>
<!-- L2_2 -->
<g id="L2_2" class="node">
<title>L2_2</title>
<polygon fill="red" stroke="black" points="665.75,-301.5 478,-301.5 478,-265.5 665.75,-265.5 665.75,-301.5"/>
<text text-anchor="middle" x="571.88" y="-278.45" font-family="Times,serif" font-size="14.00" fill="white">ver: 2 idx: 2 key:0x05 val:0x32</text>
</g>
<!-- B3_2&#45;&gt;L2_2 -->
<g id="edge8" class="edge">
<title>B3_2&#45;&gt;L2_2</title>
<path fill="none" stroke="black" d="M634.46,-213.09C623.21,-225.57 607.77,-242.7 595.04,-256.82"/>
<polygon fill="black" stroke="black" points="592.63,-254.26 588.53,-264.03 597.83,-258.94 592.63,-254.26"/>
<text text-anchor="middle" x="619.74" y="-234.2" font-family="Times,serif" font-size="14.00">l</text>
</g>
<!-- L2_3 -->
<g id="L2_3" class="node">
<title>L2_3</title>
<polygon fill="red" stroke="black" points="873.88,-301.5 683.88,-301.5 683.88,-265.5 873.88,-265.5 873.88,-301.5"/>
<text text-anchor="middle" x="778.88" y="-278.45" font-family="Times,serif" font-size="14.00" fill="white">ver: 2 idx: 3 key:0x06 val:0x3C</text>
</g>
<!-- B3_2&#45;&gt;L2_3 -->
<g id="edge9" class="edge">
<title>B3_2&#45;&gt;L2_3</title>
<path fill="none" stroke="black" d="M675.36,-213.09C694.85,-226.15 721.94,-244.32 743.52,-258.79"/>
<polygon fill="black" stroke="black" points="741.49,-261.64 751.74,-264.31 745.39,-255.83 741.49,-261.64"/>
<text text-anchor="middle" x="728.18" y="-234.2" font-family="Times,serif" font-size="14.00">r</text>
</g>
<!-- B4_3 -->
<g id="B4_3" class="node">
<title>B4_3</title>
<ellipse fill="yellow" stroke="black" cx="1071.88" cy="-195" rx="127.61" ry="18"/>
<text text-anchor="middle" x="1071.88" y="-189.95" font-family="Times,serif" font-size="14.00">ver: 4 idx: 3 key:0x08 ht:1 sz:2</text>
</g>
<!-- B5_7&#45;&gt;B4_3 -->
<g id="edge11" class="edge">
<title>B5_7&#45;&gt;B4_3</title>
<path fill="none" stroke="black" d="M1071.88,-124.59C1071.88,-136.24 1071.88,-151.95 1071.88,-165.48"/>
<polygon fill="black" stroke="black" points="1068.38,-165.14 1071.88,-175.14 1075.38,-165.14 1068.38,-165.14"/>
<text text-anchor="middle" x="1073.75" y="-145.7" font-family="Times,serif" font-size="14.00">l</text>
</g>
<!-- B5_6 -->
<g id="B5_6" class="node">
<title>B5_6</title>
<ellipse fill="purple" stroke="black" cx="1430.88" cy="-195" rx="127.61" ry="18"/>
<text text-anchor="middle" x="1430.88" y="-189.95" font-family="Times,serif" font-size="14.00" fill="white">ver: 5 idx: 6 key:0x0b ht:2 sz:4</text>
</g>
<!-- B5_7&#45;&gt;B5_6 -->
<g id="edge14" class="edge">
<title>B5_7&#45;&gt;B5_6</title>
<path fill="none" stroke="black" d="M1134.41,-122.57C1196.41,-137.51 1291.4,-160.39 1357.07,-176.22"/>
<polygon fill="black" stroke="black" points="1356.14,-179.59 1366.68,-178.53 1357.78,-172.79 1356.14,-179.59"/>
<text text-anchor="middle" x="1285.78" y="-145.7" font-family="Times,serif" font-size="14.00">r</text>
</g>
<!-- L3_2 -->
<g id="L3_2" class="node">
<title>L3_2</title>
<polygon fill="blue" stroke="black" points="1079.75,-301.5 892,-301.5 892,-265.5 1079.75,-265.5 1079.75,-301.5"/>
<text text-anchor="middle" x="985.88" y="-278.45" font-family="Times,serif" font-size="14.00" fill="white">ver: 3 idx: 2 key:0x07 val:0x46</text>
</g>
<!-- B4_3&#45;&gt;L3_2 -->
<g id="edge12" class="edge">
<title>B4_3&#45;&gt;L3_2</title>
<path fill="none" stroke="black" d="M1054.88,-213.09C1042.36,-225.68 1025.13,-243.02 1011.01,-257.21"/>
<polygon fill="black" stroke="black" points="1008.76,-254.52 1004.19,-264.08 1013.72,-259.45 1008.76,-254.52"/>
<text text-anchor="middle" x="1038.45" y="-234.2" font-family="Times,serif" font-size="14.00">l</text>
</g>
<!-- L3_3 -->
<g id="L3_3" class="node">
<title>L3_3</title>
<polygon fill="blue" stroke="black" points="1285.75,-301.5 1098,-301.5 1098,-265.5 1285.75,-265.5 1285.75,-301.5"/>
<text text-anchor="middle" x="1191.88" y="-278.45" font-family="Times,serif" font-size="14.00" fill="white">ver: 3 idx: 3 key:0x08 val:0x50</text>
</g>
<!-- B4_3&#45;&gt;L3_3 -->
<g id="edge13" class="edge">
<title>B4_3&#45;&gt;L3_3</title>
<path fill="none" stroke="black" d="M1095.58,-213.09C1113.63,-226.1 1138.68,-244.16 1158.71,-258.6"/>
<polygon fill="black" stroke="black" points="1156.42,-261.26 1166.58,-264.26 1160.51,-255.58 1156.42,-261.26"/>
<text text-anchor="middle" x="1144.87" y="-234.2" font-family="Times,serif" font-size="14.00">r</text>
</g>
<!-- B5_4 -->
<g id="B5_4" class="node">
<title>B5_4</title>
<ellipse fill="purple" stroke="black" cx="1430.88" cy="-283.5" rx="127.1" ry="18"/>
<text text-anchor="middle" x="1430.88" y="-278.45" font-family="Times,serif" font-size="14.00" fill="white">ver: 5 idx: 4 key:0x0a ht:1 sz:2</text>
</g>
<!-- B5_6&#45;&gt;B5_4 -->
<g id="edge15" class="edge">
<title>B5_6&#45;&gt;B5_4</title>
<path fill="none" stroke="black" d="M1430.88,-213.09C1430.88,-224.74 1430.88,-240.45 1430.88,-253.98"/>
<polygon fill="black" stroke="black" points="1427.38,-253.64 1430.88,-263.64 1434.38,-253.64 1427.38,-253.64"/>
<text text-anchor="middle" x="1432.75" y="-234.2" font-family="Times,serif" font-size="14.00">l</text>
</g>
<!-- B5_5 -->
<g id="B5_5" class="node">
<title>B5_5</title>
<ellipse fill="purple" stroke="black" cx="1702.88" cy="-283.5" rx="127.1" ry="18"/>
<text text-anchor="middle" x="1702.88" y="-278.45" font-family="Times,serif" font-size="14.00" fill="white">ver: 5 idx: 5 key:0x0c ht:1 sz:2</text>
</g>
<!-- B5_6&#45;&gt;B5_5 -->
<g id="edge18" class="edge">
<title>B5_6&#45;&gt;B5_5</title>
<path fill="none" stroke="black" d="M1481.08,-211.97C1526.51,-226.41 1593.52,-247.72 1641.99,-263.14"/>
<polygon fill="black" stroke="black" points="1640.93,-266.47 1651.52,-266.17 1643.05,-259.8 1640.93,-266.47"/>
<text text-anchor="middle" x="1593.49" y="-234.2" font-family="Times,serif" font-size="14.00">r</text>
</g>
<!-- L4_2 -->
<g id="L4_2" class="node">
<title>L4_2</title>
<polygon fill="yellow" stroke="black" points="1335.25,-390 1144.5,-390 1144.5,-354 1335.25,-354 1335.25,-390"/>
<text text-anchor="middle" x="1239.88" y="-366.95" font-family="Times,serif" font-size="14.00">ver: 4 idx: 2 key:0x09 val:0x5A</text>
</g>
<!-- B5_4&#45;&gt;L4_2 -->
<g id="edge16" class="edge">
<title>B5_4&#45;&gt;L4_2</title>
<path fill="none" stroke="black" d="M1394.05,-301.18C1364.02,-314.78 1321.35,-334.1 1288.51,-348.97"/>
<polygon fill="black" stroke="black" points="1287.27,-345.69 1279.6,-353.01 1290.16,-352.07 1287.27,-345.69"/>
<text text-anchor="middle" x="1354.36" y="-322.7" font-family="Times,serif" font-size="14.00">l</text>
</g>
<!-- L4_3 -->
<g id="L4_3" class="node">
<title>L4_3</title>
<polygon fill="yellow" stroke="black" points="1540.38,-390 1353.38,-390 1353.38,-354 1540.38,-354 1540.38,-390"/>
<text text-anchor="middle" x="1446.88" y="-366.95" font-family="Times,serif" font-size="14.00">ver: 4 idx: 3 key:0x0a val:0x64</text>
</g>
<!-- B5_4&#45;&gt;L4_3 -->
<g id="edge17" class="edge">
<title>B5_4&#45;&gt;L4_3</title>
<path fill="none" stroke="black" d="M1434.04,-301.59C1436.19,-313.24 1439.1,-328.95 1441.6,-342.48"/>
<polygon fill="black" stroke="black" points="1438.13,-342.96 1443.39,-352.16 1445.01,-341.69 1438.13,-342.96"/>
<text text-anchor="middle" x="1442.56" y="-322.7" font-family="Times,serif" font-size="14.00">r</text>
</g>
<!-- L5_3 -->
<g id="L5_3" class="node">
<title>L5_3</title>
<polygon fill="purple" stroke="black" points="1780.5,-390 1591.25,-390 1591.25,-354 1780.5,-354 1780.5,-390"/>
<text text-anchor="middle" x="1685.88" y="-366.95" font-family="Times,serif" font-size="14.00" fill="white">ver: 5 idx: 3 key:0x0b val:0x6E</text>
</g>
<!-- B5_5&#45;&gt;L5_3 -->
<g id="edge19" class="edge">
<title>B5_5&#45;&gt;L5_3</title>
<path fill="none" stroke="black" d="M1699.52,-301.59C1697.23,-313.24 1694.14,-328.95 1691.48,-342.48"/>
<polygon fill="black" stroke="black" points="1688.07,-341.68 1689.58,-352.16 1694.94,-343.03 1688.07,-341.68"/>
<text text-anchor="middle" x="1697.77" y="-322.7" font-family="Times,serif" font-size="14.00">l</text>
</g>
<!-- L5_4 -->
<g id="L5_4" class="node">
<title>L5_4</title>
<polygon fill="purple" stroke="black" points="1985.38,-390 1798.38,-390 1798.38,-354 1985.38,-354 1985.38,-390"/>
<text text-anchor="middle" x="1891.88" y="-366.95" font-family="Times,serif" font-size="14.00" fill="white">ver: 5 idx: 4 key:0x0c val:0x78</text>
</g>
<!-- B5_5&#45;&gt;L5_4 -->
<g id="edge20" class="edge">
<title>B5_5&#45;&gt;L5_4</title>
<path fill="none" stroke="black" d="M1739.32,-301.18C1769.03,-314.78 1811.25,-334.1 1843.75,-348.97"/>
<polygon fill="black" stroke="black" points="1842,-352.02 1852.55,-353 1844.91,-345.66 1842,-352.02"/>
<text text-anchor="middle" x="1816.55" y="-322.7" font-family="Times,serif" font-size="14.00">r</text>
</g>
</g>
</svg>
