<?xml version="1.0" encoding="UTF-8" standalone="no"?>
<!DOCTYPE svg PUBLIC "-//W3C//DTD SVG 1.1//EN"
 "http://www.w3.org/Graphics/SVG/1.1/DTD/svg11.dtd">
<!-- Generated by graphviz version 12.2.1 (20241206.2353)
 -->
<!-- Title: G Pages: 1 -->
<svg width="1794pt" height="353pt"
 viewBox="0.00 0.00 1793.51 353.00" xmlns="http://www.w3.org/2000/svg" xmlns:xlink="http://www.w3.org/1999/xlink">
<g id="graph0" class="graph" transform="scale(1 1) rotate(0) translate(4 349)">
<title>G</title>
<polygon fill="white" stroke="none" points="-4,4 -4,-349 1789.51,-349 1789.51,4 -4,4"/>
<g id="clust1" class="cluster">
<title>cluster_branches</title>
<polygon fill="none" stroke="black" points="8,-8 8,-211 1777.51,-211 1777.51,-8 8,-8"/>
<text text-anchor="middle" x="892.76" y="-193.7" font-family="Times,serif" font-size="14.00">Branches</text>
</g>
<g id="clust2" class="cluster">
<title>cluster_B3</title>
<polygon fill="blue" stroke="blue" points="16,-59 16,-136 96.83,-136 96.83,-59 16,-59"/>
<text text-anchor="middle" x="56.41" y="-118.7" font-family="Times,serif" font-size="14.00" fill="white">Version 3</text>
</g>
<g id="clust3" class="cluster">
<title>cluster_B4</title>
<polygon fill="yellow" stroke="yellow" points="116.83,-16 116.83,-178 954.88,-178 954.88,-16 116.83,-16"/>
<text text-anchor="middle" x="535.85" y="-160.7" font-family="Times,serif" font-size="14.00">Version 4</text>
</g>
<g id="clust4" class="cluster">
<title>cluster_B5</title>
<polygon fill="purple" stroke="purple" points="974.88,-41 974.88,-154 1769.51,-154 1769.51,-41 974.88,-41"/>
<text text-anchor="middle" x="1372.2" y="-136.7" font-family="Times,serif" font-size="14.00" fill="white">Version 5</text>
</g>
<g id="clust5" class="cluster">
<title>cluster_leaves</title>
<polygon fill="none" stroke="black" points="13.41,-219 13.41,-337 1461.61,-337 1461.61,-219 13.41,-219"/>
<text text-anchor="middle" x="737.51" y="-319.7" font-family="Times,serif" font-size="14.00">Leaves</text>
</g>
<g id="clust6" class="cluster">
<title>cluster_L2</title>
<polygon fill="red" stroke="red" points="21.41,-227 21.41,-304 216.75,-304 216.75,-227 21.41,-227"/>
<text text-anchor="middle" x="119.08" y="-286.7" font-family="Times,serif" font-size="14.00" fill="white">Version 2</text>
</g>
<g id="clust7" class="cluster">
<title>cluster_L3</title>
<polygon fill="blue" stroke="blue" points="283.35,-227 283.35,-304 617.27,-304 617.27,-227 283.35,-227"/>
<text text-anchor="middle" x="450.31" y="-286.7" font-family="Times,serif" font-size="14.00" fill="white">Version 3</text>
</g>
<g id="clust8" class="cluster">
<title>cluster_L4</title>
<polygon fill="yellow" stroke="yellow" points="697.11,-227 697.11,-304 1050.29,-304 1050.29,-227 697.11,-227"/>
<text text-anchor="middle" x="873.7" y="-286.7" font-family="Times,serif" font-size="14.00">Version 4</text>
</g>
<g id="clust9" class="cluster">
<title>cluster_L5</title>
<polygon fill="purple" stroke="purple" points="1081.12,-227 1081.12,-304 1453.61,-304 1453.61,-227 1081.12,-227"/>
<text text-anchor="middle" x="1267.37" y="-286.7" font-family="Times,serif" font-size="14.00" fill="white">Version 5</text>
</g>
<!-- B3_2 -->
<g id="B3_2" class="node">
<title>B3_2</title>
<ellipse fill="none" stroke="black" cx="56.41" cy="-85" rx="32.41" ry="18"/>
<text text-anchor="start" x="40.66" y="-79.95" font-family="Times,serif" font-size="14.00" fill="white">idx: 2</text>
</g>
<!-- B4_1 -->
<g id="B4_1" class="node">
<title>B4_1</title>
<ellipse fill="none" stroke="black" stroke-dasharray="5,2" cx="181.75" cy="-85" rx="56.92" ry="25.46"/>
<text text-anchor="start" x="166" y="-86.7" font-family="Times,serif" font-size="14.00">idx: 1</text>
<text text-anchor="start" x="149.5" y="-72.7" font-family="Times,serif" font-size="14.00">orphaned: </text>
<text text-anchor="start" x="207.25" y="-72.7" font-family="Times,serif" font-weight="bold" font-size="14.00">5</text>
</g>
<!-- B3_2&#45;&gt;B4_1 -->
<!-- B4_2 -->
<g id="B4_2" class="node">
<title>B4_2</title>
<ellipse fill="none" stroke="black" stroke-dasharray="5,2" cx="331.6" cy="-85" rx="56.92" ry="25.46"/>
<text text-anchor="start" x="315.85" y="-86.7" font-family="Times,serif" font-size="14.00">idx: 2</text>
<text text-anchor="start" x="299.35" y="-72.7" font-family="Times,serif" font-size="14.00">orphaned: </text>
<text text-anchor="start" x="357.1" y="-72.7" font-family="Times,serif" font-weight="bold" font-size="14.00">5</text>
</g>
<!-- B4_1&#45;&gt;B4_2 -->
<!-- B4_3 -->
<g id="B4_3" class="node">
<title>B4_3</title>
<ellipse fill="none" stroke="black" cx="456.93" cy="-85" rx="32.41" ry="18"/>
<text text-anchor="start" x="441.18" y="-79.95" font-family="Times,serif" font-size="14.00">idx: 3</text>
</g>
<!-- B4_2&#45;&gt;B4_3 -->
<!-- B4_4 -->
<g id="B4_4" class="node">
<title>B4_4</title>
<ellipse fill="none" stroke="black" stroke-dasharray="5,2" cx="582.27" cy="-85" rx="56.92" ry="25.46"/>
<text text-anchor="start" x="566.52" y="-86.7" font-family="Times,serif" font-size="14.00">idx: 4</text>
<text text-anchor="start" x="550.02" y="-72.7" font-family="Times,serif" font-size="14.00">orphaned: </text>
<text text-anchor="start" x="607.77" y="-72.7" font-family="Times,serif" font-weight="bold" font-size="14.00">5</text>
</g>
<!-- B4_3&#45;&gt;B4_4 -->
<!-- B4_5 -->
<g id="B4_5" class="node">
<title>B4_5</title>
<ellipse fill="none" stroke="black" stroke-dasharray="5,2" cx="732.11" cy="-85" rx="56.92" ry="25.46"/>
<text text-anchor="start" x="716.36" y="-86.7" font-family="Times,serif" font-size="14.00">idx: 5</text>
<text text-anchor="start" x="699.86" y="-72.7" font-family="Times,serif" font-size="14.00">orphaned: </text>
<text text-anchor="start" x="757.61" y="-72.7" font-family="Times,serif" font-weight="bold" font-size="14.00">5</text>
</g>
<!-- B4_4&#45;&gt;B4_5 -->
<!-- B4_6 -->
<g id="B4_6" class="node">
<title>B4_6</title>
<ellipse fill="none" stroke="black" stroke-dasharray="5,2" cx="885.96" cy="-85" rx="56.92" ry="56.92"/>
<ellipse fill="none" stroke="black" stroke-dasharray="5,2" cx="885.96" cy="-85" rx="60.92" ry="60.92"/>
<text text-anchor="start" x="870.21" y="-86.7" font-family="Times,serif" font-size="14.00">idx: 6</text>
<text text-anchor="start" x="853.71" y="-72.7" font-family="Times,serif" font-size="14.00">orphaned: </text>
<text text-anchor="start" x="911.46" y="-72.7" font-family="Times,serif" font-weight="bold" font-size="14.00">5</text>
</g>
<!-- B4_5&#45;&gt;B4_6 -->
<!-- B5_1 -->
<g id="B5_1" class="node">
<title>B5_1</title>
<ellipse fill="none" stroke="black" cx="1015.29" cy="-85" rx="32.41" ry="18"/>
<text text-anchor="start" x="999.54" y="-79.95" font-family="Times,serif" font-size="14.00" fill="white">idx: 1</text>
</g>
<!-- B4_6&#45;&gt;B5_1 -->
<!-- B5_2 -->
<g id="B5_2" class="node">
<title>B5_2</title>
<ellipse fill="none" stroke="black" cx="1116.12" cy="-85" rx="32.41" ry="18"/>
<text text-anchor="start" x="1100.37" y="-79.95" font-family="Times,serif" font-size="14.00" fill="white">idx: 2</text>
</g>
<!-- B5_1&#45;&gt;B5_2 -->
<!-- B5_3 -->
<g id="B5_3" class="node">
<title>B5_3</title>
<ellipse fill="none" stroke="black" cx="1216.95" cy="-85" rx="32.41" ry="18"/>
<text text-anchor="start" x="1201.2" y="-79.95" font-family="Times,serif" font-size="14.00" fill="white">idx: 3</text>
</g>
<!-- B5_2&#45;&gt;B5_3 -->
<!-- B5_4 -->
<g id="B5_4" class="node">
<title>B5_4</title>
<ellipse fill="none" stroke="black" cx="1317.78" cy="-85" rx="32.41" ry="18"/>
<text text-anchor="start" x="1302.03" y="-79.95" font-family="Times,serif" font-size="14.00" fill="white">idx: 4</text>
</g>
<!-- B5_3&#45;&gt;B5_4 -->
<!-- B5_5 -->
<g id="B5_5" class="node">
<title>B5_5</title>
<ellipse fill="none" stroke="black" cx="1418.61" cy="-85" rx="32.41" ry="18"/>
<text text-anchor="start" x="1402.86" y="-79.95" font-family="Times,serif" font-size="14.00" fill="white">idx: 5</text>
</g>
<!-- B5_4&#45;&gt;B5_5 -->
<!-- B5_6 -->
<g id="B5_6" class="node">
<title>B5_6</title>
<ellipse fill="none" stroke="black" cx="1519.44" cy="-85" rx="32.41" ry="18"/>
<text text-anchor="start" x="1503.69" y="-79.95" font-family="Times,serif" font-size="14.00" fill="white">idx: 6</text>
</g>
<!-- B5_5&#45;&gt;B5_6 -->
<!-- B5_7 -->
<g id="B5_7" class="node">
<title>B5_7</title>
<ellipse fill="none" stroke="black" cx="1620.27" cy="-85" rx="32.41" ry="18"/>
<text text-anchor="start" x="1604.52" y="-79.95" font-family="Times,serif" font-size="14.00" fill="white">idx: 7</text>
</g>
<!-- B5_6&#45;&gt;B5_7 -->
<!-- B5_8 -->
<g id="B5_8" class="node">
<title>B5_8</title>
<ellipse fill="none" stroke="black" cx="1725.1" cy="-85" rx="32.41" ry="32.41"/>
<ellipse fill="none" stroke="black" cx="1725.1" cy="-85" rx="36.41" ry="36.41"/>
<text text-anchor="start" x="1709.35" y="-79.95" font-family="Times,serif" font-size="14.00" fill="white">idx: 8</text>
</g>
<!-- B5_7&#45;&gt;B5_8 -->
<!-- L2_2 -->
<g id="L2_2" class="node">
<title>L2_2</title>
<polygon fill="none" stroke="black" points="83.41,-271 29.41,-271 29.41,-235 83.41,-235 83.41,-271"/>
<text text-anchor="start" x="40.66" y="-247.95" font-family="Times,serif" font-size="14.00" fill="white">idx: 2</text>
</g>
<!-- L2_3 -->
<g id="L2_3" class="node">
<title>L2_3</title>
<polygon fill="none" stroke="black" points="208.75,-271 154.75,-271 154.75,-235 208.75,-235 208.75,-271"/>
<text text-anchor="start" x="166" y="-247.95" font-family="Times,serif" font-size="14.00" fill="white">idx: 3</text>
</g>
<!-- L2_2&#45;&gt;L2_3 -->
<!-- L3_1 -->
<g id="L3_1" class="node">
<title>L3_1</title>
<polygon fill="none" stroke="black" stroke-dasharray="5,2" points="371.85,-271 291.35,-271 291.35,-235 371.85,-235 371.85,-271"/>
<text text-anchor="start" x="315.85" y="-254.7" font-family="Times,serif" font-size="14.00" fill="white">idx: 1</text>
<text text-anchor="start" x="299.35" y="-240.7" font-family="Times,serif" font-size="14.00" fill="white">orphaned: </text>
<text text-anchor="start" x="357.1" y="-240.7" font-family="Times,serif" font-weight="bold" font-size="14.00" fill="white">5</text>
</g>
<!-- L2_3&#45;&gt;L3_1 -->
<!-- L3_2 -->
<g id="L3_2" class="node">
<title>L3_2</title>
<polygon fill="none" stroke="black" points="483.93,-271 429.93,-271 429.93,-235 483.93,-235 483.93,-271"/>
<text text-anchor="start" x="441.18" y="-247.95" font-family="Times,serif" font-size="14.00" fill="white">idx: 2</text>
</g>
<!-- L3_1&#45;&gt;L3_2 -->
<!-- L3_3 -->
<g id="L3_3" class="node">
<title>L3_3</title>
<polygon fill="none" stroke="black" points="609.27,-271 555.27,-271 555.27,-235 609.27,-235 609.27,-271"/>
<text text-anchor="start" x="566.52" y="-247.95" font-family="Times,serif" font-size="14.00" fill="white">idx: 3</text>
</g>
<!-- L3_2&#45;&gt;L3_3 -->
<!-- L4_1 -->
<g id="L4_1" class="node">
<title>L4_1</title>
<polygon fill="none" stroke="black" points="759.11,-271 705.11,-271 705.11,-235 759.11,-235 759.11,-271"/>
<text text-anchor="start" x="716.36" y="-247.95" font-family="Times,serif" font-size="14.00">idx: 1</text>
</g>
<!-- L3_3&#45;&gt;L4_1 -->
<!-- L4_2 -->
<g id="L4_2" class="node">
<title>L4_2</title>
<polygon fill="none" stroke="black" points="912.96,-271 858.96,-271 858.96,-235 912.96,-235 912.96,-271"/>
<text text-anchor="start" x="870.21" y="-247.95" font-family="Times,serif" font-size="14.00">idx: 2</text>
</g>
<!-- L4_1&#45;&gt;L4_2 -->
<!-- L4_3 -->
<g id="L4_3" class="node">
<title>L4_3</title>
<polygon fill="none" stroke="black" points="1042.29,-271 988.29,-271 988.29,-235 1042.29,-235 1042.29,-271"/>
<text text-anchor="start" x="999.54" y="-247.95" font-family="Times,serif" font-size="14.00">idx: 3</text>
</g>
<!-- L4_2&#45;&gt;L4_3 -->
<!-- L5_1 -->
<g id="L5_1" class="node">
<title>L5_1</title>
<polygon fill="none" stroke="black" points="1143.12,-271 1089.12,-271 1089.12,-235 1143.12,-235 1143.12,-271"/>
<text text-anchor="start" x="1100.37" y="-247.95" font-family="Times,serif" font-size="14.00" fill="white">idx: 1</text>
</g>
<!-- L4_3&#45;&gt;L5_1 -->
<!-- L5_2 -->
<g id="L5_2" class="node">
<title>L5_2</title>
<polygon fill="none" stroke="black" points="1243.95,-271 1189.95,-271 1189.95,-235 1243.95,-235 1243.95,-271"/>
<text text-anchor="start" x="1201.2" y="-247.95" font-family="Times,serif" font-size="14.00" fill="white">idx: 2</text>
</g>
<!-- L5_1&#45;&gt;L5_2 -->
<!-- L5_3 -->
<g id="L5_3" class="node">
<title>L5_3</title>
<polygon fill="none" stroke="black" points="1344.78,-271 1290.78,-271 1290.78,-235 1344.78,-235 1344.78,-271"/>
<text text-anchor="start" x="1302.03" y="-247.95" font-family="Times,serif" font-size="14.00" fill="white">idx: 3</text>
</g>
<!-- L5_2&#45;&gt;L5_3 -->
<!-- L5_4 -->
<g id="L5_4" class="node">
<title>L5_4</title>
<polygon fill="none" stroke="black" points="1445.61,-271 1391.61,-271 1391.61,-235 1445.61,-235 1445.61,-271"/>
<text text-anchor="start" x="1402.86" y="-247.95" font-family="Times,serif" font-size="14.00" fill="white">idx: 4</text>
</g>
<!-- L5_3&#45;&gt;L5_4 -->
</g>
</svg>
