<?xml version="1.0" encoding="UTF-8" standalone="no"?><svg xmlns="http://www.w3.org/2000/svg" xmlns:xlink="http://www.w3.org/1999/xlink" contentScriptType="application/ecmascript" contentStyleType="text/css" height="958px" preserveAspectRatio="none" style="width:1592px;height:958px;" version="1.1" viewBox="0 0 1592 958" width="1592px" zoomAndPan="magnify"><defs><filter height="300%" id="fun5t17tns17t" width="300%" x="-1" y="-1"><feGaussianBlur result="blurOut" stdDeviation="2.0"/><feColorMatrix in="blurOut" result="blurOut2" type="matrix" values="0 0 0 0 0 0 0 0 0 0 0 0 0 0 0 0 0 0 .4 0"/><feOffset dx="4.0" dy="4.0" in="blurOut2" result="blurOut3"/><feBlend in="SourceGraphic" in2="blurOut3" mode="normal"/></filter></defs><g><text fill="#000000" font-family="sans-serif" font-size="18" lengthAdjust="spacing" textLength="117" x="735.5" y="28.708">Redelegation</text><rect fill="#FFFFFF" filter="url(#fun5t17tns17t)" height="46.2656" style="stroke:#000000;stroke-width:2.0;" width="558.5" x="465" y="244.7813"/><rect fill="#FFFFFF" filter="url(#fun5t17tns17t)" height="46.2656" style="stroke:#000000;stroke-width:2.0;" width="558.5" x="465" y="305.0469"/><rect fill="#FFFFFF" filter="url(#fun5t17tns17t)" height="71.3984" style="stroke:#000000;stroke-width:2.0;" width="1013.5" x="10" y="365.3125"/><rect fill="#FFFFFF" filter="url(#fun5t17tns17t)" height="46.2656" style="stroke:#000000;stroke-width:2.0;" width="558.5" x="465" y="520.8438"/><rect fill="#FFFFFF" filter="url(#fun5t17tns17t)" height="46.2656" style="stroke:#000000;stroke-width:2.0;" width="558.5" x="465" y="651.2422"/><rect fill="#FFFFFF" filter="url(#fun5t17tns17t)" height="75.3984" style="stroke:#000000;stroke-width:2.0;" width="641.5" x="936.5" y="711.5078"/><line style="stroke:#A80036;stroke-width:1.0;" x1="521" x2="521" y1="102.25" y2="485.8438"/><line style="stroke:#A80036;stroke-width:1.0;stroke-dasharray:1.0,4.0;" x1="521" x2="521" y1="485.8438" y2="513.8438"/><line style="stroke:#A80036;stroke-width:1.0;" x1="521" x2="521" y1="513.8438" y2="616.2422"/><line style="stroke:#A80036;stroke-width:1.0;stroke-dasharray:1.0,4.0;" x1="521" x2="521" y1="616.2422" y2="644.2422"/><line style="stroke:#A80036;stroke-width:1.0;" x1="521" x2="521" y1="644.2422" y2="890.3047"/><line style="stroke:#A80036;stroke-width:1.0;" x1="979.5" x2="979.5" y1="102.25" y2="485.8438"/><line style="stroke:#A80036;stroke-width:1.0;stroke-dasharray:1.0,4.0;" x1="979.5" x2="979.5" y1="485.8438" y2="513.8438"/><line style="stroke:#A80036;stroke-width:1.0;" x1="979.5" x2="979.5" y1="513.8438" y2="616.2422"/><line style="stroke:#A80036;stroke-width:1.0;stroke-dasharray:1.0,4.0;" x1="979.5" x2="979.5" y1="616.2422" y2="644.2422"/><line style="stroke:#A80036;stroke-width:1.0;" x1="979.5" x2="979.5" y1="644.2422" y2="890.3047"/><line style="stroke:#A80036;stroke-width:1.0;" x1="1547" x2="1547" y1="102.25" y2="485.8438"/><line style="stroke:#A80036;stroke-width:1.0;stroke-dasharray:1.0,4.0;" x1="1547" x2="1547" y1="485.8438" y2="513.8438"/><line style="stroke:#A80036;stroke-width:1.0;" x1="1547" x2="1547" y1="513.8438" y2="616.2422"/><line style="stroke:#A80036;stroke-width:1.0;stroke-dasharray:1.0,4.0;" x1="1547" x2="1547" y1="616.2422" y2="644.2422"/><line style="stroke:#A80036;stroke-width:1.0;" x1="1547" x2="1547" y1="644.2422" y2="890.3047"/><rect fill="#FEFECE" filter="url(#fun5t17tns17t)" height="30.2969" style="stroke:#A80036;stroke-width:1.5;" width="88" x="475" y="66.9531"/><text fill="#000000" font-family="sans-serif" font-size="14" lengthAdjust="spacing" textLength="74" x="482" y="86.9482">msgServer</text><rect fill="#FEFECE" filter="url(#fun5t17tns17t)" height="30.2969" style="stroke:#A80036;stroke-width:1.5;" width="88" x="475" y="889.3047"/><text fill="#000000" font-family="sans-serif" font-size="14" lengthAdjust="spacing" textLength="74" x="482" y="909.2998">msgServer</text><rect fill="#FEFECE" filter="url(#fun5t17tns17t)" height="30.2969" style="stroke:#A80036;stroke-width:1.5;" width="63" x="946.5" y="66.9531"/><text fill="#000000" font-family="sans-serif" font-size="14" lengthAdjust="spacing" textLength="49" x="953.5" y="86.9482">keeper</text><rect fill="#FEFECE" filter="url(#fun5t17tns17t)" height="30.2969" style="stroke:#A80036;stroke-width:1.5;" width="63" x="946.5" y="889.3047"/><text fill="#000000" font-family="sans-serif" font-size="14" lengthAdjust="spacing" textLength="49" x="953.5" y="909.2998">keeper</text><text fill="#000000" font-family="sans-serif" font-size="14" lengthAdjust="spacing" textLength="36" x="1526" y="98.9482">store</text><path d="M1529,49.9531 C1529,39.9531 1547,39.9531 1547,39.9531 C1547,39.9531 1565,39.9531 1565,49.9531 L1565,75.9531 C1565,85.9531 1547,85.9531 1547,85.9531 C1547,85.9531 1529,85.9531 1529,75.9531 L1529,49.9531 " fill="#FEFECE" filter="url(#fun5t17tns17t)" style="stroke:#000000;stroke-width:1.5;"/><path d="M1529,49.9531 C1529,59.9531 1547,59.9531 1547,59.9531 C1547,59.9531 1565,59.9531 1565,49.9531 " fill="none" style="stroke:#000000;stroke-width:1.5;"/><text fill="#000000" font-family="sans-serif" font-size="14" lengthAdjust="spacing" textLength="36" x="1526" y="902.2998">store</text><path d="M1529,915.6016 C1529,905.6016 1547,905.6016 1547,905.6016 C1547,905.6016 1565,905.6016 1565,915.6016 L1565,941.6016 C1565,951.6016 1547,951.6016 1547,951.6016 C1547,951.6016 1529,951.6016 1529,941.6016 L1529,915.6016 " fill="#FEFECE" filter="url(#fun5t17tns17t)" style="stroke:#000000;stroke-width:1.5;"/><path d="M1529,915.6016 C1529,925.6016 1547,925.6016 1547,925.6016 C1547,925.6016 1565,925.6016 1565,915.6016 " fill="none" style="stroke:#000000;stroke-width:1.5;"/><polygon fill="#A80036" points="968,129.3828,978,133.3828,968,137.3828,972,133.3828" style="stroke:#A80036;stroke-width:1.0;"/><line style="stroke:#A80036;stroke-width:1.0;" x1="521" x2="974" y1="133.3828" y2="133.3828"/><text fill="#000000" font-family="sans-serif" font-size="13" lengthAdjust="spacing" textLength="435" x="528" y="128.3169">BeginRedelegation(delAddr, valSrcAddr, valDstAddr, sharesAmount)</text><line style="stroke:#A80036;stroke-width:1.0;" x1="980" x2="1022" y1="168.582" y2="168.582"/><line style="stroke:#A80036;stroke-width:1.0;" x1="1022" x2="1022" y1="168.582" y2="181.582"/><line style="stroke:#A80036;stroke-width:1.0;" x1="981" x2="1022" y1="181.582" y2="181.582"/><polygon fill="#A80036" points="991,177.582,981,181.582,991,185.582,987,181.582" style="stroke:#A80036;stroke-width:1.0;"/><text fill="#000000" font-family="sans-serif" font-size="13" lengthAdjust="spacing" textLength="140" x="987" y="163.5161">get number of sharew</text><path d="M496,146.3828 L496,186.3828 L971,186.3828 L971,156.3828 L961,146.3828 L496,146.3828 " fill="#FBFB77" filter="url(#fun5t17tns17t)" style="stroke:#A80036;stroke-width:1.0;"/><path d="M961,146.3828 L961,156.3828 L971,156.3828 L961,146.3828 " fill="#FBFB77" style="stroke:#A80036;stroke-width:1.0;"/><text fill="#000000" font-family="sans-serif" font-size="13" lengthAdjust="spacing" textLength="446" x="502" y="163.4497">If the delegator has more shares than the total shares in the validator</text><text fill="#000000" font-family="sans-serif" font-size="13" lengthAdjust="spacing" textLength="454" x="502" y="178.5825">(due to rounding errors), then just withdraw the max number of shares.</text><line style="stroke:#A80036;stroke-width:1.0;" x1="980" x2="1022" y1="216.7813" y2="216.7813"/><line style="stroke:#A80036;stroke-width:1.0;" x1="1022" x2="1022" y1="216.7813" y2="229.7813"/><line style="stroke:#A80036;stroke-width:1.0;" x1="981" x2="1022" y1="229.7813" y2="229.7813"/><polygon fill="#A80036" points="991,225.7813,981,229.7813,991,233.7813,987,229.7813" style="stroke:#A80036;stroke-width:1.0;"/><text fill="#000000" font-family="sans-serif" font-size="13" lengthAdjust="spacing" textLength="278" x="987" y="211.7153">check the redelegation uses correct denom</text><path d="M465,244.7813 L529,244.7813 L529,251.7813 L519,261.7813 L465,261.7813 L465,244.7813 " fill="#EEEEEE" style="stroke:#000000;stroke-width:1.0;"/><rect fill="none" height="46.2656" style="stroke:#000000;stroke-width:2.0;" width="558.5" x="465" y="244.7813"/><text fill="#000000" font-family="sans-serif" font-size="13" font-weight="bold" lengthAdjust="spacing" textLength="19" x="480" y="257.8481">alt</text><text fill="#000000" font-family="sans-serif" font-size="11" font-weight="bold" lengthAdjust="spacing" textLength="173" x="544" y="256.9917">[valSrcAddr == valDstAddr]</text><polygon fill="#A80036" points="532,279.0469,522,283.0469,532,287.0469,528,283.0469" style="stroke:#A80036;stroke-width:1.0;"/><line style="stroke:#A80036;stroke-width:1.0;stroke-dasharray:2.0,2.0;" x1="526" x2="979" y1="283.0469" y2="283.0469"/><text fill="#000000" font-family="sans-serif" font-size="13" lengthAdjust="spacing" textLength="31" x="538" y="277.981">error</text><path d="M465,305.0469 L529,305.0469 L529,312.0469 L519,322.0469 L465,322.0469 L465,305.0469 " fill="#EEEEEE" style="stroke:#000000;stroke-width:1.0;"/><rect fill="none" height="46.2656" style="stroke:#000000;stroke-width:2.0;" width="558.5" x="465" y="305.0469"/><text fill="#000000" font-family="sans-serif" font-size="13" font-weight="bold" lengthAdjust="spacing" textLength="19" x="480" y="318.1138">alt</text><text fill="#000000" font-family="sans-serif" font-size="11" font-weight="bold" lengthAdjust="spacing" textLength="157" x="544" y="317.2573">[transitive redelegation]</text><polygon fill="#A80036" points="532,339.3125,522,343.3125,532,347.3125,528,343.3125" style="stroke:#A80036;stroke-width:1.0;"/><line style="stroke:#A80036;stroke-width:1.0;stroke-dasharray:2.0,2.0;" x1="526" x2="979" y1="343.3125" y2="343.3125"/><text fill="#000000" font-family="sans-serif" font-size="13" lengthAdjust="spacing" textLength="31" x="538" y="338.2466">error</text><path d="M10,365.3125 L74,365.3125 L74,372.3125 L64,382.3125 L10,382.3125 L10,365.3125 " fill="#EEEEEE" style="stroke:#000000;stroke-width:1.0;"/><rect fill="none" height="71.3984" style="stroke:#000000;stroke-width:2.0;" width="1013.5" x="10" y="365.3125"/><text fill="#000000" font-family="sans-serif" font-size="13" font-weight="bold" lengthAdjust="spacing" textLength="19" x="25" y="378.3794">alt</text><text fill="#000000" font-family="sans-serif" font-size="11" font-weight="bold" lengthAdjust="spacing" textLength="208" x="89" y="377.5229">[already has max redelegations]</text><polygon fill="#A80036" points="532,412.1445,522,416.1445,532,420.1445,528,416.1445" style="stroke:#A80036;stroke-width:1.0;"/><line style="stroke:#A80036;stroke-width:1.0;stroke-dasharray:2.0,2.0;" x1="526" x2="979" y1="416.1445" y2="416.1445"/><text fill="#000000" font-family="sans-serif" font-size="13" lengthAdjust="spacing" textLength="31" x="538" y="411.0786">error</text><path d="M20,387.4453 L20,427.4453 L512,427.4453 L512,397.4453 L502,387.4453 L20,387.4453 " fill="#FBFB77" filter="url(#fun5t17tns17t)" style="stroke:#A80036;stroke-width:1.0;"/><path d="M502,387.4453 L502,397.4453 L512,397.4453 L502,387.4453 " fill="#FBFB77" style="stroke:#A80036;stroke-width:1.0;"/><text fill="#000000" font-family="sans-serif" font-size="13" lengthAdjust="spacing" textLength="471" x="26" y="404.5122">this is the number of redelegations for a specific (del, valSrc, valDst) triple</text><text fill="#000000" font-family="sans-serif" font-size="13" lengthAdjust="spacing" textLength="64" x="26" y="419.645">default : 7</text><line style="stroke:#A80036;stroke-width:1.0;" x1="980" x2="1022" y1="464.8438" y2="464.8438"/><line style="stroke:#A80036;stroke-width:1.0;" x1="1022" x2="1022" y1="464.8438" y2="477.8438"/><line style="stroke:#A80036;stroke-width:1.0;" x1="981" x2="1022" y1="477.8438" y2="477.8438"/><polygon fill="#A80036" points="991,473.8438,981,477.8438,991,481.8438,987,477.8438" style="stroke:#A80036;stroke-width:1.0;"/><text fill="#000000" font-family="sans-serif" font-size="13" lengthAdjust="spacing" textLength="270" x="987" y="459.7778">Unbond(del, valSrc) returns returnAmount</text><path d="M797,450.2109 L797,475.2109 L971,475.2109 L971,460.2109 L961,450.2109 L797,450.2109 " fill="#FBFB77" filter="url(#fun5t17tns17t)" style="stroke:#A80036;stroke-width:1.0;"/><path d="M961,450.2109 L961,460.2109 L971,460.2109 L961,450.2109 " fill="#FBFB77" style="stroke:#A80036;stroke-width:1.0;"/><text fill="#000000" font-family="sans-serif" font-size="13" lengthAdjust="spacing" textLength="153" x="803" y="467.2778">See unbonding diagram</text><path d="M465,520.8438 L529,520.8438 L529,527.8438 L519,537.8438 L465,537.8438 L465,520.8438 " fill="#EEEEEE" style="stroke:#000000;stroke-width:1.0;"/><rect fill="none" height="46.2656" style="stroke:#000000;stroke-width:2.0;" width="558.5" x="465" y="520.8438"/><text fill="#000000" font-family="sans-serif" font-size="13" font-weight="bold" lengthAdjust="spacing" textLength="19" x="480" y="533.9106">alt</text><text fill="#000000" font-family="sans-serif" font-size="11" font-weight="bold" lengthAdjust="spacing" textLength="144" x="544" y="533.0542">[returnAmount is zero]</text><polygon fill="#A80036" points="532,555.1094,522,559.1094,532,563.1094,528,559.1094" style="stroke:#A80036;stroke-width:1.0;"/><line style="stroke:#A80036;stroke-width:1.0;" x1="526" x2="979" y1="559.1094" y2="559.1094"/><text fill="#000000" font-family="sans-serif" font-size="13" lengthAdjust="spacing" textLength="31" x="538" y="554.0435">error</text><line style="stroke:#A80036;stroke-width:1.0;" x1="980" x2="1022" y1="595.2422" y2="595.2422"/><line style="stroke:#A80036;stroke-width:1.0;" x1="1022" x2="1022" y1="595.2422" y2="608.2422"/><line style="stroke:#A80036;stroke-width:1.0;" x1="981" x2="1022" y1="608.2422" y2="608.2422"/><polygon fill="#A80036" points="991,604.2422,981,608.2422,991,612.2422,987,608.2422" style="stroke:#A80036;stroke-width:1.0;"/><text fill="#000000" font-family="sans-serif" font-size="13" lengthAdjust="spacing" textLength="553" x="987" y="590.1763">Delegate(del, returnAmount, status := valSrc.status, valDst, subtractAccount := false)</text><path d="M797,580.6094 L797,605.6094 L971,605.6094 L971,590.6094 L961,580.6094 L797,580.6094 " fill="#FBFB77" filter="url(#fun5t17tns17t)" style="stroke:#A80036;stroke-width:1.0;"/><path d="M961,580.6094 L961,590.6094 L971,590.6094 L961,580.6094 " fill="#FBFB77" style="stroke:#A80036;stroke-width:1.0;"/><text fill="#000000" font-family="sans-serif" font-size="13" lengthAdjust="spacing" textLength="153" x="803" y="597.6763">See delegation diagram</text><path d="M465,651.2422 L529,651.2422 L529,658.2422 L519,668.2422 L465,668.2422 L465,651.2422 " fill="#EEEEEE" style="stroke:#000000;stroke-width:1.0;"/><rect fill="none" height="46.2656" style="stroke:#000000;stroke-width:2.0;" width="558.5" x="465" y="651.2422"/><text fill="#000000" font-family="sans-serif" font-size="13" font-weight="bold" lengthAdjust="spacing" textLength="19" x="480" y="664.3091">alt</text><text fill="#000000" font-family="sans-serif" font-size="11" font-weight="bold" lengthAdjust="spacing" textLength="150" x="544" y="663.4526">[validator is unbonded]</text><polygon fill="#A80036" points="532,685.5078,522,689.5078,532,693.5078,528,689.5078" style="stroke:#A80036;stroke-width:1.0;"/><line style="stroke:#A80036;stroke-width:1.0;" x1="526" x2="979" y1="689.5078" y2="689.5078"/><text fill="#000000" font-family="sans-serif" font-size="13" lengthAdjust="spacing" textLength="79" x="538" y="684.4419">current time</text><path d="M936.5,711.5078 L1000.5,711.5078 L1000.5,718.5078 L990.5,728.5078 L936.5,728.5078 L936.5,711.5078 " fill="#EEEEEE" style="stroke:#000000;stroke-width:1.0;"/><rect fill="none" height="75.3984" style="stroke:#000000;stroke-width:2.0;" width="641.5" x="936.5" y="711.5078"/><text fill="#000000" font-family="sans-serif" font-size="13" font-weight="bold" lengthAdjust="spacing" textLength="19" x="951.5" y="724.5747">alt</text><text fill="#000000" font-family="sans-serif" font-size="11" font-weight="bold" lengthAdjust="spacing" textLength="265" x="1015.5" y="723.7183">[unbonding not complete, or just started]</text><polygon fill="#A80036" points="1535,745.7734,1545,749.7734,1535,753.7734,1539,749.7734" style="stroke:#A80036;stroke-width:1.0;"/><line style="stroke:#A80036;stroke-width:1.0;" x1="980" x2="1541" y1="749.7734" y2="749.7734"/><text fill="#000000" font-family="sans-serif" font-size="13" lengthAdjust="spacing" textLength="168" x="987" y="744.7075">create redelegation object</text><polygon fill="#A80036" points="1535,774.9063,1545,778.9063,1535,782.9063,1539,778.9063" style="stroke:#A80036;stroke-width:1.0;"/><line style="stroke:#A80036;stroke-width:1.0;" x1="980" x2="1541" y1="778.9063" y2="778.9063"/><text fill="#000000" font-family="sans-serif" font-size="13" lengthAdjust="spacing" textLength="443" x="987" y="773.8403">insert redelegation in queue, to be processed at the appropriate time</text><polygon fill="#A80036" points="532,811.0391,522,815.0391,532,819.0391,528,815.0391" style="stroke:#A80036;stroke-width:1.0;"/><line style="stroke:#A80036;stroke-width:1.0;stroke-dasharray:2.0,2.0;" x1="526" x2="979" y1="815.0391" y2="815.0391"/><text fill="#000000" font-family="sans-serif" font-size="13" lengthAdjust="spacing" textLength="229" x="538" y="809.9731">completion time of the redelegation</text><line style="stroke:#A80036;stroke-width:1.0;" x1="521" x2="563" y1="859.3047" y2="859.3047"/><line style="stroke:#A80036;stroke-width:1.0;" x1="563" x2="563" y1="859.3047" y2="872.3047"/><line style="stroke:#A80036;stroke-width:1.0;" x1="522" x2="563" y1="872.3047" y2="872.3047"/><polygon fill="#A80036" points="532,868.3047,522,872.3047,532,876.3047,528,872.3047" style="stroke:#A80036;stroke-width:1.0;"/><text fill="#000000" font-family="sans-serif" font-size="13" lengthAdjust="spacing" textLength="236" x="528" y="839.106">emit event: delegator, valSrc, valSrc,</text><text fill="#000000" font-family="sans-serif" font-size="13" lengthAdjust="spacing" textLength="204" x="528" y="854.2388">sharesAmount, completionTime</text><!--MD5=[9489ec6ab85e1a6baa2f742142a408e8]
@startuml
'https://plantuml.com/sequence-diagram

title: Redelegation

msgServer -> keeper : BeginRedelegation(delAddr, valSrcAddr, valDstAddr, sharesAmount)
participant  "keeper (staking)" as keeper
keeper -> keeper : get number of sharew
note left: If the delegator has more shares than the total shares in the validator\n(due to rounding errors), then just withdraw the max number of shares.
keeper -> keeper : check the redelegation uses correct denom

alt valSrcAddr == valDstAddr
  keeper - -> msgServer : error
end
alt transitive redelegation
  keeper - -> msgServer : error
end
alt already has max redelegations
  keeper - -> msgServer : error
  note left : this is the number of redelegations for a specific (del, valSrc, valDst) triple\ndefault : 7
end


keeper -> keeper : Unbond(del, valSrc) returns returnAmount
...
note left : See unbonding diagram

alt returnAmount is zero
keeper -> msgServer : error
end

keeper -> keeper : Delegate(del, returnAmount, status := valSrc.status, valDst, subtractAccount := false)
note left : See delegation diagram
...

alt validator is unbonded
    keeper -> msgServer : current time
end

alt unbonding not complete, or just started
    database store
    keeper -> store : create redelegation object
    keeper -> store : insert redelegation in queue, to be processed at the appropriate time
end

msgServer <- - keeper : completion time of the redelegation
msgServer -> msgServer : emit event: delegator, valSrc, valSrc,\nsharesAmount, completionTime

@enduml

@startuml

title: Redelegation

msgServer -> keeper : BeginRedelegation(delAddr, valSrcAddr, valDstAddr, sharesAmount)
participant  "keeper (staking)" as keeper
keeper -> keeper : get number of sharew
note left: If the delegator has more shares than the total shares in the validator\n(due to rounding errors), then just withdraw the max number of shares.
keeper -> keeper : check the redelegation uses correct denom

alt valSrcAddr == valDstAddr
  keeper - -> msgServer : error
end
alt transitive redelegation
  keeper - -> msgServer : error
end
alt already has max redelegations
  keeper - -> msgServer : error
  note left : this is the number of redelegations for a specific (del, valSrc, valDst) triple\ndefault : 7
end


keeper -> keeper : Unbond(del, valSrc) returns returnAmount
...
note left : See unbonding diagram

alt returnAmount is zero
keeper -> msgServer : error
end

keeper -> keeper : Delegate(del, returnAmount, status := valSrc.status, valDst, subtractAccount := false)
note left : See delegation diagram
...

alt validator is unbonded
    keeper -> msgServer : current time
end

alt unbonding not complete, or just started
    database store
    keeper -> store : create redelegation object
    keeper -> store : insert redelegation in queue, to be processed at the appropriate time
end

msgServer <- - keeper : completion time of the redelegation
msgServer -> msgServer : emit event: delegator, valSrc, valSrc,\nsharesAmount, completionTime

@enduml

PlantUML version 1.2021.4(Sun Apr 04 10:49:39 CEST 2021)
(GPL source distribution)
Java Runtime: OpenJDK Runtime Environment
JVM: OpenJDK 64-Bit Server VM
Default Encoding: UTF-8
Language: en
Country: US
--></g></svg>